<svg width="140" height="49" viewBox="0 0 140 49" fill="none" xmlns="http://www.w3.org/2000/svg">
<g clip-path="url(#clip0_520_2733)">
<path fill-rule="evenodd" clip-rule="evenodd" d="M115.528 0C109.788 0 104.524 1.96224 100.352 5.27002C96.18 1.96224 90.916 0 85.176 0C79.436 0 74.172 1.96224 70 5.27002C65.828 1.96224 60.564 0 54.824 0C49.084 0 43.82 1.96224 39.648 5.27002C35.476 1.96224 30.212 0 24.472 0C10.948 0 0 10.9605 0 24.5C0 38.0395 10.948 49 24.472 49C30.212 49 35.476 47.0378 39.648 43.73C43.82 47.0378 49.084 49 54.824 49C60.564 49 65.828 47.0378 70 43.73C74.172 47.0378 79.436 49 85.176 49C90.916 49 96.18 47.0378 100.352 43.73C104.524 47.0378 109.788 49 115.528 49C129.052 49 140 38.0395 140 24.5C140 10.9605 129.052 0 115.528 0ZM35.644 39.7214C32.536 41.992 28.616 43.3936 24.472 43.3936C14.056 43.3936 5.6 34.956 5.6 24.5C5.6 14.0721 14.056 5.60641 24.472 5.60641C28.616 5.60641 32.508 7.00801 35.644 9.2786C32.312 13.4554 30.352 18.7534 30.352 24.5C30.352 30.2466 32.34 35.5446 35.644 39.7214ZM39.648 35.7128C37.324 32.5732 35.952 28.7048 35.952 24.5C35.952 20.2952 37.324 16.4268 39.648 13.2872C41.972 16.4268 43.344 20.2952 43.344 24.5C43.344 28.7048 41.972 32.5732 39.648 35.7128ZM65.996 39.7214C62.86 42.02 58.996 43.3936 54.824 43.3936C50.652 43.3936 46.788 42.0481 43.68 39.7214C46.984 35.5446 48.972 30.2466 48.972 24.5C48.972 18.7534 46.984 13.4554 43.68 9.2786C46.816 6.97998 50.652 5.60641 54.824 5.60641C58.996 5.60641 62.888 6.95195 65.996 9.2786C62.664 13.4554 60.704 18.7534 60.704 24.5C60.704 30.2466 62.692 35.5446 65.996 39.7214ZM70 35.7128C67.676 32.5732 66.304 28.7048 66.304 24.5C66.304 20.2952 67.676 16.4268 70 13.2872C72.324 16.4268 73.696 20.2952 73.696 24.5C73.696 28.7048 72.324 32.5732 70 35.7128ZM96.348 39.7214C93.212 42.02 89.348 43.3936 85.176 43.3936C81.004 43.3936 77.14 42.0481 74.004 39.7214C77.308 35.5446 79.296 30.2466 79.296 24.5C79.296 18.7534 77.308 13.4554 74.004 9.2786C77.14 6.97998 80.976 5.60641 85.176 5.60641C89.348 5.60641 93.24 6.95195 96.348 9.2786C93.016 13.4554 91.056 18.7534 91.056 24.5C91.056 30.2466 93.044 35.5446 96.348 39.7214ZM100.352 35.7128C98.028 32.5732 96.656 28.7048 96.656 24.5C96.656 20.2952 98.028 16.4268 100.352 13.2872C102.676 16.4268 104.048 20.2952 104.048 24.5C104.048 28.7048 102.676 32.5732 100.352 35.7128ZM115.528 43.3936C111.384 43.3936 107.464 41.992 104.356 39.7214C107.66 35.5446 109.648 30.2466 109.648 24.5C109.648 18.7534 107.66 13.4554 104.356 9.2786C107.464 7.00801 111.356 5.60641 115.528 5.60641C125.944 5.60641 134.4 14.0441 134.4 24.5C134.4 34.956 125.944 43.3936 115.528 43.3936Z" fill="#8993A4"/>
</g>
<defs>
<clipPath id="clip0_520_2733">
<rect width="140" height="49" fill="white"/>
</clipPath>
</defs>
</svg>
