<?xml version="1.0" encoding="utf-8"?>
<!-- Generator: Adobe Illustrator 27.4.0, SVG Export Plug-In . SVG Version: 6.00 Build 0)  -->
<svg version="1.1" id="Layer_1" xmlns="http://www.w3.org/2000/svg" xmlns:xlink="http://www.w3.org/1999/xlink" x="0px" y="0px"
	 viewBox="0 0 423.1 247.7" style="enable-background:new 0 0 423.1 247.7;" xml:space="preserve">
<style type="text/css">
	.st0{opacity:0.2;fill:#DEEBFF;enable-background:new    ;}
	.st1{fill:#DEEBFF;}
	.st2{fill:#FFF2FB;}
	.st3{fill:#3E81F5;}
	.st4{fill:#2684FF;}
	.st5{opacity:0.1;fill:#0E1F40;enable-background:new    ;}
	.st6{fill:#EDD4C2;}
	.st7{fill:url(#SVGID_1_);}
	.st8{fill:url(#SVGID_00000030448506057540566140000011875594096581141676_);}
	.st9{fill:#B2D4FF;}
	.st10{fill:#583827;}
	.st11{fill:#459DB9;}
	.st12{fill:#5E9AF7;}
	.st13{fill:#4085F6;}
	.st14{fill:#FFFFFF;}
	.st15{fill:#C3875D;}
	.st16{fill:#FF95DE;}
	.st17{fill:#2369F5;}
	.st18{fill:#F1D2C0;}
	.st19{fill:#1B55C4;}
	.st20{fill:#4FB2D1;}
	.st21{fill:#53382A;}
	.st22{fill:#ED50B4;}
	.st23{fill:#6358B6;}
	.st24{fill:#F6C556;}
	.st25{fill:#102647;}
	.st26{fill:#B6EFF9;}
	.st27{fill:#362A25;}
	.st28{fill:url(#SVGID_00000061437080707861958190000002300520704487294616_);}
	.st29{fill:#B2B9C3;}
	.st30{fill:#A4ACB8;}
	.st31{fill:#C0C6CE;}
	.st32{fill:#F4DBC9;}
	.st33{fill:#253858;}
	.st34{fill:#57D9A3;}
	.st35{fill:#4EAC82;}
	.st36{fill:#3381F0;}
	.st37{fill:#FAE3D2;}
	.st38{fill:#B7D3FA;}
	.st39{fill:#36B37E;}
	.st40{fill:url(#SVGID_00000109723500366747511310000009617608270614277248_);}
	.st41{fill:#0052CC;}
	.st42{fill:#F09637;}
	.st43{fill:url(#SVGID_00000073688899483964176650000008223648981314597544_);}
	.st44{fill:#F5C145;}
	.st45{fill:none;}
	.st46{fill:#E3CFBC;}
	.st47{fill:#ECD1BD;}
	.st48{fill:#79F2C0;}
	.st49{fill:#C1C6CE;}
	.st50{fill:#1A54C7;}
	.st51{fill:#F8DAC7;}
	.st52{fill:#F7CFB9;}
	.st53{fill:#DBB884;}
	.st54{fill:#50B5D5;}
	.st55{fill:#F5C143;}
	.st56{fill:#45526C;}
	.st57{fill:#2D4361;}
	.st58{fill:#F0D3C0;}
	.st59{fill:#FFE380;}
	.st60{fill:#C17D4F;}
	.st61{fill:#7E8393;}
	.st62{fill:none;stroke:#969DAA;stroke-width:0.21;stroke-miterlimit:10;}
	.st63{fill:none;stroke:#A5A9B5;stroke-width:0.41;stroke-linecap:round;stroke-linejoin:round;}
	.st64{fill:#E0BB9F;}
	.st65{fill:#F99CDB;}
	.st66{fill:url(#SVGID_00000042707733158558373650000000072024612217178498_);}
	.st67{fill:url(#SVGID_00000054230392132407031350000002383590543142944925_);}
	.st68{fill:#374561;}
	.st69{fill:#BFF2FC;}
	.st70{fill:#58C4E0;}
	.st71{fill:#2A4764;}
	.st72{fill:#0747A6;}
	.st73{fill:#D39B7A;}
	.st74{fill:#6C462A;}
	.st75{fill:#184BA9;}
	.st76{fill:none;stroke:#5E9AF7;stroke-width:1.86;stroke-miterlimit:10;}
	.st77{fill:#1B2B4B;}
	.st78{fill:none;stroke:#B2D4FF;stroke-width:0.5;stroke-miterlimit:10;}
	.st79{fill:#F6C444;}
	.st80{fill:#B87748;}
	.st81{fill:#50392B;}
	.st82{fill:#BF8B6D;}
	.st83{fill:#D6AE8F;}
	.st84{fill:#CB8D64;}
	.st85{fill:#F09A80;}
	.st86{fill:none;stroke:#1A52C0;stroke-width:0.82;stroke-linecap:round;stroke-linejoin:round;}
	.st87{fill:none;stroke:#296245;stroke-width:0.46;stroke-miterlimit:10;}
	.st88{fill:#DDAD8A;}
</style>
<g>
	<g id="illos">
		<rect x="366.2" y="188.9" class="st0" width="56.9" height="56.9"/>
		<rect x="309.5" y="132" class="st0" width="56.9" height="56.9"/>
		<rect y="160.4" class="st0" width="56.9" height="56.9"/>
		<rect x="56.9" y="103.5" class="st1" width="56.9" height="56.9"/>
		<rect y="46.5" class="st1" width="56.9" height="56.9"/>
		<g>
			<rect x="128.1" y="74.9" class="st2" width="14.2" height="14.2"/>
			<rect x="113.8" y="89.2" class="st1" width="14.2" height="14.2"/>
			<path class="st3" d="M169.8,90.1v12.4h-12.4V90.1H169.8 M170.7,89.2h-14.2v14.2h14.2V89.2L170.7,89.2z"/>
		</g>
		<g>
			<rect x="83.8" y="13.9" class="st4" width="14.2" height="14.2"/>
			<path class="st4" d="M110.9,1v12.2H98.7V1H110.9 M111.9,0H97.7v14.2h14.2V0L111.9,0z"/>
		</g>
		<ellipse class="st5" cx="27.2" cy="246.2" rx="16" ry="1.5"/>
		<ellipse class="st5" cx="136.3" cy="246.2" rx="16.1" ry="1.5"/>
		<ellipse class="st5" cx="176.1" cy="246.2" rx="16.1" ry="1.5"/>
		<ellipse class="st5" cx="338.5" cy="246.2" rx="16" ry="1.5"/>
		<ellipse class="st5" cx="377.7" cy="246.2" rx="16" ry="1.5"/>
		<ellipse class="st5" cx="236.7" cy="246.2" rx="26.4" ry="1.5"/>
		<ellipse class="st5" cx="69.5" cy="246.2" rx="23" ry="1.5"/>
		<path class="st6" d="M48.1,190.3c-0.8,0.1-1.9,0.2-1.9-0.1c0-0.4,3.4-0.8,3.2-0.9s-3,0.5-2.9,0c0.2-0.5,3.2-0.8,3.2-0.8
			c-1-0.4-0.8-1.4-0.8-1.4c-0.1-0.2,1.2,0.5,1.7,0.8c0.2,0.1,0.3,0.1,0.5,0.1c1.1,0.1,1.8,0.9,1.8,0.9l0,0c0.8,0.9,0.3,2.4-0.9,2.5
			l-0.8,0.1c-0.4,0.2-2.5,0.1-3,0.1c-0.5,0-0.3-0.4-0.3-0.4c2.2-0.3,2-0.4,2-0.4s-3.1,0.3-3.2-0.1C46.7,190.6,47.4,190.4,48.1,190.3
			L48.1,190.3z"/>
		<g>
			<path class="st4" d="M57.7,226.1h131.7v20H57.7c-1.9,0-3.4-1.5-3.4-3.4v-13.2C54.4,227.6,55.9,226.1,57.7,226.1L57.7,226.1z"/>
			<path class="st1" d="M186.8,228.4h112.4v14.9H186.8c-2.1,0-3.8-1.7-3.8-3.8v-7.4C183,230.1,184.7,228.4,186.8,228.4L186.8,228.4z
				"/>
			<path class="st4" d="M186.6,229.4H301v-2.3l0,0V226H186.9c-3.7,0-6.7,2.8-6.7,6.2v7.6c0,3.5,3,6.2,6.7,6.2H301v-1.1l0,0v-2.3
				H186.6c-1.7,0-3.1-1.4-3.1-3.1v-7C183.6,230.8,184.9,229.4,186.6,229.4L186.6,229.4z"/>
		</g>
		<g>
			
				<linearGradient id="SVGID_1_" gradientUnits="userSpaceOnUse" x1="122.5509" y1="-255.1302" x2="165.6509" y2="-101.1202" gradientTransform="matrix(1 0 0 -1 0 43.92)">
				<stop  offset="0" style="stop-color:#004AA5"/>
				<stop  offset="0.18" style="stop-color:#004DAD"/>
				<stop  offset="0.46" style="stop-color:#0055C3"/>
				<stop  offset="0.82" style="stop-color:#0062E8"/>
				<stop  offset="1" style="stop-color:#006BFF"/>
			</linearGradient>
			<path class="st7" d="M87.4,206.5h119.1v19.6H87.4c-1.8,0-3.3-1.5-3.3-3.3v-12.9C84.1,208,85.6,206.5,87.4,206.5z"/>
			<path class="st1" d="M203.9,208.9h67.3v14.9h-67.3c-2.1,0-3.8-1.7-3.8-3.8v-7.4C200.1,210.5,201.8,208.9,203.9,208.9L203.9,208.9
				z"/>
			
				<linearGradient id="SVGID_00000115516048570348687650000017285096417208513187_" gradientUnits="userSpaceOnUse" x1="296.5084" y1="-183.6583" x2="227.5684" y2="-170.3083" gradientTransform="matrix(1 0 0 -1 0 43.92)">
				<stop  offset="0" style="stop-color:#004AA5"/>
				<stop  offset="0.18" style="stop-color:#004DAD"/>
				<stop  offset="0.46" style="stop-color:#0055C3"/>
				<stop  offset="0.82" style="stop-color:#0062E8"/>
				<stop  offset="1" style="stop-color:#006BFF"/>
			</linearGradient>
			<path style="fill:url(#SVGID_00000115516048570348687650000017285096417208513187_);" d="M203.7,209.8h69.2v-2.2l0,0v-1.1H204
				c-3.7,0-6.7,2.8-6.7,6.1v7.4c0,3.4,3,6.1,6.7,6.1h68.9V225l0,0v-2.2h-69.2c-1.7,0-3.1-1.4-3.1-3.1v-6.8
				C200.6,211.2,202,209.8,203.7,209.8L203.7,209.8z"/>
		</g>
		<g>
			<path class="st9" d="M232.8,152.8c-0.4,1.9-3,4.9-4.9,4.5l-8.6-3.8l0,0c-1.7-0.4-2.8-2-2.4-3.7s1.9-2.8,3.6-2.5l0,0l9.5,1.5
				C231.8,149.1,233.1,150.9,232.8,152.8L232.8,152.8L232.8,152.8z"/>
			<path class="st10" d="M209.1,143.6L209.1,143.6c0.4-0.5,1.2-0.6,1.7-0.2l3.2,2.5c0.5,0.4,0.6,1.2,0.2,1.7l0,0
				c-0.4,0.5-1.2,0.6-1.7,0.2l-3.2-2.5C208.7,145,208.6,144.2,209.1,143.6z"/>
			<path class="st10" d="M212.1,144.6c0,0-0.9-0.8-0.9-1s-0.1-1-0.8-1.6s-1.1-1.7-1.1-1.7s-0.5,0.1-0.3,0.7s0.6,1,0.6,1
				s-0.2,0.2-0.8,0s-1-0.2-1.6-0.4s-1.4-0.6-1.6-0.3s1,0.8,1.2,0.9c0,0-1.4-0.7-1.5-0.5s0.2,0.6,1,1c0.2,0.1-0.4-0.3-0.5,0
				c-0.1,0.4,1.1,1,1.2,1.2c0.1,0.1,0.2,0.3,0.5,0.4c0.9,0.5,2,1.6,2.5,1.5C210.3,145.6,211.9,145.5,212.1,144.6L212.1,144.6z"/>
			<path class="st9" d="M219.8,147c1.4,0.9,1.9,2.8,1.1,4.3c-0.9,1.5-2.8,2-4.2,1.1l0,0l-5.9-4.3l2.5-3.9L219.8,147L219.8,147
				L219.8,147z"/>
			<polygon class="st11" points="214.8,144.7 212.7,149.5 210.6,148.1 213.1,144 			"/>
		</g>
		<g>
			<path class="st10" d="M255.9,151l1,1.1l0.1-0.1c0.2-0.2-0.3-1-0.5-1.1l0,0c-0.2-0.2-0.4-0.2-0.6,0L255.9,151L255.9,151z"/>
			<path class="st10" d="M255.9,151.1l-0.6-0.6l0.1-0.1c0.2-0.2,0.4-0.2,0.6,0l0,0c0.2,0.2,0.2,0.4,0,0.6L255.9,151.1L255.9,151.1
				L255.9,151.1z"/>
			<path class="st10" d="M255.4,150.5l-0.6-0.6l0.1-0.1c0.2-0.2,0.4-0.2,0.6,0l0,0c0.2,0.2,0.2,0.4,0,0.6L255.4,150.5L255.4,150.5
				L255.4,150.5z"/>
			<path class="st10" d="M254.8,150l-0.6-0.6l0.1-0.1c0.2-0.2,0.4-0.2,0.6,0l0,0c0.2,0.2,0.2,0.4,0,0.6L254.8,150L254.8,150
				L254.8,150z"/>
		</g>
		<g>
			<g>
				<path class="st12" d="M202,141.9c-1.2-0.6-4.4,0.5-5,1.8l-4,11l0,0c-0.5,1,0,2.2,1,2.7s2.2,0.1,2.8-0.9l0,0l5.4-10.4
					c0.6-1.2,0.8-3.8-0.4-4.4L202,141.9L202,141.9z"/>
				<polygon class="st13" points="198.1,154.9 196.1,153.9 197.8,146.5 				"/>
				<g>
					<circle class="st14" cx="212.2" cy="146.5" r="1.4"/>
					<circle class="st14" cx="200.1" cy="144.5" r="1.4"/>
				</g>
				<path class="st12" d="M212.3,144.4c1.4-0.1,2.5,1,2.6,2.4l0.1,11.7l0,0c0,1.1-0.9,2.1-2,2.1c-1.1,0-2.1-0.8-2.2-2l0,0l-0.9-11.7
					C209.8,145.7,210.9,144.5,212.3,144.4L212.3,144.4z"/>
				<path class="st15" d="M219.5,158.1L219.5,158.1c-0.1-0.7,0.3-1.3,1-1.4l4-0.7c0.7-0.1,1.3,0.3,1.4,1l0,0c0.1,0.7-0.3,1.3-1,1.4
					l-4,0.7C220.3,159.2,219.6,158.7,219.5,158.1z"/>
				<path class="st15" d="M222.7,156.3c0,0,1.2-0.3,1.3-0.5s0.6-0.9,1.5-1c0.9-0.2,1.8-1,1.8-1s0.4,0.4-0.1,0.8s-1,0.6-1,0.6
					s0.1,0.3,0.7,0.4s1,0.2,1.6,0.4s1.5,0.1,1.5,0.5s-1.3,0.2-1.5,0.2c0,0,1.5,0.1,1.6,0.3s-0.5,0.4-1.3,0.4c-0.2,0,0.5-0.1,0.5,0.2
					c-0.1,0.4-1.4,0.4-1.6,0.5c-0.1,0.1-0.4,0.1-0.7,0.1c-1.1,0-2.5,0.5-2.9,0.1C223.9,158.1,222.5,157.3,222.7,156.3L222.7,156.3z"
					/>
				<path class="st12" d="M212.4,156.6L212.4,156.6l11.6-1.2l0,4.1l-10.9,1.3l0,0c-1.1,0.1-2.2-0.6-2.4-1.7
					C210.6,157.8,211.3,156.8,212.4,156.6L212.4,156.6z"/>
				<g>
					<circle class="st14" cx="199.8" cy="167.7" r="2.3"/>
					<circle class="st14" cx="206.9" cy="167.7" r="2.3"/>
				</g>
				<path class="st16" d="M200,163.8c2.3,0,4.1,2,3.9,4.3l-1.2,14.8c-0.1,1.5-1.3,2.7-2.8,2.6c-1.5,0-2.7-1.3-2.7-2.8l-1-14.7
					C195.8,165.8,197.7,163.8,200,163.8L200,163.8L200,163.8z"/>
				<path class="st16" d="M206.9,163.8c2.3-0.2,4.2,1.7,4.2,4v14.8c0.1,1.5-1.1,2.8-2.6,2.9c-1.5,0.1-2.8-1.1-2.9-2.6l-2.3-14.5
					C202.9,166.1,204.6,164,206.9,163.8L206.9,163.8L206.9,163.8z"/>
				<g>
					<path class="st16" d="M210.2,157.5l0.9,8.2c0.1,0.6,0.1,1.2-0.1,1.8c-0.4,2.1-1.9,4.8-3.8,4.8l-5.9,0v-14.7H210.2L210.2,157.5z
						"/>
					<path class="st16" d="M196.9,157.5l-0.9,8.2c-0.1,0.6-0.1,1.2,0.1,1.8c0.4,2.1,1.9,4.8,3.8,4.8l5.9,0v-14.7H196.9L196.9,157.5z
						"/>
				</g>
				<path class="st15" d="M206.7,203.2L206.7,203.2c0.9,0,1.6-0.7,1.6-1.6l0.1-5.9c0-0.9-0.7-1.6-1.6-1.6l0,0
					c-0.9,0-1.6,0.7-1.6,1.6l-0.1,5.9C205.1,202.5,205.8,203.2,206.7,203.2L206.7,203.2z"/>
				<path class="st17" d="M204.6,204.8l0.6-1.5v-4h3.3v4l0,0l0.5,2.3v1h-5h-0.1C203.7,205.9,203.9,205.2,204.6,204.8L204.6,204.8z"
					/>
				<path class="st15" d="M200.8,203.4L200.8,203.4c0.9,0,1.6-0.7,1.6-1.6v-5.9c0-0.9-0.7-1.6-1.6-1.6l0,0c-0.9,0-1.6,0.7-1.6,1.6
					v5.9C199.2,202.7,200,203.4,200.8,203.4z"/>
				<path class="st17" d="M194.2,206.5c0-0.6,0.4-1.1,1-1.2c0.6-0.2,1.4-0.5,2.1-1c1.3-1,1.6-3.8,1.6-4.8h3.9v7h-2.2v-1.7
					c-0.4,0-2,1.7-2,1.7L194.2,206.5L194.2,206.5L194.2,206.5z"/>
				<g>
					<path class="st18" d="M204.3,140.1C204.3,140.1,204.3,140.1,204.3,140.1C204.3,140.1,204.3,140.1,204.3,140.1z"/>
					<path class="st18" d="M204.3,140.1L204.3,140.1L204.3,140.1z"/>
				</g>
				<path class="st16" d="M205.6,182.4c0.2-1.5,1.6-2.5,3-2.4s2.6,1.5,2.5,3l-2,16.1l-4.7-0.5L205.6,182.4L205.6,182.4z"/>
				<path class="st16" d="M197.1,183.2c0-1.5,1.1-2.7,2.6-2.8c1.5-0.1,2.8,1,2.9,2.5l0.5,16l-4.7,0.2L197.1,183.2z"/>
				<path class="st12" d="M199.2,142.1c2.3-0.7,5.6-0.9,7.2-1.1l0.8,0.1c1.4,0.7,4.4,1.9,6.4,3.3c1.9,1.3-2.6,12.1-3,15.3
					c0,0-0.5,0.1-1.2,0.4c-4.1,1.1-8.5,0.3-12-2.1l-0.8-0.5C197.1,154.3,197,142.7,199.2,142.1L199.2,142.1z"/>
				<path class="st15" d="M206.5,140l2.6,2.2c1.3,1.1-3.7,5.2-3.7,5.2s-3.3-5.1-2-5.8L206.5,140L206.5,140z"/>
				<path class="st15" d="M203.6,143l4.7,0.7l1.1-7.1c0.2-1-0.7-2.1-2-2.3l0,0c-1.3-0.2-2.5,0.5-2.6,1.5L203.6,143L203.6,143z"/>
				<path class="st19" d="M205.4,147.6c0.4-1.2,1.8-2.1,1.8-2.1c-0.5-0.5-0.1-1.2-0.1-1.2c1.6-1.6,1.7-2.6,1.7-2.6
					c0.8,0,0.4,0.9,0.4,0.9l0.4,0.1C209.2,144.3,208,146.7,205.4,147.6L205.4,147.6z"/>
				<path class="st19" d="M205.4,147.6c0-1.3-1.1-2.5-1.1-2.5c0.6-0.3,0.5-1.1,0.5-1.1c-1.1-2-0.8-3-0.8-3c-0.8-0.2-0.6,0.8-0.6,0.8
					l-0.4,0C202.9,143.4,203.3,145.9,205.4,147.6L205.4,147.6z"/>
			</g>
			<g>
				<path class="st9" d="M229.4,151.1c0.8-1.8,4.8-2.6,6.5-1.8l8.7,4.2l0,0c1.5,0.7,2.2,2.6,1.5,4.1s-2.5,2.3-4.1,1.6l0,0l-8.9-3.7
					c-1.8-0.8-2.1-2.5-1.3-4.3L229.4,151.1z"/>
				<path class="st10" d="M254.2,149.8L254.2,149.8c0.6,0.8,0.7,1.4-0.1,2l-4.9,4c-0.8,0.6-1.9,0.4-2.4-0.4l0,0
					c-0.6-0.8-0.4-1.9,0.4-2.5l5.2-3.2C253.1,149.1,253.7,149,254.2,149.8L254.2,149.8z"/>
				<path class="st10" d="M253.9,150.4c0.8,0.5,1.6,0.9,1.9,1.9c0.1,0.4,0.1,0.9,0.1,1.3c-0.3,0.1-0.6,0.1-1,0.1l-2.5,0.7l-1.6-1.6
					C250.8,152.8,252.5,151,253.9,150.4L253.9,150.4z"/>
				<path class="st9" d="M242.4,154c-1.4,0.9-1.9,2.8-1,4.3c0.9,1.5,2.8,1.9,4.3,1.1l0,0l5.8-4.5l-2.6-3.8L242.4,154L242.4,154
					L242.4,154z"/>
				<polygon class="st20" points="251.8,155.3 249,150.9 247,152.6 250,156.3 				"/>
				<polygon class="st21" points="231.9,199.5 231.6,194.8 234.9,196.1 234.5,200.3 				"/>
				<polygon class="st21" points="224.2,199.6 224.1,194.8 227.3,193.6 227.2,201.4 				"/>
				<path class="st22" d="M231.3,205.2l0.4-2.6c0.1-0.3,0.1-0.6,0.1-0.9v-3.5h3v5.4v-1.4l0.4,3.5v0.9h-4.6h-0.3
					C230.4,205.8,230.8,205.4,231.3,205.2L231.3,205.2z"/>
				<g>
					<path class="st23" d="M234,176.7c-2.4,0-4.4-1.7-4.8-4.1c-0.1-0.9-0.2-2-0.2-3c0-5.4,2.3-9.8,5.1-9.8s5.1,4.4,5.1,9.8
						c0,1-0.1,2-0.2,3C238.4,174.9,236.4,176.7,234,176.7L234,176.7z"/>
					<path class="st23" d="M223.7,176.7c-2.4,0-3.7-1.7-4.1-4.1c-0.1-0.9-0.2-2-0.2-3c0-5.4,1.5-9.8,4.3-9.8s5.1,4.4,5.1,9.8
						c0,1-0.1,2-0.2,3C228.1,174.9,226,176.7,223.7,176.7L223.7,176.7L223.7,176.7z"/>
					<rect x="223.5" y="159.8" class="st4" width="10.5" height="16.9"/>
				</g>
				<g>
					<circle class="st24" cx="223.5" cy="171.3" r="2.1"/>
					<circle class="st24" cx="234" cy="171.3" r="2.1"/>
				</g>
				<path class="st4" d="M233.5,166.4c3.2,0,5.7,2.8,5.3,5.9l-1.7,14.5c0,2.2-1.8,3.9-4,3.9s-3.9-1.8-4-3.9l-1-14.7
					C228,169,230.4,166.4,233.5,166.4L233.5,166.4L233.5,166.4z"/>
				<path class="st4" d="M224,166.4c3.2,0,5.7,2.8,5.3,5.9l-1.7,14.5c0,2.2-1.8,3.9-4,3.9s-3.9-1.8-4-3.9l-0.3-14.7
					C219.2,169,220.9,166.4,224,166.4L224,166.4L224,166.4z"/>
				<path class="st25" d="M226,144.4c0-0.2,0.1-0.3,0.1-0.4c0-0.1,0.1-0.2,0.1-0.2s-0.1-0.1-0.1-0.2c-0.1-0.1-0.1-0.3-0.1-0.4
					c0-0.2,0.1-0.3,0.1-0.4c0-0.1,0.1-0.2,0.1-0.2s-0.1-0.1-0.1-0.2c-0.1-0.1-0.1-0.3-0.1-0.4c0-0.2,0.1-0.3,0.2-0.4
					c0.1-0.1,0.1-0.2,0.1-0.2c0-0.1,0-0.2-0.1-0.3c-0.1-0.1-0.1-0.3-0.1-0.5c0.1-0.2,0.2-0.3,0.3-0.4c0.1-0.1,0.1-0.1,0.2-0.2
					c0-0.1,0-0.2,0-0.3c0-0.2,0-0.4,0.1-0.5s0.3-0.2,0.5-0.3c0.1,0,0.2-0.1,0.2-0.1s0.1-0.1,0.1-0.2c0.1-0.1,0.2-0.3,0.3-0.4
					c0.2-0.1,0.1,0,0.3,0c0.1,0,0.2,0,0.3,0s0.1-0.1,0.2-0.1c0.1-0.1,0.3-0.2,0.4-0.2c0.2,0,0.4,0.2,0.6,0.2c0.1,0,0.3-0.1,0.4-0.1
					s0.1,0,0.2-0.1c0.1-0.1,0.1,0.1,0.3,0.2c0.2,0,0.5-0.1,0.6,0c0.1,0.1,0.1,0.1,0.2,0.2c0.1,0,0.2,0,0.2,0c0.2,0,0.3,0,0.5,0.1
					c0.2,0.1,0.2,0.2,0.3,0.4c0.1,0.1,0.1,0.2,0.1,0.2c0.1,0,0.1,0.1,0.2,0.1c0.2,0,0.3,0.1,0.5,0.2c0.1,0.2,0.2,0.4,0.2,0.5
					c0,0.1,0.1,0.2,0.1,0.3c0,0.1,0.1,0.1,0.2,0.2c0.1,0.1,0.3,0.3,0.4,0.5c0.1,0.2,0,0.4,0,0.6c0,0.1,0,0.3,0,0.4
					c0,0.1,0.1,0.2,0.2,0.3c0.1,0.1,0.2,0.3,0.2,0.5c0,0.2,0,0.4-0.1,0.5c0,0.1-0.1,0.2-0.1,0.4c0,0.1,0.1,0.2,0.1,0.3
					c0.1,0.1,0.2,0.3,0.2,0.5c0,0.2-0.1,0.4-0.1,0.5c-0.1,0.1-0.1,0.2-0.1,0.3s0.1,0.2,0.1,0.4c0.1,0.2,0.1,0.3,0.1,0.5
					s-0.1,0.4-0.2,0.5c-0.1,0.1-0.1,0.2-0.1,0.3c0,0.1,0,0.2,0.1,0.4c0.1,0.2,0.1,0.3,0.1,0.5c0,0.2-0.1,0.4-0.2,0.5
					c-0.1,0.1-0.1,0.2-0.1,0.3c0,0.1,0,0.3,0.1,0.4c0,0.1,0.1,0.3,0.1,0.5c0,0.1,0,0.2,0,0.3c0,0.3-0.1,0.4-0.4,0.5
					c-0.1,0-0.1,0.1-0.2,0.1c-0.1,0.1-0.2,0.1-0.4,0.1c0,0-0.1,0-0.1,0c-0.2,0-0.3-0.1-0.4-0.2c-0.1-0.1-0.1-0.1-0.1-0.1
					c-0.1,0-0.1,0-0.2,0.1c-0.1,0.1-0.2,0.1-0.4,0.1s-0.3-0.1-0.4-0.2c-0.1-0.1-0.1-0.1-0.1-0.1c-0.1,0-0.1,0-0.2,0.1
					c-0.1,0.1-0.2,0.1-0.4,0.1s-0.3-0.1-0.4-0.2c-0.1-0.1-0.1-0.1-0.1-0.1c-0.1,0-0.1,0-0.2,0.1c-0.1,0.1-0.2,0.1-0.4,0.1
					s-0.3-0.1-0.4-0.2c-0.1-0.1-0.1-0.1-0.1-0.1c-0.1,0-0.1,0-0.2,0.1c-0.1,0.1-0.2,0.1-0.4,0.1s-0.3-0.1-0.4-0.2
					c-0.1-0.1-0.1-0.1-0.1-0.1c-0.1,0-0.1,0-0.2,0.1c-0.1,0.1-0.2,0.1-0.4,0.1s-0.3-0.1-0.4-0.2c-0.1-0.1-0.1-0.1-0.1-0.1
					c-0.1,0-0.1,0-0.2,0.1c-0.1,0.1-0.3,0.2-0.5,0.1c-0.1,0-0.2-0.1-0.2-0.2c0-0.1,0-0.3,0.1-0.4c0.1-0.1,0.1-0.2,0.1-0.3
					c0,0-0.1-0.1-0.1-0.2c-0.1-0.1-0.2-0.3-0.2-0.5c0-0.1,0.1-0.3,0.1-0.4c0.1-0.1,0.1-0.2,0.1-0.2c0,0-0.1-0.1-0.1-0.2
					c-0.1-0.1-0.2-0.3-0.2-0.4c0-0.2,0.1-0.3,0.1-0.4c0.1-0.1,0.1-0.2,0.1-0.2c0,0-0.1-0.1-0.1-0.2c-0.1-0.1-0.2-0.3-0.2-0.4
					c0-0.2,0.1-0.3,0.1-0.4c0-0.1,0.1-0.2,0.1-0.2s-0.1-0.1-0.1-0.2C226.1,144.6,226,144.5,226,144.4L226,144.4z"/>
				<path class="st25" d="M224.8,147.6c-0.4-0.8,0.3-2,0.6-2.4c-0.1-0.6-0.1-2.5,0.1-3.4c0.1-0.3,0.2-0.6,0.3-1s0.2-1,1-1.4
					c0.5-0.4,2.8-1.9,4-1.3l-1.8,0.8c-0.2,0-0.4,2.1-2.1,3c0,0.5-0.1,1.5,0.2,2.4c0.3,1,1.5,1.7,1.2,2.7c0.9,0.8,0.1,1.6-0.8,2.4
					c-1.1,1-3,1.6-3.4,0.6C223.7,149.3,224.5,148.4,224.8,147.6L224.8,147.6z"/>
				<path class="st25" d="M223.6,149c0-0.2,0.4-0.3,0.4-0.6c0-0.2-0.2-0.5-0.2-0.7c0-0.2,0.4-0.4,0.4-0.5c0-0.2-0.2-0.5-0.2-0.7
					c0.1-0.4,0.4-0.5,0.4-0.5c0-0.1-0.1-0.4,0.2-0.7c0,0,0,0,0,0c0-0.1,0.1-0.2,0.1-0.3c0-0.2-0.3-0.4-0.2-0.7
					c0-0.2,0.4-0.3,0.4-0.6c0-0.2-0.2-0.5-0.2-0.7c0-0.2,0.4-0.4,0.4-0.5c0-0.1,0-0.1,0-0.2c-0.1-0.1-0.1-0.1-0.1-0.2
					c0-0.1,0-0.1-0.1-0.2c-0.1-0.3-0.1-0.7-0.1-0.8c0.1-0.2,0.5-0.3,0.6-0.4c0.1-0.2-0.1-0.5-0.1-0.7c0.1-0.3,0.5-0.4,0.5-0.4
					c0,0,0-0.5,0.5-0.8c0.2-0.1,0.5,0.1,0.6,0c0.2-0.1,0.2-0.5,0.4-0.7c0.1,0,0.6-0.2,0.9,0c0.1,0.1,0.2,0.2,0.2,0.3
					c0.2-0.2,0.4-0.5,0.5-0.5l0.1,1.1c0.1,0.1,0.2,0.2,0.4,0.3c0.1,0.1,0.2,0.2,0.4,0.3l-0.1,0.4c-0.3,0.2-0.3,0.7-0.6,1
					c0,0,0,0,0,0c-0.1,0.3-0.1,0.7-0.3,1c-0.2,0.3-0.6,0.5-0.8,0.7l0.2,2.9c-0.2,0.3-0.2,0.8-0.4,1.1c-0.2,0.3-0.7,0.5-0.9,0.8
					c-0.2,0.3-0.1,0.8-0.2,1.1c-0.2,0.4-0.6,0.5-0.8,0.8c-0.2,0.4-0.1,1.1-0.4,1.3c-0.6,0.5-0.7-0.1-1.1-0.2c-0.3,0-0.3,0.8-0.9,0
					c-0.3-0.3,0-0.5,0.1-0.8C223.9,149.5,223.6,149.2,223.6,149L223.6,149z"/>
				<g>
					<circle class="st14" cx="234.8" cy="151.6" r="1.2"/>
					<circle class="st14" cx="226.5" cy="151.6" r="1.2"/>
				</g>
				<g>
					<polygon class="st10" points="230,145.2 236.1,150.4 235.2,156.5 224.9,156.8 224.1,149.9 					"/>
					<path class="st4" d="M232.7,150.5c0,2-1.8,3.4-4.1,3.3c-3-0.1-4.4-5.8-4.3-3.8c0,0.1,0.1,13,0.1,13l0,0
						c2.6-0.6,5.3-0.7,7.9-0.1l0.3,0.1L232.7,150.5z"/>
					<path class="st9" d="M232.7,147.4c7,4,6.6,6.7,6.4,12.9c-0.2,6.6,0.4,12.8,0.4,12.8l-7.1,0.1
						C230.2,157.3,232.7,147.3,232.7,147.4L232.7,147.4z"/>
					<path class="st1" d="M232.3,153.4l2.6,4.7l-3.1,9.1c-1-12.4,0.9-19.8,0.9-19.8l2.9,3.5L232.3,153.4L232.3,153.4z"/>
					<path class="st10" d="M228.1,148.5l3.8,0v-7.2c0-1.1-0.9-1.9-1.9-1.9l0,0c-1.1,0-1.9,0.9-1.9,1.9L228.1,148.5L228.1,148.5z"/>
				</g>
				<path class="st9" d="M226.9,147.6c-5,1.7-7.2,8.5-7.8,14.8c-0.5,5.9-1,10.5-1,10.5l5.8,0.1C226.2,157.7,226.9,147.6,226.9,147.6
					z"/>
				<path class="st1" d="M225.7,154.5l-2.9-3l4.1-4c0,0,0.1,0,0.1,0c0,0,0,0.1,0,0.1c0,1-0.9,9-2.4,20.3l-2.2-9.1L225.7,154.5
					L225.7,154.5z"/>
				<g>
					<path class="st10" d="M227.4,139c0,0-1.8,1.2-1.6,3.6c0,0-0.6,0.7-0.2,1.5c0,0,0.8,2.5,0.9,2.6c0.4,0.4,2.7,0.7,4.7-1
						c0.1-0.1,0.3-0.3,0.4-0.4c0.7-1.3,1.2-5.1-0.1-6.1C229,137.5,227.4,139,227.4,139L227.4,139z"/>
					<path class="st25" d="M226.7,139.7c0.4-0.4,0.7-0.6,0.7-0.6s1.6-1.5,4.1,0.2c0.9,0.6,1.4,2.3,1.1,3.9c0,0,0,0-0.1,0
						c-1.4,0.2-2-1.8-2-1.8C229.3,138,226.7,139.7,226.7,139.7L226.7,139.7L226.7,139.7z"/>
					<path class="st10" d="M231.2,143.6c-0.1,0.6,0,1.2,0.4,1.3c0.8,0.1,1.2-1.3,1.1-1.9s-0.2-0.7-0.6-0.8S231.3,143,231.2,143.6z"
						/>
				</g>
				<rect x="231.8" y="144.4" class="st26" width="0.4" height="1.8"/>
				<circle class="st26" cx="232" cy="144.4" r="0.3"/>
				<path class="st22" d="M223.2,205.2l0.7-1.8c0.3-0.8,0.3-1.6,0.3-2.5l0-2.6l3.2-0.2v5.4v-1.4l0.3,1.7l0,2.7h-0.4l-0.1-1.7
					c0,0-0.9,0.4-1.1,1.5c0,0.1,0,0.2-0.1,0.2h-3.5h-0.3C222.3,205.8,222.6,205.4,223.2,205.2L223.2,205.2z"/>
				<path class="st4" d="M229.2,186.8c0.1-2.1,1.9-3.7,4.1-3.7c2.1,0.1,3.8,1.8,3.8,3.9l-1.8,10.5l-5,0L229.2,186.8L229.2,186.8z"/>
				<path class="st4" d="M219.9,187.7c-0.3-2.1,1.1-4.1,3.1-4.5s4.1,0.9,4.6,3l0.6,10.6l-5.1,1.5L219.9,187.7L219.9,187.7z"/>
			</g>
			<g>
				<path class="st14" d="M198.5,148.9l2.9-0.3c0.3,0,0.5,0.2,0.5,0.5l0.2,6.1l0,0c0,0,0,0,0,0l0,0c0,0.3-0.7,0.6-1.5,0.7
					s-1.6-0.2-1.6-0.5l0,0v0l0,0l-1-5.9C198.1,149.2,198.3,148.9,198.5,148.9L198.5,148.9z"/>
				<path class="st12" d="M197.8,154.4l-0.3,5l-3.5-1.9c-0.8-0.5-1.3-1.4-1-2.4l0,0c0.3-1.2,1.5-1.8,2.7-1.5L197.8,154.4
					L197.8,154.4z"/>
				<ellipse class="st13" cx="197.9" cy="156.9" rx="1.5" ry="2.5"/>
				<path class="st15" d="M199.2,156.7c0,0-1,0.5-1.5,0.5c0,0-0.3-2-0.2-3.1s1.1-1.6,1.1-1.6s1.3-0.4,1.7,0.3c0,0,0.1,0.6-1.1,0.5
					l-0.5,0.2l2,0.5c0.2,0,0.3,0.2,0.2,0.4l0,0c0,0.1-0.2,0.3-0.3,0.3l-1.7,0l2.4,0.4c0.2,0,0.3,0.2,0.2,0.4l0,0
					c0,0.1-0.1,0.2-0.3,0.2l-1.9,0l1.6,0.3c0.2,0,0.3,0.2,0.2,0.4l0,0c0,0.1-0.1,0.2-0.3,0.2L199.2,156.7L199.2,156.7z"/>
			</g>
			<g>
				<path class="st27" d="M202.6,143.4c-0.1-1.5,0.1-0.9,0.7-1.4s1.1-1.2,0.7-3.6c-0.4-2.5-0.1-5.3-0.1-5.3s-1.2,1.5-1.4,3.3
					s-0.8,0.6-1.2,3.3s-1.3,1.5-0.9,3.7c0.2,1.4,0,1.8-0.2,2c-0.1,0.1-0.1,0.2,0.1,0.2C200.9,145.5,202.7,144.8,202.6,143.4
					L202.6,143.4z"/>
				<path class="st27" d="M209.5,144.3c0.6-1.5-0.1-1-0.6-1.7s-0.4-1.3,0.6-3.5s1.5-5.1,1.5-5.1s0.8,1.7,0.5,3.5s0.6,0.8,0.3,3.5
					s0.9,1.8-0.1,3.8c-0.6,1.3-0.5,1.8-0.3,2c0.1,0.1,0,0.2-0.1,0.2C210.5,146.8,209,145.7,209.5,144.3L209.5,144.3z"/>
				<path class="st15" d="M204.6,132.9c0.2-0.2,1.3-1.1,2.9-1l0,0l0,0l0,0l0,0l0,0l0,0c0,0,0,0,0,0l0,0l0,0l0,0l0,0l0,0l0,0l0,0l0,0
					l0,0c0,0,0,0,0,0c0,0,0,0,0,0l0,0l0,0l0,0l0,0l0,0l0,0l0,0l0,0l0,0l0,0c0,0,0,0,0,0c0,0,0,0,0,0l0,0l0,0l0,0l0,0l0,0l0,0l0,0
					l0,0l0,0c0,0,0,0,0,0l0,0l0,0l0,0l0,0l0,0l0,0c1.6,0.3,2.4,1.6,2.5,1.8c0.6,0.9,0.1,2.6-0.3,4c-0.2,0.7-0.4,1.7-0.9,2.5
					c-0.7,1-1.5,1.6-2.3,1.7c0,0-1-0.1-1.1-0.1c-0.7-0.3-1.3-1-1.7-2.2c-0.3-0.9-0.2-1.9-0.2-2.6c0-1.5,0-3.2,0.8-4L204.6,132.9z"/>
				<path class="st27" d="M203.5,133.6c0.2-0.8,0.6-1.4,1.1-1.9c1.9-1.7,4.7-1.3,6.1,0.9c0.4,0.6,0.6,1.3,0.6,2.1
					c0,3.1-1.2,3.4-1.2,3.4s0.5-2.6-0.2-3.6c-0.6-0.8-1.8-1.2-2.3-1.5c-0.6,0.2-1.9,0.2-2.6,0.8c-0.9,0.8-1.2,3.4-1.2,3.4
					S202.6,136.5,203.5,133.6L203.5,133.6z"/>
				<path class="st15" d="M203.6,135.2c0,0,0.1,0,0.1,0c-0.1,0.7,0.1,1.3,0.1,2c0,0.1,0,0.5,0,0.6c-0.3,0-0.5-0.2-0.6-0.8
					C203.2,136.6,203.1,135.3,203.6,135.2L203.6,135.2z"/>
				<path class="st15" d="M210.6,136.2c0,0-0.1,0-0.1,0c-0.1,0.7-0.4,1.2-0.6,1.9c0,0.1-0.1,0.5-0.1,0.6c0.3,0.1,0.5-0.1,0.7-0.6
					C210.7,137.6,211.2,136.4,210.6,136.2L210.6,136.2z"/>
				
					<linearGradient id="SVGID_00000075131155913179554920000004296342399264223118_" gradientUnits="userSpaceOnUse" x1="-7537.6064" y1="799.1562" x2="-7537.5664" y2="806.1462" gradientTransform="matrix(-0.9909 -0.1347 0.1347 -0.9909 -7370.4854 -79.4412)">
					<stop  offset="3.000000e-02" style="stop-color:#2B221E"/>
					<stop  offset="0.94" style="stop-color:#AF886D;stop-opacity:0"/>
				</linearGradient>
				<path style="fill:url(#SVGID_00000075131155913179554920000004296342399264223118_);" d="M203.8,137.5c0,0.6,0,1.3,0.3,1.9
					c0.4,1.2,1,2,1.7,2.2c0,0,1,0.1,1.1,0.1c0.8-0.1,1.5-0.6,2.3-1.7c0.3-0.5,0.5-1,0.7-1.5c0-0.1,0.1-0.2,0.1-0.3l-0.1,0
					c0,0-1.1,1.8-1.4,1.7c0,0,0.3-1.1-0.7-0.8c0,0-0.5-0.7-0.7-0.6c0,0-0.4,0-0.4-0.1c-0.2-0.2-0.8,0.4-0.8,0.4
					c-1-0.4-0.9,0.6-0.9,0.6c-0.3,0-0.9-2-0.9-2L203.8,137.5L203.8,137.5z M205.2,139.2l1.1-0.2l0.4,0.2l0,0l0.4-0.1l1,0.5
					c0,0-0.9,0.7-1.4,0.7c0,0-0.1,0-0.1,0l0,0c0,0-0.1,0-0.1,0C205.9,140.1,205.2,139.2,205.2,139.2L205.2,139.2z"/>
			</g>
			<g>
				<g>
					<path class="st29" d="M247,203.3L247,203.3c-0.8,0-1.4-0.6-1.4-1.5v-5.4c0-0.8,0.6-1.5,1.4-1.5l0,0c0.8,0,1.4,0.6,1.4,1.5v5.4
						C248.4,202.7,247.8,203.3,247,203.3L247,203.3z"/>
					<path class="st30" d="M245.5,201.4v0.5c0,0.8,0.6,1.4,1.4,1.4v0c0.8,0,1.4-0.6,1.4-1.5v-0.5L245.5,201.4L245.5,201.4z"/>
					<path class="st31" d="M247,203.8c-0.8,0-1.5,0.7-1.5,1.5h2.9C248.5,204.5,247.8,203.8,247,203.8z"/>
					<path class="st32" d="M252.7,203.2L252.7,203.2c0.3-0.5,0.9-0.6,1.3-0.3l2.7,1.7c0.5,0.3,0.6,0.9,0.3,1.3v0
						c-0.3,0.5-0.9,0.6-1.3,0.3l-2.7-1.7C252.5,204.3,252.4,203.7,252.7,203.2z"/>
					<path class="st32" d="M252.4,205.4L252.4,205.4c-0.8-0.2-1.2-1.1-0.9-1.8l2.4-9.6c0.2-0.8,1.8-1,2.5-0.7l0-0.1
						c0.8,0.2,1.8,1.4,1.6,2.1l-3.8,9.1C253.9,205.2,253.1,205.6,252.4,205.4L252.4,205.4z"/>
					<g>
						<circle class="st14" cx="253.8" cy="170.3" r="2.1"/>
						<circle class="st14" cx="246.2" cy="170.4" r="2.1"/>
					</g>
					<g>
						<path class="st19" d="M246.2,173.6c1.7,0,3.2-1.2,3.5-3c0.1-0.7,0.2-1.4,0.2-2.2c0-4-1.7-7.2-3.7-7.2s-3.7,3.2-3.7,7.2
							c0,0.8,0.1,1.5,0.2,2.2C243,172.4,244.5,173.6,246.2,173.6L246.2,173.6z"/>
						<path class="st19" d="M253.8,173.6c1.7,0,3.2-1.2,3.5-3c0.1-0.7,0.2-1.4,0.2-2.2c0-4-1.7-7.2-3.7-7.2s-3.7,3.2-3.7,7.2
							c0,0.8,0.1,1.5,0.2,2.2C250.5,172.4,252,173.6,253.8,173.6L253.8,173.6L253.8,173.6z"/>
						<rect x="246.2" y="161.3" class="st19" width="7.7" height="12.3"/>
					</g>
					<path class="st33" d="M258.8,205.6c-0.6-0.2-1.9-0.9-1.9-0.9l0,0c0.1,0.2,0.4,0.4,0,0.5c-1.6,0.3-5.6-1.5-5.6-1.5l-0.3,2.7h2.1
						v-0.3l1.9,0.2c0.3,0,0.6,0.1,1,0.1h2.6c0.2,0,0.4-0.2,0.4-0.4C259,205.8,258.9,205.7,258.8,205.6L258.8,205.6z"/>
					<path class="st33" d="M248.8,204.3c-0.5,0.4-1.1,0.7-1.8,0.7s-1.3-0.2-1.8-0.7c-0.6,0.5-1,1.2-1,2.1h5.5
						C249.7,205.6,249.4,204.8,248.8,204.3L248.8,204.3z"/>
					<path class="st19" d="M251.3,170.3c0-2.1-3-3.8-5.1-3.7l0,0c-2.1,0-3.7,1.8-3.6,3.9l0.8,15.5c0.1,1.7,1.5,3.1,3.2,3
						s3.1-1.4,3.1-3.2L251.3,170.3L251.3,170.3z"/>
					<path class="st19" d="M249.7,186.2c-0.1-1.7-1.4-3-3.1-3s-3.1,1.4-3.1,3l0.4,10.7l5.4,0L249.7,186.2L249.7,186.2z"/>
					<path class="st19" d="M257.2,170.6c-0.6-2-2.7-3.1-4.6-2.5l0,0c-2,0.6-4.3,2.8-3.6,4.7l6.6,14.6c0.6,1.6,2.3,2.5,3.9,2
						c1.6-0.5,2.5-2.3,2-3.9L257.2,170.6L257.2,170.6z"/>
					<path class="st19" d="M261.3,187.8c0.5-1.6-0.4-3.3-2-3.9c-1.6-0.5-3.4,0.3-3.9,1.9l-3,10.3l5.1,1.6L261.3,187.8L261.3,187.8z"
						/>
					<path class="st29" d="M246.4,203.2h1.2c0.2,0,0.4,0.2,0.4,0.4v0c0,0.2-0.2,0.4-0.4,0.4h-1.2c-0.2,0-0.4-0.2-0.4-0.4v0
						C246,203.4,246.2,203.2,246.4,203.2z"/>
				</g>
				<g>
					<path class="st32" d="M251.6,151.2c-0.6,1-0.2,2.2,0.8,2.8l8.7,4.8l0,0c0.8,0.5,1.9,0.2,2.3-0.6s0.2-1.8-0.6-2.3l0,0l-8.4-5.3
						C253.4,149.9,252.2,150.3,251.6,151.2L251.6,151.2L251.6,151.2z"/>
					<path class="st34" d="M259,153.3l-4.4-3.5c0,0,0.2,0.4-0.5,1.5c-0.7,1.2-2.2,2-1,2.6l3.3,2.3L259,153.3L259,153.3z"/>
					<path class="st32" d="M269.7,153.7l-8.1,1.9l0,0c-0.9,0.3-1.4,1.2-1.1,2.1c0.3,0.9,1.2,1.4,2.1,1.2l0,0l7.7-3.4l0.6-1.2
						C270.7,153.9,270.2,153.6,269.7,153.7L269.7,153.7z"/>
					<path class="st35" d="M256.7,153.8l-0.8-1.5c-0.6-1.2-1.7-1.6-2.9-1c-1.2,0.6-1.6,1.7-0.9,2.9l0.9,1.6L256.7,153.8L256.7,153.8
						z"/>
				</g>
				<path class="st25" d="M249,143.8c0.4,0,0.8,0.1,1.1,0.3c0.1,0.6,0.6,1.2,1,1.3c0,0.2,0.1,0.3,0.1,0.5c0,1.2-1,2.2-2.2,2.2
					s-2.1-0.9-2.2-2.1C246.9,144.8,247.9,143.8,249,143.8L249,143.8z"/>
				<path class="st32" d="M253.4,150.8l-3.9-0.7l1.1-6.7c0.2-1,1.2-1.6,2.2-1.5l0,0c1.1,0.2,1.8,1.1,1.7,2.1L253.4,150.8
					L253.4,150.8z"/>
				<path class="st32" d="M251.7,147.3l-4.6,1.9c-2.1,1-2.3,3.8-0.8,5.5l4.1,4.6l4.6-3.2c1.8-1.2,2.1-3.9,0.5-5.4L251.7,147.3
					L251.7,147.3z"/>
				<g>
					<path class="st25" d="M257.5,146.1c-0.3-0.5-0.7-1.1-0.3-3.4c0.2-1.3-0.3-2.2-1.1-2.9l0,0c0,0,0,0,0,0c-0.1-0.1-0.9-0.6-1-0.6
						l-0.5,1.4c1.1,0.1,1.6,1.1,1.8,1.5c0,0.1,0,0.3,0,0.5c-0.3,1.5,0.3,3,0.7,3.7s-0.1,0.7-0.1,0.7
						C257.5,147.2,257.8,146.6,257.5,146.1L257.5,146.1z"/>
					<g>
						<path class="st32" d="M249.4,142.5c0.5-2.3,2.1-3.5,4.1-3c0.8,0.2,1.3,0.5,2,1.2c0,0,1.6,1.4,0.7,3.8c-0.1,0.3,0.2,0.4,0,1
							c-0.1,0.6-0.8,1.3-1,1.9c0,0,0,0.1,0,0.1l0,0l0,0c-0.6,1.7-1.1,1.3-1.9,1.1c-0.2-0.1-1.4-0.6-2.3-1.2
							C250.5,146.9,249.3,143,249.4,142.5L249.4,142.5z"/>
						<path class="st32" d="M249.5,142.4c0.9-0.5,1.2,0.7,1.2,0.7l0.1,2.1C249.6,145.8,248.5,143,249.5,142.4z"/>
						<g>
							<path class="st25" d="M250.7,145.7C250.7,145.7,250.7,145.7,250.7,145.7C250.7,145.7,250.7,145.7,250.7,145.7L250.7,145.7
								L250.7,145.7z"/>
							<path class="st25" d="M252.9,138.3L252.9,138.3L252.9,138.3c-0.8,0-1.6,0.1-2.5,0.6c-1.3,0.6-2.3,2.7-2.2,5l1.3,0.8
								c-0.4-0.6-0.5-1.7,0-2c0.8-0.5,1.1,0.4,1.1,0.4v0c-0.5,1.1-0.3,1.8,0.1,2.6c-0.1-1,0-1.8,1.5-2.6c0.8-0.3,1.9-1.8,2.3-2.4
								l0,0c0.6,0.1,1.1,0.3,1.5,0.8l0.2,0.2l-0.2-0.8c-0.2-0.9-0.7-1.6-1.5-2C253.9,138.5,253.4,138.4,252.9,138.3L252.9,138.3z"/>
						</g>
					</g>
				</g>
				<g>
					<circle class="st14" cx="246.2" cy="152" r="1.2"/>
					<circle class="st14" cx="255.1" cy="153.4" r="1.2"/>
				</g>
				<path class="st34" d="M257.4,154.9c0-2.6-3-5.5-3-5.2c0,1-0.9,2.1-2.3,1.9c-1.8-0.3-3.2-1.5-3.8-3c-1.2,0.2-2.7,1.3-3.3,2.1
					c-1.9,2.7,1.4,9,0.3,10.4l10.9,1.8C255.2,160.8,257.3,158.9,257.4,154.9L257.4,154.9z"/>
				<path class="st36" d="M245.9,161.2l1.2-5.5c0,0-1.7-0.5-2.4-0.7c0.4,2.6,1.1,5.3,0.5,6.1L245.9,161.2L245.9,161.2z"/>
				<g>
					<path class="st32" d="M246.9,150.8c-1.1-0.2-2.2,0.6-2.4,1.7l-1.4,9.8l0,0c-0.1,0.9,0.5,1.8,1.4,2s1.8-0.5,2-1.4l0,0l2-9.7
						C248.7,152,248,150.9,246.9,150.8L246.9,150.8L246.9,150.8z"/>
					<path class="st32" d="M251.4,171.9c0.4-0.3,0.5-0.8,0.3-1.3l-5.3-9l0,0c-0.6-0.8-1.6-0.9-2.4-0.4c-0.8,0.5-1,1.6-0.4,2.4l0,0
						l6.6,8.1C250.4,172.1,251,172.2,251.4,171.9L251.4,171.9L251.4,171.9z"/>
					<path class="st32" d="M250.3,168.4c0,0,1.3,1.1,2.3,2.1s1.8,1.7,1.8,1.7s-0.3,0.9-1.7-0.4c0,0,0.1,0.7,0.7,1
						c0,0,0.5,0.4,0.9,0.4c0,0,0.2,0.3,0,0.4s-1.1,0.1-1.1,0.1l-0.4,0.3l-0.3-0.1l-0.3,0.2l-0.4-0.2l-0.3-0.1
						c-0.6-0.2-1.1-0.6-1.4-1.2l-1.1-2.6L250.3,168.4L250.3,168.4z"/>
					<path class="st34" d="M249,156.1l0.2-3.2c0.2-1.4-0.8-2.6-2.2-2.7c-1.4-0.1-2.6,0.9-2.6,2.2l-0.1,1.8L249,156.1L249,156.1z"/>
				</g>
			</g>
		</g>
		<g>
			<g>
				<g>
					<path class="st37" d="M21.4,242.1L21.4,242.1c0-0.8,0.6-1.4,1.4-1.4h0.4c0.7,0,1.3,0.5,1.4,1.2l0.3,2.1c0.6,0.4,0.8,1,0.8,1.6
						h-0.1h-4.5L21.4,242.1L21.4,242.1z"/>
					<path class="st37" d="M22.9,235.2L22.9,235.2c0.8,0,1.5,0.7,1.5,1.5v6c0,0.8-0.7,1.5-1.5,1.5h0c-0.8,0-1.5-0.7-1.5-1.5v-6
						C21.5,235.8,22.1,235.2,22.9,235.2z"/>
					<rect x="20.6" y="245.3" class="st4" width="5.4" height="0.8"/>
				</g>
				<path class="st4" d="M21.6,245.8l0.2-2c0.3-0.5,0.8-0.8,1.4-0.8c0.6,0,1.2,0.2,1.2,1.4c0,0.2,0.2,0.5,0.5,0.5
					c0.3,0,0.5-0.2,0.5-0.5c0-1.5-0.7-2.3-2.1-2.4c-1,0-1.8,0.4-2.3,1.3l0,0.1l-0.2,2.4l0,0C21,245.8,21.3,245.8,21.6,245.8
					L21.6,245.8z"/>
				<path class="st4" d="M21.7,245.8c0-0.7,0.7-1.2,1.7-1.2s1.6,0.4,1.6,1.2c0,0,0,0,0,0c0.2,0,0.5,0,0.8,0c0,0,0.1,0,0.2,0
					c0-1.4-0.9-2.2-2.5-2.2c-1.9,0-2.6,1.1-2.7,2.1C21.1,245.8,21.4,245.8,21.7,245.8L21.7,245.8z"/>
				<path class="st37" d="M30.5,237L30.5,237c0.8,0,1.5,0.7,1.5,1.5v4.8c0,0.8-0.7,1.5-1.5,1.5h0c-0.8,0-1.5-0.7-1.5-1.5v-4.8
					C29,237.7,29.7,237,30.5,237z"/>
				<g>
					<path class="st14" d="M32.5,208.9c0,1.2-0.9,2.1-2.1,2.1c-1.2,0-2.1-0.9-2.1-2.1s0.9-2.1,2.1-2.1S32.5,207.7,32.5,208.9z"/>
					<circle class="st14" cx="22.6" cy="208.9" r="2.1"/>
				</g>
				<g>
					<path class="st9" d="M22.6,212.3c1.8,0,3.3-1.4,3.6-3.3c0.1-0.8,0.2-1.6,0.2-2.4c0-4.4-1.7-7.9-3.8-7.9s-3.8,3.5-3.8,7.9
						c0,0.8,0.1,1.6,0.2,2.4C19.3,210.9,20.8,212.3,22.6,212.3L22.6,212.3z"/>
					<path class="st9" d="M30.3,212.3c1.8,0,3.6-1.4,3.6-3.3c0-5.3-1.8-8.8-3.6-10.3c-1.6-1.3-3.8,3.5-3.8,7.9
						c0,0.8,0.1,1.6,0.2,2.4C27,210.9,28.5,212.3,30.3,212.3L30.3,212.3L30.3,212.3z"/>
					<rect x="22.6" y="198.7" class="st9" width="7.8" height="13.5"/>
				</g>
				<path class="st9" d="M26.8,208.9c0-2.1-2-3.9-4.2-3.8l0,0c-2.1,0-3.8,1.8-3.7,3.9l0.8,15.8c0.1,1.8,1.5,3.1,3.3,3.1
					s3.1-1.5,3.1-3.2L26.8,208.9L26.8,208.9z"/>
				<path class="st9" d="M26.2,225.1c-0.1-1.7-1.5-3.1-3.2-3.1s-3.1,1.4-3.2,3.1l0.1,15.2l6.2,0L26.2,225.1L26.2,225.1z"/>
				<path class="st9" d="M33.9,208.9c0-2.1-1.7-3.9-3.8-3.8l0,0c-2.1,0-4.1,1.8-4,3.9l1.2,15.8c0.1,1.8,1.5,3.1,3.3,3.1
					s3.2-1.5,3.1-3.2L33.9,208.9L33.9,208.9z"/>
				<path class="st9" d="M33.6,225.1c-0.1-1.7-1.5-3.1-3.2-3.1s-3.1,1.4-3.2,3.1l0.1,15.2l6.2,0L33.6,225.1L33.6,225.1z"/>
				<g>
					<path class="st37" d="M28.9,242.1L28.9,242.1c0-0.8,0.6-1.4,1.4-1.4h0.4c0.7,0,1.3,0.5,1.4,1.2l0.7,1.6c0.7,0.9,3,0.3,3,2.1H33
						h-4.5L28.9,242.1L28.9,242.1z"/>
					<rect x="28" y="245.3" class="st4" width="7.8" height="0.8"/>
				</g>
				<path class="st4" d="M32.3,242.6c-1.1,0-2.5,0.6-3,1.3l0,0.1l-0.2,1.5c0,0.2,0.1,0.5,0.4,0.5c0,0,0,0,0,0c0.2,0,0.4-0.2,0.5-0.4
					l0.1-0.8c0-0.4,0.3-0.8,0.6-1c0.6-0.4,1.4-0.6,1.9-0.5C32.7,243.3,32.3,242.6,32.3,242.6L32.3,242.6z"/>
				<path class="st4" d="M34.3,244.2c0.1-0.2-0.4-0.4-0.6-0.4c-0.3-0.1-0.7-0.3-1-0.2c-0.1,0.1-0.3,0.1-0.4,0.2
					c-0.6,0.4-0.9,1-0.9,1.5c0,0.2,0.1,0.3,0.2,0.4h0.5c0.1-0.1,0.2-0.2,0.2-0.4c0-0.2,0.2-0.5,0.5-0.8
					C33.6,244,34.2,244.3,34.3,244.2L34.3,244.2z"/>
				<rect x="19.7" y="237.5" class="st1" width="6.4" height="2.8"/>
				<rect x="27.2" y="237.5" class="st1" width="6.4" height="2.8"/>
				
					<rect x="19.2" y="203.9" transform="matrix(0.5385 -0.8426 0.8426 0.5385 -162.2267 113.1453)" class="st38" width="5.9" height="1.5"/>
				<path class="st38" d="M33.7,205.9c-1.1-1-1.9-2.2-2.3-3.7l-0.1-0.4l-1.1,0.3l0.1,0.4c0.5,2,1.8,3.8,3.5,4.9L33.7,205.9
					L33.7,205.9z"/>
			</g>
			<g>
				<g>
					<path class="st37" d="M26.3,184.1l-3.6,3c-1.7,1.5-1.3,4.1,0.6,5.3l5.1,3.2l3.4-4.2c1.3-1.6,0.7-3.6-1.2-4.6L26.3,184.1
						L26.3,184.1z"/>
					<path class="st39" d="M32.8,190c0-3.7-4.4-5.2-4.6-5c-0.8,1.1-3.2,1.6-4.3,0.3c-1.1,0.6-3.7,1.9-4,2.9c-0.9,2.5-0.4,9.5,0.5,12
						l11.5,0.5C31.6,199,32.8,193.1,32.8,190L32.8,190z"/>
					<path class="st39" d="M20.7,187.2c-3.6,2-1.6,9.2-1.6,9.2l5.1-0.4l-0.6-6.1C23.8,188.4,21.9,186.5,20.7,187.2L20.7,187.2z"/>
					<path class="st39" d="M35.4,193.1c0,0-2.8-6.3-3.9-5.9l-0.3,0.1c-1.2,0.4-1.1,2.5-0.7,3.6l1.3,4.2
						C32.6,194.7,35.1,193.3,35.4,193.1L35.4,193.1z"/>
					
						<linearGradient id="SVGID_00000109007348507241406700000011068629814565067167_" gradientUnits="userSpaceOnUse" x1="-6.3806" y1="-261.0717" x2="-5.2706" y2="-236.3617" gradientTransform="matrix(0.9925 -0.1222 -0.1222 -0.9925 4.4724 -67.3933)">
						<stop  offset="0" style="stop-color:#F2A93C"/>
						<stop  offset="1" style="stop-color:#EF8834"/>
					</linearGradient>
					<path style="fill:url(#SVGID_00000109007348507241406700000011068629814565067167_);" d="M32.6,186.3c0.3-0.9-0.6-2.1-1-2.6
						c0-0.7,0.3-2-0.3-2.9c-0.9-1.4-1.2-3.8-3.1-4.4c-0.6-0.3-2.3-0.6-3.5,0.2l2.1,0.6c0.2,0,0.7,2.3,2.8,3c0,0.5,0.3,1.7,0.1,2.6
						c-0.2,1.1-1.4,2.1-1,3.1c-0.8,1,0.1,1.8,1.2,2.5c1.4,0.9,3.6,1.4,3.8,0.2C34,187.9,33,187.1,32.6,186.3z"/>
					<path class="st37" d="M28.6,187.1L28.6,187.1c-0.7,0.9-2,1-2.8,0.3l-1.5-1.4l1.6-5.9c0.3-0.9,1.2-1.5,2.2-1.2l0,0
						c0.9,0.3,1.5,1.2,1.2,2.2L28.6,187.1L28.6,187.1z"/>
					<g>
						<path class="st37" d="M28.8,177.9c-0.1-0.1-0.7-0.8-1.8-0.5c-1,0-5,2.7-1.5,6.6c0.4,0.5,3.3,1.6,4.2,0.6
							c0.2-0.2,0.1-0.8,0.3-1.1c0.4-0.8,0.4-1.6-0.1-2.7c-0.1-0.1,0.1-0.4,0.1-0.5C29.7,179.3,29.3,178.4,28.8,177.9L28.8,177.9z"/>
						<g>
							<g>
								<path class="st41" d="M28.6,180.9l-0.4-0.3c0.2-0.4,0.7-0.3,0.9-0.2l-0.2,0.5C28.8,180.8,28.6,180.8,28.6,180.9L28.6,180.9z
									"/>
								<path class="st41" d="M27.3,182.3c-0.7,0-1.2-0.5-1.3-1.1c-0.1-0.6,0.3-1.1,0.9-1.1l0.6-0.1c0.5-0.1,1,0.3,1.1,0.9v0
									c0.1,0.7-0.4,1.4-1.1,1.5C27.4,182.3,27.4,182.3,27.3,182.3L27.3,182.3z M27.6,180.4C27.6,180.4,27.6,180.4,27.6,180.4
									l-0.7,0.1c-0.3,0-0.5,0.3-0.5,0.6c0.1,0.5,0.5,0.8,0.9,0.8c0.5-0.1,0.8-0.5,0.7-0.9l0.2-0.1l-0.2,0
									C28.1,180.6,27.9,180.4,27.6,180.4L27.6,180.4z"/>
							</g>
							<path class="st41" d="M29.8,182c-0.5,0-1-0.5-1.1-1.2v0c-0.1-0.5,0.2-1,0.7-1.1l0.5-0.1c0.4-0.1,0.9,0.3,0.9,0.9
								c0.1,0.8-0.3,1.4-0.9,1.5C29.9,182,29.8,182,29.8,182L29.8,182z M29.2,180.7L29.2,180.7c0.1,0.5,0.4,0.8,0.7,0.8
								c0.3,0,0.5-0.5,0.5-0.9c0-0.3-0.2-0.5-0.4-0.5l-0.5,0.1C29.3,180.2,29.2,180.4,29.2,180.7L29.2,180.7z"/>
							
								<rect x="23.8" y="180.8" transform="matrix(0.9987 -5.041863e-02 5.041863e-02 0.9987 -9.0955 1.4931)" class="st41" width="2.5" height="0.5"/>
						</g>
						<path class="st42" d="M28.7,177c0.1-0.1,0.4-0.2,0.5-0.3c-1.5-1.2-4-1.1-5.5,0.2c-0.4,0.3-0.7,0.8-0.9,1.3
							c-0.5,1.2-0.5,2.6,0.2,3.8c0.6,1.1,0.6-0.2,0.5-1.1c0-2.4,1.9-3.4,1.9-3.4l1.4,0C26.8,177.5,28.3,177.4,28.7,177L28.7,177z"/>
						
							<linearGradient id="SVGID_00000025440989009095095960000018379425246650957956_" gradientUnits="userSpaceOnUse" x1="-10.8531" y1="-262.9125" x2="-9.6031" y2="-235.3225" gradientTransform="matrix(0.9925 -0.1222 -0.1222 -0.9925 4.4724 -67.3933)">
							<stop  offset="0" style="stop-color:#F2A93C"/>
							<stop  offset="1" style="stop-color:#EF8834"/>
						</linearGradient>
						<path style="fill:url(#SVGID_00000025440989009095095960000018379425246650957956_);" d="M27.9,176.2
							c-6.2-0.7-6.1,3.6-5.6,5.7c0.2,0.9-1.7,3.2-0.4,4.9c-0.2,0.9-0.9,2.2,0,3.7c1.4,2,3.3,1.3,4.4,0c0.9-1-0.1-3.5-1.1-4.3
							c0.1-1.1,0.5-1.8,0-2.9c-0.2-0.5-0.4-1-0.5-1.3c-0.2-0.5,0-1.1,0.4-1.4c0.6-0.5,1.3-1.2,1.4-2.1c0.1-0.5,1.1-1.1,1.3-1.2
							C27.9,177.4,28.8,176.3,27.9,176.2L27.9,176.2z"/>
					</g>
				</g>
				<g>
					<path class="st37" d="M36.8,198.7l-1.9-5.3c-0.2,0.1-0.3,0.2-0.5,0.3c-0.8,0.5-1.8,0.5-2.6,1l1.6,5l0,0
						c0.3,0.9,1.3,1.5,2.3,1.2C36.5,200.7,37.1,199.7,36.8,198.7L36.8,198.7L36.8,198.7z"/>
					<path class="st37" d="M25.6,198.9l-2.4-3.9c-0.2,0.1-2.8,0.3-3.6,0.9l2,4.9l0,0c0.4,0.9,1.4,1.4,2.4,1s1.4-1.4,1-2.3
						L25.6,198.9L25.6,198.9z"/>
					<polygon class="st14" points="33.9,204.6 25.5,206.8 23.8,193.4 32.3,191.2 					"/>
				</g>
				<path class="st37" d="M27.9,201.9l-2.5-0.8l-2.6,1.5c0,0,0.4,0.4,1.1,0.3c0,0-0.2,0.7,0.4,1c0,0-0.3,0.3,0.2,0.6
					c0,0-0.3,0.5,0.2,0.6l1.2,0.3l2.4-1.6C28.4,203.8,29.9,203.1,27.9,201.9L27.9,201.9z"/>
				<path class="st37" d="M27.7,204l8.2-3.1l0,0c0.8-0.4,1-1.5,0.5-2.5s-3-0.2-3-0.2l-6.8,3.9c-0.4,0.3-0.5,0.9-0.2,1.3
					C26.4,203.4,27.2,204.2,27.7,204z"/>
				<path class="st37" d="M31.7,197.3l-6.9,0.9l-3.2,1.6c0.2,0.6-0.3,0,1,2c0.6,0.9,9.4-2.3,9.4-2.3c0.5-0.1,0.8-0.6,0.7-1.2
					C32.7,198.2,32.2,197.3,31.7,197.3L31.7,197.3z"/>
				<path class="st37" d="M30.6,197.8c0,0-0.4-0.5,0-0.9s1.2-1.8,1.2-1.8s0.5-0.6,0.7-0.1s-0.1,1.5-0.1,1.5s1,0,1.1,0.4
					s-0.1,0.8-0.1,0.8s0.3,0.4,0.2,0.8s0.1,0.5-0.2,0.9s-2.7,0.5-2.7,0.5S28.6,199.4,30.6,197.8L30.6,197.8z"/>
			</g>
		</g>
		<g>
			<g>
				<g>
					<circle class="st44" cx="338.5" cy="205.1" r="2.4"/>
					<circle class="st44" cx="346.2" cy="205.1" r="2.4"/>
				</g>
				<line class="st45" x1="340.8" y1="245.6" x2="332.9" y2="245.6"/>
				<g>
					<path class="st4" d="M347.9,198l1.5,6.3c0.1,0.4,0.1,0.9,0,1.3c-0.4,1.6-1.8,3.6-3.5,3.6l-5.5,0v-11.1L347.9,198L347.9,198z"/>
					<path class="st4" d="M335.9,198.2l-1.4,6.1c-0.1,0.4-0.1,0.9,0,1.3c0.4,1.6,1.8,3.6,3.5,3.6l5.5,0v-11.1L335.9,198.2z"/>
					<path class="st46" d="M345.4,244.7L345.4,244.7c-0.9,0-1.7-0.8-1.7-1.7v-5.5c0-0.9,0.8-1.7,1.7-1.7h0c0.9,0,1.7,0.8,1.7,1.7
						v5.5C347.1,243.9,346.4,244.7,345.4,244.7z"/>
					<path class="st19" d="M341.2,244.5l0.4-0.1l1.3-2.1c0,0,1.6-1.6,3.6,0.5h0.5c0.3,0,0.5,0.2,0.5,0.5v2.3h-7.3v-0.2
						C340.3,245,340.7,244.6,341.2,244.5L341.2,244.5z"/>
					<path class="st4" d="M345.5,201.4c2.3,0,4.1,2,4,4.3l-1.1,16.3c0,1.6-1.3,2.8-2.9,2.8s-2.8-1.3-2.9-2.9l-2.7-16.2
						C339.7,203.4,343.1,201.4,345.5,201.4L345.5,201.4L345.5,201.4z"/>
					<path class="st4" d="M342.6,221.6c0.1-1.5,1.5-2.7,3-2.7s2.8,1.4,2.8,2.9l0.2,20.3l-5.9-0.1L342.6,221.6L342.6,221.6z"/>
					<path class="st46" d="M332.7,244.6L332.7,244.6c-0.9-0.1-1.6-0.9-1.5-1.9l0.6-5.5c0.1-0.9,0.9-1.6,1.9-1.5l0,0
						c0.9,0.1,1.6,0.9,1.5,1.9l-0.6,5.5C334.5,244,333.6,244.7,332.7,244.6z"/>
					<path class="st19" d="M326.1,244.3l1.4-0.1l2.6-1.5c0,0,0.9-2.2,2.1,0.3h2.2c0.3,0,0.5,0.2,0.5,0.5v2.3h-10.3l0,0
						C324.7,245,325.3,244.4,326.1,244.3z"/>
					<path class="st4" d="M331.9,221.6c0.2-1.5,1.6-2.7,3.1-2.5s2.7,1.5,2.6,3l-1.9,21.2l-5.7-1.5L331.9,221.6L331.9,221.6z"/>
					<path class="st4" d="M339.4,201.7c2.3,0.5,5.1,2.9,4.5,5.1l-6.2,15.6c-0.4,1.5-1.9,2.5-3.5,2.1s-2.5-1.9-2.1-3.4l2.5-16
						C334.8,202.7,337.1,201.2,339.4,201.7L339.4,201.7L339.4,201.7z"/>
				</g>
			</g>
			<g>
				<g>
					<path class="st34" d="M334.9,201.4L334.9,201.4c4.1,2.3,9.1,2.4,13.4,0.5l0.5-0.2l-0.4-2.1c-0.7-3.6-0.7-7.3,0.1-10.9l0.4-2
						H336l0.1,0.8c0.5,3.6,0.2,9.4-0.9,12.9L334.9,201.4L334.9,201.4z"/>
					<path class="st34" d="M335.7,183.4c0.1-0.1,0.2-0.2,0.4-0.2l5.1-2.1c0,0,0,0,0,0l2.1,0.5l2.2-0.2c0,0,0,0,0,0l4,2.8
						c0.1,0.1,0.2,0.2,0.3,0.3c0.8,0.9,1.7,2.8,1.4,3c-1.5,1-5.6,2.5-7.9,2.5c-0.1,0-0.3,0-0.4,0c0,0-0.5,0-0.6-0.1
						c-2.3-0.3-6.2-2.2-7.6-3.4C334.4,186.3,334.7,184.2,335.7,183.4L335.7,183.4z"/>
					<g>
						<path class="st47" d="M344,183.4l-0.7,0.6c-0.8-0.5-2.3-1.3-2.4-2.6l-0.6-4.9c-0.1-1.1,0.8-2.1,2.1-2.2l0,0
							c1.3-0.2,2.5,0.6,2.6,1.6l0.6,5.4C345.7,182.4,345,183.3,344,183.4L344,183.4z"/>
						<path class="st48" d="M345.5,182.1c-0.1-0.3,0-1,0-1.3c2.6,1.3,2.2,3.5,2.2,3.5l-2.2-1.4c-0.2,0.1-2.3,1.3-2.4,1.3
							C343.1,184.2,343.4,182.8,345.5,182.1L345.5,182.1z"/>
						<g>
							<path class="st47" d="M347.1,174.9c0-2.3-1.8-3.8-4.1-3.8c-1.5,0-2.8,0.7-3.5,1.8l-0.3,0.2c0,0-0.9,1.1-0.3,2.1
								c0,0.1,0,0.1,0,0.2c-0.1,0.3-0.5,1-0.6,1.2c-0.2,0.2-0.5,0.6,0,0.9c0,0,0.3,0.1,0.4,0.1c0,0,0,0.8,0.1,0.9c0,0-0.2,0.2,0,0.4
								c0,0,0,0.3,0,0.7c0,0.3,1.2,1.1,2,0.9l3.2-1.5l0,0C345.7,178.4,347.1,176.8,347.1,174.9L347.1,174.9z"/>
							<path class="st49" d="M340.9,171.5C340.9,171.5,340.9,171.5,340.9,171.5c1-0.5,2.2-0.6,3.3-0.5c1.7,0.2,2.9,1.7,3.2,3.5
								c0.1,0.1,0.3,0.2,0.4,0.5c0.1,0.2,0.1,0.5,0.1,0.6c0,0.5-0.3,0.7-0.4,1.1c-0.2,0.8,0.6,1.2,0.5,1.9c-0.1,0.3-0.4,0.8-1.3,1.2
								c0,0,0,0,0,0.1c0.2,0.6,0.6,1-0.2,1.8c-0.5,0.5-1.5,0.6-2.5,0.3c-0.6-0.2-0.9-2-0.1-4.2l0,0c0.5-0.9-0.1-1.6-0.6-2l0,0
								c-2.3-0.2-3.7-2.4-3.7-2.4c-1.1,0.2-0.6,2.1-0.7,2C337.2,173.1,339.4,171.3,340.9,171.5L340.9,171.5z"/>
						</g>
						<circle class="st50" cx="343.2" cy="177.3" r="0.3"/>
					</g>
					<path class="st34" d="M338.1,183.2c-1.2-0.4-3.1,1.1-3.5,2.2l-1.8,9.3c-0.3,0.9,0.4,2.1,1.5,2.4c1,0.4,2.2-1.2,2.2-1.2l3.1-10
						C340,184.9,339.3,183.6,338.1,183.2L338.1,183.2z"/>
					<path class="st48" d="M341.5,182.5c-0.6-0.4-0.7-0.9-0.8-1.9c0,0,0,0,0,0c-2.7,1-2,3.2-2,3.2l2.3-1.2c0.2,0.1,2.1,1.6,2.2,1.6
						C343.1,184.2,342.7,183.4,341.5,182.5L341.5,182.5z"/>
				</g>
				<path class="st34" d="M348.1,184.5c1.3-0.3,3,1.5,3.2,2.6l0.9,9.4c0.2,0.9-0.6,2-1.7,2.3s-2.1-1.5-2.1-1.5l-2.1-10.2
					C346,186,346.8,184.8,348.1,184.5L348.1,184.5z"/>
				<polygon class="st14" points="342.8,196.8 340,196.8 339.3,191.8 343.5,191.8 				"/>
				<path class="st34" d="M351.3,195.7c0.8,0.4,1,1.5,0.6,2.5s-1.5,1.5-2.3,1.1l0,0l-4.3-1.5c-0.8-0.4-1.1-1.5-0.6-2.5
					c0.5-1,1.5-1.5,2.3-1.1L351.3,195.7L351.3,195.7L351.3,195.7z"/>
				<path class="st47" d="M345.6,194.5l-2.4-1.1l-0.1,0.4h-1.9c-0.1,0-0.2,0.1-0.2,0.2l0,0c0,0.1,0.1,0.2,0.2,0.3l1.7,0.4l-1,0
					c0,0-0.1,0-0.1,0l-1.1-0.2c-0.2,0-0.4,0.1-0.4,0.3l0,0c0,0.1,0.1,0.3,0.2,0.4l1,0.4c0.1,0,0.2,0.1,0.3,0.1l0.9,0.1l-0.5,0.2
					c0,0-0.1,0-0.2,0l-1.3,0c-0.1,0-0.3,0.1-0.3,0.3l0,0c0,0.1,0.1,0.3,0.2,0.3l1.5,0.4v0.1c0,0.1,0.1,0.2,0.2,0.3l0,0
					c0.2,0.1,0.4,0.1,0.6,0l2-0.6C344.9,196.7,346.9,195.9,345.6,194.5L345.6,194.5z"/>
				<path class="st47" d="M343.2,195.2c-0.1,0.6,0.2,1.1,0.8,1.3l1.3,0.3c0.5,0.1,1-0.2,1.1-0.7l0.1-0.4c0.1-0.5-0.2-1-0.7-1.1
					l-1.2-0.3C343.9,194.2,343.3,194.6,343.2,195.2L343.2,195.2L343.2,195.2z"/>
				<path class="st34" d="M332.5,197.2c0.5,1,1.5,1.5,2.3,1.1l0,0l4.2-1c0.8-0.4,1.1-1.5,0.6-2.5s-1.5-1.5-2.3-1.1l-4.5,1
					C332.8,194.7,332.1,196.2,332.5,197.2L332.5,197.2z"/>
				<path class="st47" d="M337.6,195.4l2.1-1l0.1,0.4l2.2-0.1c0.1,0,0.2,0.1,0.2,0.2l0,0c0,0.1-0.1,0.2-0.2,0.3l-1.7,0.4l1,0
					c0,0,0.1,0,0.1,0l1.1-0.2c0.2,0,0.4,0.1,0.4,0.3l0,0c0,0.1-0.1,0.3-0.2,0.4l-1,0.4c-0.1,0-0.2,0.1-0.3,0.1l-0.9,0.1l0.5,0.2
					c0,0,0.1,0,0.2,0l1.3,0c0.1,0,0.3,0.1,0.3,0.3l0,0c0,0.1-0.1,0.3-0.2,0.3l-1.5,0.4v0.1c0,0.1-0.1,0.2-0.2,0.3l0,0
					c-0.2,0.1-0.4,0.1-0.6,0l-2-0.6C338.3,197.5,336.3,196.7,337.6,195.4L337.6,195.4z"/>
				<path class="st47" d="M340.1,195.9c0.1,0.6-0.2,1.1-0.8,1.3l-1.3,0.3c-0.5,0.1-1-0.2-1.1-0.7l-0.1-0.4c-0.1-0.5,0.2-1,0.7-1.1
					l1.2-0.3C339.4,194.9,340,195.3,340.1,195.9L340.1,195.9L340.1,195.9z"/>
			</g>
		</g>
		<g>
			<path class="st51" d="M124,178.6L124,178.6c-0.8-1.1-2.3-1.4-3.4-0.6s-1.4,2.3-0.7,3.4l0,0c0,0,6.1,6.7,6.1,6.7
				c0.9,1.1,2.6,0.5,1.9-0.8C127.9,187.1,124,178.6,124,178.6L124,178.6z"/>
			<path class="st4" d="M115.7,168.2c-1.6,0.8-2.3,2.8-1.5,4.4l4.2,8.1l0,0c0.7,1.5,3.7-2.4,5.6-2.2l-0.2-0.4l-3.8-8.4
				C119.3,168.1,117.3,167.4,115.7,168.2L115.7,168.2L115.7,168.2z"/>
			<path class="st51" d="M129.1,192.1c-0.4,0.3-0.6-0.1-0.6-0.1l0.1-0.6c-0.3,0-0.4-0.3-0.4-0.3l-0.1-1.1c-0.2-0.4-1.2-0.6-1.2-0.6
				c0.4,1.7-0.1,1.7-0.1,1.7c-0.4-0.1-0.6-1.5-0.6-1.5c-0.6-1.3-0.1-2.1-0.1-2.1l0.1-0.3c0.2-0.6,1.1-0.9,1.6-0.4l0,0l1.9,4l0.1,1.1
				c0,0.2-0.2,0.5-0.2,0.5C129.3,192.6,129.1,192.1,129.1,192.1L129.1,192.1z"/>
			<path class="st52" d="M110.1,216.1L110.1,216.1c0.8,0,1.5,0.7,1.5,1.5v5.9c0,0.8-0.7,1.5-1.5,1.5h0c-0.8,0-1.5-0.7-1.5-1.5v-5.9
				C108.6,216.7,109.3,216.1,110.1,216.1z"/>
			<g>
				<circle class="st14" cx="108.3" cy="170.9" r="1.2"/>
				<circle class="st14" cx="116.7" cy="170.9" r="1.2"/>
			</g>
			<path class="st22" d="M112.1,224.1l-0.5-1.2c-1.3,1.8-3.1,0-3.1,0l-0.4,1.9v1.4h4.2h0.5C112.8,225.6,112.6,224.4,112.1,224.1
				L112.1,224.1z"/>
			<g>
				<path class="st52" d="M118.6,214.8L118.6,214.8c0.8,0.2,1.3,1,1.1,1.8l-1.2,4.6c-0.2,0.8-1,1.2-1.8,1l0,0c-0.8-0.2-1.2-1-1-1.8
					l1.2-4.6C117,215.1,117.8,214.6,118.6,214.8z"/>
				<path class="st52" d="M120.2,225L120.2,225c-0.5,0.2-1,0-1.3-0.5l-1.9-3.9c-0.2-0.5,0-1,0.4-1.3c0,0,1,0,1.3,0.5l1.9,3.9
					C120.9,224.2,120.7,224.7,120.2,225z"/>
				<path class="st22" d="M122.1,225.5l-1.4-1.8c0,0-1.9,0.2-2.4-0.9c-0.5-1.1-1.2-2.1-2.8-2.5l-1.1,4.1l1.2,0.3l1-1.9l1.1,2.5
					l3.8,1C122,226.2,122.3,225.8,122.1,225.5L122.1,225.5z"/>
			</g>
			<g>
				<path class="st53" d="M118.5,166.8c0.3-0.8-0.3-2-0.6-2.4c0.1-0.6,0.1-2.5-0.1-3.4c-0.1-0.6,0.3-1.7-1.3-2.4
					c-0.5-0.4-2.8-1.9-4-1.4l1.8,0.8c0.2,0,0.4,2.1,2.2,3c0,0.5,0.1,1.5-0.2,2.4c-0.3,1-1.5,1.7-1.2,2.7c-0.9,0.8-0.1,1.6,0.8,2.4
					c1.1,1,3.1,1.6,3.4,0.6C119.5,168.5,118.7,167.6,118.5,166.8L118.5,166.8z"/>
				<polygon class="st51" points="113.2,164.4 106.2,169.2 113.7,175.4 119.2,169.2 				"/>
				<path class="st51" d="M115.1,167.8l-3.9,0v-7.2c0-1.1,0.9-1.9,1.9-1.9l0,0c1.1,0,1.9,0.9,1.9,1.9V167.8z"/>
				<path class="st54" d="M117.6,209.3L117.6,209.3c0-0.3-0.1-0.7-0.1-1L117.6,209.3z"/>
			</g>
			<g>
				<path class="st34" d="M108.9,196.1c2.3,0,4.3-1.7,4.6-4.1c0.2-1,0.2-2,0.2-3c0-5.5-2.2-9.9-4.9-9.9s-4.9,4.4-4.9,9.9
					c0,1,0.1,2.1,0.2,3C104.7,194.4,106.6,196.1,108.9,196.1L108.9,196.1z"/>
				<path class="st34" d="M118.8,196.1c2.3,0,4.3-1.7,4.6-4.1c0.2-1,0.2-2,0.2-3c0-5.5-2.2-9.9-4.9-9.9s-4.9,4.4-4.9,9.9
					c0,1,0.1,2.1,0.2,3C114.6,194.4,116.6,196.1,118.8,196.1L118.8,196.1z"/>
				<rect x="108.9" y="179.1" class="st34" width="10.1" height="17"/>
			</g>
			<g>
				<path class="st55" d="M121.8,190.7c0,1.1-0.9,2.1-2.1,2.1s-2.1-0.9-2.1-2.1s0.9-2.1,2.1-2.1S121.8,189.6,121.8,190.7z"/>
				<circle class="st55" cx="109.2" cy="190.7" r="2.1"/>
			</g>
			<path class="st34" d="M109.6,185.8c-3.2,0-5.7,2.8-5.4,6l1.7,14.6c0,2.2,1.8,4,4,4s4-1.8,4-4l1.1-14.8
				C115.2,188.4,112.7,185.8,109.6,185.8L109.6,185.8L109.6,185.8z"/>
			<path class="st34" d="M113.9,206c-0.1-2.1-1.8-3.8-4-3.8s-3.9,1.7-4,3.8l1.2,15.3l5.4-0.1L113.9,206L113.9,206z"/>
			<path class="st34" d="M116.7,182.9c-3.1,0.8-4.9,4-3.8,7.1l5.1,13.8c0.6,2.1,2.7,3.4,4.8,2.9s3.4-2.6,2.9-4.8l-2.5-14.7
				C122.8,184.2,119.8,182.2,116.7,182.9L116.7,182.9L116.7,182.9z"/>
			<path class="st34" d="M125.8,203.8c0.4-2.1-1-4.1-3.1-4.6c-2.1-0.5-4.2,0.8-4.7,2.9l-2.4,16.7l5.3,1.1L125.8,203.8L125.8,203.8z"
				/>
			<path class="st4" d="M116.7,167.1h-0.2h-7.7l0,0c-2,0.1-3.7,1.6-4,3.8c-0.1,0.9-0.2,1.8-0.2,2.8c0,4.7-0.2,8.8,0.7,9
				c0.2,0,3.5,0,3.7,0c0.1,0,0.1,0,0.2,0h1.8c0,0,0,0,0.1,0c0.6,0,11.3,0.4,11.5-0.3C124.6,173.8,118.8,167.1,116.7,167.1
				L116.7,167.1z"/>
			<g>
				<path class="st4" d="M109.4,167.7c-1.8-0.6-3.8,0.4-4.4,2.2l-2.9,9.2l0,0c-0.5,1.6,0.3,3.4,2,4s3.3-0.5,3.9-2.1l0.1,0.2l3.4-9
					C112.1,170.3,111.2,168.3,109.4,167.7L109.4,167.7L109.4,167.7z"/>
				<path class="st51" d="M103.7,178.3L103.7,178.3c-1.2,0.8-1.7,2.4-0.9,3.7s2.4,1.7,3.7,1l0,0c0,0,7.6-6.3,7.7-6.3
					c1.3-0.9,0.7-2.7-0.8-2.2C113.2,174.5,103.7,178.3,103.7,178.3z"/>
			</g>
			<g>
				<path class="st51" d="M117.4,161.3c0.4-2.1-1.4-3.7-3.1-3.9c-2-0.3-3.9,1.2-4.1,3.4c-0.1,1,0.1,2,0.7,2.8c1.1,1.8,2.7,2.5,4,2.7
					c1.1,0.2,2.4-1.7,2.6-3.3C117.6,162.1,117.3,161.9,117.4,161.3z"/>
				<path class="st53" d="M117.8,161c0,0-3.2-1.3-3.7-3.7C114.1,156.8,117.9,156.1,117.8,161z"/>
				<path class="st53" d="M115.4,157c-5.7-1.6-5.3,3.4-6.3,4.5c-1.3,1.4-0.8,3.9-0.5,4.7c-0.8,0.8-1.9,2.3-1.2,3.7
					c1,2.1,4.3,1.7,5.2,0.4c0.8-1.1,0-3.4-0.9-4.2c0.2-1,0.7-1.6,0.3-2.7c-0.3-0.9-0.4-1.7-0.4-2.1c0.7-0.5,1.5-1.4,1.8-2.5
					c0.2-0.5,1.2-0.4,1.4-0.4C114.9,158.4,116.3,157.4,115.4,157L115.4,157z"/>
			</g>
			<polygon class="st56" points="115.3,174.5 118.1,174.2 121.5,169.9 121.4,169.7 118.6,169.9 			"/>
			<polygon class="st57" points="115.4,174.7 118.2,174.5 121.5,169.9 118.7,170.1 			"/>
			<path class="st51" d="M112.9,175.3l1-1.1c0,0,0.4-0.9,1-1.2s2.1-1.1,2.2-1s-0.3,0.9-1,1.1c0,0,1.3-0.1,2.8-0.8
				c0,0,0.6,0.2,0.5,0.5s-0.7,0.5-0.7,0.5s0.1,0.3,0,0.5s-1.6,2-1.6,2l-3.6,0.8C113.5,176.7,111.8,176.8,112.9,175.3L112.9,175.3z"
				/>
		</g>
		<g>
			<g>
				<g>
					<g>
						<circle class="st14" cx="147.9" cy="189.5" r="1.3"/>
						<circle class="st14" cx="136.3" cy="190.1" r="1.3"/>
					</g>
					<path class="st58" d="M138.2,187.4l4.7,0v-7.1c0-1-1.1-1.9-2.3-1.9l0,0c-1.3,0-2.3,0.9-2.3,1.9V187.4z"/>
					<path class="st14" d="M133,244.4L133,244.4c-0.8,0-1.5-0.7-1.5-1.5v-5c0-0.8,0.7-1.5,1.5-1.5l0,0c0.8,0,1.5,0.7,1.5,1.5v5
						C134.5,243.8,133.8,244.4,133,244.4z"/>
					<path class="st33" d="M127.9,246.2c0-0.5,0.2-1.4,0.9-1.5c1.6-0.3,2.4-4.4,2.4-4.4c0.9-0.6,3.6,0.9,3.6,1v5.1h-6.9V246.2z"/>
					<path class="st19" d="M134.8,246.4h-3.1h-3.8v-0.1c0-0.2,0-0.5,0.2-0.8h6.7L134.8,246.4L134.8,246.4z"/>
					<g>
						<circle class="st14" cx="136.4" cy="210.8" r="2.2"/>
						<circle class="st14" cx="144" cy="210.8" r="2.2"/>
					</g>
					<path class="st59" d="M132.7,210.2c0.5-2.1,2.6-3.4,4.8-2.9l0,0c2.1,0.6,4,3.4,3.3,5.4l-4.7,12.3c-0.5,1.7-2.3,2.8-4,2.3
						s-2.8-2.3-2.3-4L132.7,210.2L132.7,210.2z"/>
					<path class="st59" d="M139,211.2c-0.1-2.2,3-4,5.2-4l0,0c2.2,0,3.9,1.9,3.8,4l-0.8,13.5c-0.1,1.8-1.6,3.2-3.4,3.2
						s-3.2-1.5-3.2-3.3L139,211.2L139,211.2z"/>
					<g>
						<path class="st59" d="M147,200.8l0.9,7.9c0.1,0.6,0.1,1.1-0.1,1.7c-0.4,2-2,4.6-3.8,4.6l-6,0v-14.2L147,200.8L147,200.8z"/>
						<path class="st59" d="M133.5,200.8l-0.9,7.9c-0.1,0.6-0.1,1.1,0.1,1.7c0.4,2,2,4.6,3.8,4.6l6,0v-14.2L133.5,200.8L133.5,200.8
							z"/>
					</g>
					<path class="st58" d="M140.9,183.6l4.9,2.5c1.9,1.3,1,4.1-0.8,5.6l-4.7,3.9l-4-3.9c-1.5-1.5-1.3-4.1,0.4-5.3L140.9,183.6
						L140.9,183.6z"/>
					<path class="st16" d="M133.8,190.2c0.4-3.6,3-3.8,3.8-4.4c0,0,3.8,0.1,5.2-0.5l0.8-0.5c1.8,0.5,4.8,1.7,5.2,2.6
						c1.5,3.3-0.4,22.5-0.4,22.5c-7.6,3.5-16.8,1-16.8,1L133.8,190.2L133.8,190.2z"/>
					<path class="st58" d="M139.2,175.8c0.2-0.1,1.5-1,3-0.5l0,0l0,0l0,0l0,0c1.4,0.5,1.9,2,2,2.3c0.5,1.6-1,4.8-1.9,5.9
						c-0.5,0.6-4,1.5-5.1,0.4c-0.4-0.5-0.3-0.9-0.3-1.7c0.1-1.8,0-2.1,0.8-2.9c0.1-0.2-0.1-0.4-0.1-0.6
						C138,177.1,138.5,176.3,139.2,175.8L139.2,175.8z"/>
					<path class="st60" d="M142.9,183.9c-0.1,0.3-2.8,0.2-2.2-3c0.2-1-0.5-1.8-1.4-0.6l-0.2-0.1c0,0,0.3-0.9,0.6-1.4
						c0.4-0.8,1.2-1.3-1.3-2.2c-0.7-0.2,0.6-1.1,1.3-1.3c0.9-0.3,1.5-0.4,2.7,0c3.1,0.9,3.7,4.1,2.4,6.3S142.9,183.9,142.9,183.9
						L142.9,183.9z"/>
					<path class="st59" d="M129.5,224.4c0.1-1.8,1.5-3.2,3.3-3.2s3.2,1.4,3.3,3.2l-0.3,14.5c0,0.8-0.6,1.4-1.4,1.4l-3,0
						c-0.7,0-1.4-0.6-1.4-1.3L129.5,224.4L129.5,224.4z"/>
					<path class="st14" d="M143.9,244.4L143.9,244.4c-0.8,0-1.5-0.7-1.5-1.5v-5c0-0.8,0.7-1.5,1.5-1.5l0,0c0.8,0,1.5,0.7,1.5,1.5v5
						C145.5,243.8,144.8,244.4,143.9,244.4z"/>
					<path class="st33" d="M138.9,246.2c0-0.5,0.2-1.4,0.9-1.5c1.6-0.3,2.4-4.4,2.4-4.4c0.9-0.6,3.6,0.9,3.6,1v5.1h-6.9V246.2z"/>
					<path class="st19" d="M145.7,246.4h-3.1h-3.8v-0.1c0-0.2,0-0.5,0.1-0.8h6.7V246.4z"/>
					<path class="st59" d="M140.5,224.4c0.1-1.8,1.5-3.2,3.3-3.2s3.2,1.4,3.3,3.2l-0.3,14.5c0,0.8-0.6,1.4-1.4,1.4l-3,0
						c-0.7,0-1.4-0.6-1.4-1.3L140.5,224.4L140.5,224.4z"/>
				</g>
				<g>
					<path class="st61" d="M139.9,181.3c0.5,0.1,0.9-0.2,1-0.7s-0.2-1-0.6-1.1"/>
					<path class="st58" d="M139,180.8c-0.2,0.5-0.4,1.2,0,1.4c0.7,0.4,1.5-1,1.6-1.6s0.1-0.8-0.2-1S139.2,180.2,139,180.8L139,180.8
						z"/>
				</g>
				<g>
					
						<ellipse transform="matrix(0.2233 -0.9748 0.9748 0.2233 -64.2336 278.0068)" class="st61" cx="142.3" cy="179.3" rx="0.6" ry="0.5"/>
					<path class="st61" d="M142.5,179.6L142.5,179.6c0,0,0.1,0.6-0.2,0.6c0,0,0,0,0,0c-0.1,0-0.2-0.1-0.2-0.2l0-0.4L142.5,179.6
						L142.5,179.6z"/>
					<path class="st62" d="M142.2,180.7c0.1,0.1-0.2,0.8-0.7,0.3"/>
					<path class="st61" d="M142.5,180l-0.5,0c0,0-0.1,0.2,0.1,0.3l0,0.5h0.1l0.1-0.4C142.4,180.3,142.6,180.2,142.5,180L142.5,180z"
						/>
					<path class="st63" d="M140.9,180.5c0,0,0.4-0.1,0.5,0.5"/>
					<path class="st63" d="M139.3,180.7c0.1,0,0.3,0,0.4-0.2c0-0.1,0-0.1,0-0.2c-0.1-0.1-0.1-0.2,0-0.5c0.2-0.4,0.7-0.3,1,0"/>
				</g>
			</g>
			<g>
				<g>
					<path class="st58" d="M133.8,191.4c0.9-3.3,3.9-2.7,4.2-0.9c0.3,1.8-3.1,12.1-3.1,12.1l-4.5,0.2
						C130.4,202.9,133,194.6,133.8,191.4L133.8,191.4z"/>
					<path class="st58" d="M133.6,204.9c-3.9,0.5-10.2-7.1-10.2-7.1c-0.3-0.8,0.4-1.3,1.2-1c0,0,7,3.1,10.3,5.8
						C134.9,202.6,134.4,204.8,133.6,204.9L133.6,204.9z"/>
				</g>
				<path class="st58" d="M120.7,193.9c0.2,0,0.3,0.2,0.3,0.2l0,0c0.3,0.1,0.5,0.6,0.5,0.6l0.6,0.3l0.9,0.3l0,0
					c0-0.2-0.5-0.6-0.8-0.9c-0.1-0.1-0.2-0.3-0.2-0.4c0-0.2,0.2-0.3,0.3-0.2c0.6,0.2,1,0.9,1,0.9l0.7,0.6c0,0,1.2,0.7,1.3,1.3
					s0.2,1,0.2,1l-1.4,1.1l-0.9-0.7c-0.6-0.2-1.2-1-1.4-1.1c0,0,0,0,0-0.1l-0.1-0.2l0,0l-0.6-0.6v-0.1h0l-0.2-0.3l0-0.5l0,0
					l-0.3-0.9C120.5,193.9,120.6,193.8,120.7,193.9L120.7,193.9z"/>
				<path class="st16" d="M139.3,185.9c0,0-4.6,1.2-5.3,2.8c0,0-3.1,8.2-3.2,10.6l5.3,3l2-6L139.3,185.9L139.3,185.9z"/>
			</g>
		</g>
		<g>
			<g>
				<path class="st34" d="M312.6,230.7L312.6,230.7c-0.8,0.4-1.9,0.1-2.3-0.7l-2.5-4.9c-0.4-0.8-0.1-1.8,0.7-2.3l0,0
					c0.8-0.4,1.8-0.1,2.3,0.7l2.5,4.9C313.8,229.3,313.4,230.3,312.6,230.7z"/>
				<path class="st13" d="M299.8,197.1c-0.5-2.4,1.5-5.1,3.9-5.6h0c2.4-0.5,4.9,1.5,5.2,3.9l1.1,12.7c0.4,2-1,3.9-2.9,4.2
					s-3.9-0.9-4.3-2.9L299.8,197.1L299.8,197.1z"/>
				<path class="st13" d="M302.8,209.3c-0.4-1.9,0.8-3.8,2.7-4.3c1.9-0.5,3.9,0.7,4.4,2.6l4.3,19.9l-6.1,1.4L302.8,209.3
					L302.8,209.3z"/>
				<g>
					<path class="st33" d="M304.5,234.9L304.5,234.9c0,0.1,5.4-5.9,5.4-5.9l0.4,0.6c1.1,0.2,2.3-0.2,3-1.2l0.2-0.3l1,2.3
						L304.5,234.9L304.5,234.9z"/>
					
						<rect x="304.3" y="232.7" transform="matrix(0.9128 -0.4083 0.4083 0.9128 -68.2781 146.8317)" class="st33" width="11" height="1.4"/>
				</g>
			</g>
			<g>
				<path class="st34" d="M298.9,224.9L298.9,224.9c-0.9,0.2-1.8-0.4-2-1.3l-1.2-5.4c-0.2-0.9,0.4-1.8,1.3-2l0,0
					c0.9-0.2,1.8,0.4,2,1.3l1.2,5.4C300.4,223.8,299.8,224.7,298.9,224.9z"/>
				<g>
					<path class="st33" d="M289.6,224.7L289.6,224.7c0,0.1,7.3-3.1,7.3-3.1l0.1,0.7c1,0.7,2.2,0.7,3.2,0.2l0.3-0.2v2.5H289.6
						L289.6,224.7z"/>
					<rect x="289.6" y="224.7" class="st33" width="11" height="1.4"/>
				</g>
				<path class="st13" d="M298.5,191.1c2-1.4,5.3-0.4,6.6,1.6v0c1.3,2,0.3,5.1-1.8,6.3l-11.5,5.6c-1.7,1-3.9,0.5-5-1.2
					s-0.5-3.9,1.1-5L298.5,191.1L298.5,191.1z"/>
				<path class="st13" d="M286.5,202.8c-0.7-1.8,0.1-3.9,2-4.7c1.8-0.8,3.9,0,4.8,1.8l7.7,18.9l-5.8,2.5L286.5,202.8L286.5,202.8z"
					/>
				<path class="st13" d="M303.3,187c-1.5,0-5,1-6.1,1.9l0.8,6.1c0.5,4.1,2.2,4.1,5.2,4.1c0,0,0,0,0,0c3.8-1,6-2.7,6-6
					C309.3,189.7,306.6,187,303.3,187z"/>
			</g>
			<path class="st14" d="M303.1,168.9c0-0.8,0.7-1.5,1.5-1.5s1.5,0.7,1.5,1.5s-0.7,1.5-1.5,1.5S303.1,169.7,303.1,168.9z"/>
			<path class="st64" d="M306.2,171.6l-4.7,1.8l-2.8-7.2c-0.4-1,0.3-2.3,1.6-2.8l0,0c1.3-0.5,2.7-0.1,3.1,1L306.2,171.6L306.2,171.6
				z"/>
			<path class="st47" d="M303.9,169.6c1.2,0.8,1.6,2.5,0.8,3.7l-7,10.4l0,0c-0.7,1-2,1.3-3,0.6s-1.3-2-0.7-3l0,0l6.3-10.8
				C301,169.2,302.7,168.8,303.9,169.6L303.9,169.6L303.9,169.6z"/>
			<path class="st47" d="M285.2,175.6l11.3,5.2l0,0c1,0.6,1.5,1.9,0.9,3s-1.9,1.5-3,0.9l0,0l-10.4-7c-0.5-0.3-0.7-0.7-0.6-1.1
				c0.1-0.3,0.2-0.8,0.5-1C284.2,175.4,284.8,175.4,285.2,175.6L285.2,175.6z"/>
			<path class="st47" d="M280.8,174.5c-0.8-0.3-1.8-0.7-1.6-1c0.2-0.4,3.3,1,3.2,0.8s-2.9-1.1-2.5-1.4c0.4-0.3,3.2,0.9,3.2,0.9
				c-0.6-0.9,0-1.6,0-1.6c0-0.2,0.8,1,1.1,1.5c0.1,0.1,0.2,0.2,0.4,0.4c0.9,0.6,1.1,1.6,1.1,1.6l0,0c0.3,1.2-0.9,2.2-2,1.7l-0.7-0.3
				c-0.4,0-2.2-1.1-2.7-1.4c-0.4-0.2-0.1-0.5-0.1-0.5c2,0.8,2,0.7,2,0.7s-2.9-1.2-2.8-1.6C279.4,174.1,280.2,174.3,280.8,174.5
				L280.8,174.5z"/>
			<path class="st65" d="M294,179.7l5.2-8.8c0.9-1.5,2.9-2,4.4-1c1.5,0.9,1.9,2.9,0.9,4.4l-5.7,8.4L294,179.7L294,179.7z"/>
			<path class="st65" d="M296.2,193.4c0,0-1-14.7,1.1-20.5s5.1-6,7.1-5.7c4.2,0.6,4.6,22.7,4.8,24.9v0c-3.6,2.2-9,3-12.9,1.3
				L296.2,193.4z"/>
			<path class="st47" d="M303.2,168c1.2-0.8,2.8-0.1,3.5,1.1l6.4,10.6l0,0c0.6,1,0.3,2.4-0.7,3s-2.4,0.3-3-0.7l0,0l-7-10.4
				C301.6,170.4,302,168.8,303.2,168L303.2,168L303.2,168z"/>
			<path class="st47" d="M309.8,193.3l-0.8-12.4l0,0c0-1.2,1-2.2,2.2-2.2c1.2,0,2.2,1,2.2,2.2l0,0l-1.2,12.5c0,0.6-0.2,0.9-0.7,1.1
				c-0.3,0.1-0.8,0.2-1.1,0C310.1,194.2,309.8,193.7,309.8,193.3L309.8,193.3z"/>
			<path class="st65" d="M307.8,181.6l-6.2-9.8c-1-1.5-0.6-3.5,1-4.4c3.7-2.2,9.5,8.1,10.2,11L307.8,181.6L307.8,181.6z"/>
			<g>
				<path class="st64" d="M304.2,158.6c-1.8-1.2-3.8-1.2-5-0.2l0,0c0,0-2.3,1.4-1.8,2.6c0,0-0.9,1.1-1.2,1.4c0,0-0.4,0.4,0.4,0.9
					c0,0-0.2,1.6-0.4,1.9c-0.1,0.2,0,0.7,0.5,1.1c0.5,0.5,1.3,0.7,2.1,0.7c1.5-0.2,3.5-0.3,4.4-0.9
					C306.1,164.1,306.1,160,304.2,158.6L304.2,158.6z"/>
				<g>
					
						<linearGradient id="SVGID_00000131368079334355643520000009034884520727901093_" gradientUnits="userSpaceOnUse" x1="4266.2637" y1="967.1752" x2="4275.0142" y2="955.8853" gradientTransform="matrix(0.9519 0.3064 0.3064 -0.9519 -4056.479 -231.5022)">
						<stop  offset="0.15" style="stop-color:#FFD4BA;stop-opacity:0"/>
						<stop  offset="0.31" style="stop-color:#DFBDAB;stop-opacity:0.16"/>
						<stop  offset="0.62" style="stop-color:#8C8287;stop-opacity:0.57"/>
						<stop  offset="0.91" style="stop-color:#374561"/>
					</linearGradient>
					<path style="fill:url(#SVGID_00000131368079334355643520000009034884520727901093_);" d="M304.2,158.6L304.2,158.6
						c-0.1-0.1-0.3-0.2-0.5-0.3c0,0-0.1,0-0.1-0.1c-0.1-0.1-0.3-0.2-0.5-0.2c0,0,0,0,0,0c-0.1-0.1-0.3-0.1-0.4-0.1c0,0-0.1,0-0.1,0
						c-0.1,0-0.3-0.1-0.5-0.1c0,0-0.1,0-0.1,0c-0.1,0-0.2,0-0.4,0c0,0-0.1,0-0.1,0c-0.1,0-0.3,0-0.4,0c0,0-0.1,0-0.1,0
						c-0.1,0-0.2,0-0.3,0c0,0-0.1,0-0.1,0c-0.1,0-0.2,0.1-0.4,0.1c0,0,0,0,0,0c6.8,1.2,0.2,4.7,1.2,4.6c1-0.1,2.4,0.2,1.4,2
						c-0.2,0.4,0,1,0.3,1.5C306.1,163.9,306.1,160,304.2,158.6L304.2,158.6z"/>
					
						<linearGradient id="SVGID_00000119096005999199247990000009768183887729483948_" gradientUnits="userSpaceOnUse" x1="13175.2988" y1="927.7321" x2="13179.0596" y2="935.5921" gradientTransform="matrix(0.948 0.3183 0.3183 -0.948 -12489.7842 -3146.6895)">
						<stop  offset="0.43" style="stop-color:#374561"/>
						<stop  offset="0.52" style="stop-color:#404B65;stop-opacity:0.95"/>
						<stop  offset="0.62" style="stop-color:#5C5F71;stop-opacity:0.81"/>
						<stop  offset="0.72" style="stop-color:#8A8085;stop-opacity:0.58"/>
						<stop  offset="0.83" style="stop-color:#CAAEA2;stop-opacity:0.26"/>
						<stop  offset="0.91" style="stop-color:#FFD4BA;stop-opacity:0"/>
					</linearGradient>
					<path style="fill:url(#SVGID_00000119096005999199247990000009768183887729483948_);" d="M301.2,163l-0.3-0.1
						c-1.2,3-3,1.9-3,1.9c0.3-0.1,0.7-0.9,0-1c-0.8-0.1-1.3-0.6-1.3-0.6c-0.1,0.1-0.6,1.7-0.7,2s-0.1,0.7,0.4,1.1
						c0.2,0.2,0.5,0.3,0.8,0.4l0.7,0.2C300.7,167.3,301,164.1,301.2,163L301.2,163z"/>
				</g>
			</g>
			<path class="st47" d="M309.8,192.4l-1.1,3.3l0,1.7c0,0,0,0.1,0,0.1l0.7,1.3c0.1,0.2,0.4,0.3,0.6,0.2l0,0c0.2-0.1,0.3-0.4,0.2-0.6
				l-0.5-1c0-0.1,0-0.1,0-0.2l0.2-1.2l0,1.4l0.5,1c0.1,0.2,0.3,0.2,0.5,0.2l0,0c0.2-0.1,0.3-0.3,0.2-0.5l-0.4-0.8l0.1-1.1l0.3,1.2
				l0.2,0.4c0.1,0.2,0.3,0.2,0.5,0.1l0,0c0.2-0.1,0.3-0.3,0.2-0.5l-0.3-0.5l0-1.2l0.2,1.1l0.1,0.3c0.1,0.2,0.3,0.3,0.5,0.2l0,0
				c0.1,0,0.3-0.2,0.2-0.4l0-0.6v-2.7l-0.5-1.4C312.3,192.4,311.6,191.1,309.8,192.4L309.8,192.4z"/>
			<path class="st65" d="M298.7,169.8c0,0,1.5-2.8,5.2-3.2l1.9,0.9C305.7,167.5,301.9,167.8,298.7,169.8L298.7,169.8z"/>
		</g>
		<g>
			<g>
				<path class="st51" d="M370.8,245.8L370.8,245.8c-0.8-0.1-1.4-0.8-1.3-1.6l0.5-4.8c0.1-0.8,0.8-1.4,1.6-1.3h0
					c0.8,0.1,1.4,0.8,1.3,1.6l-0.5,4.8C372.3,245.3,371.6,245.8,370.8,245.8z"/>
				<path class="st51" d="M369.6,245.2L369.6,245.2c-0.6-0.1-1-0.7-0.8-1.3l0.8-3.6c0.1-0.6,0.7-1,1.3-0.8l0,0
					c0.6,0.1,1,0.7,0.8,1.3l-0.8,3.6C370.8,244.9,370.2,245.3,369.6,245.2z"/>
				<path class="st33" d="M364.8,244.7c1.2-0.6,4.2-1.5,4.2-1.5l0.7,2h2.6v0.9h-2.8h-5.4v-0.3C364.1,245.3,364.4,244.9,364.8,244.7
					L364.8,244.7z"/>
				<path class="st51" d="M389.5,245L389.5,245c-0.7,0.3-1.6-0.1-1.9-0.8l-1.7-4.3c-0.3-0.7,0.1-1.6,0.8-1.9l0,0
					c0.7-0.3,1.6,0.1,1.9,0.8l1.7,4.3C390.6,243.8,390.3,244.7,389.5,245z"/>
				<path class="st51" d="M371.6,222c0.4-1.6,2.1-2.6,3.7-2.2c1.6,0.4,2.6,2,2.3,3.6l-5.1,19.4l-3.3-0.5L371.6,222L371.6,222z"/>
				<path class="st51" d="M379.6,228.5c-0.5-1.6,0.4-3.3,2-3.8c1.6-0.5,3.3,0.3,3.9,1.9l3.9,14.2l-2.5,1.2L379.6,228.5L379.6,228.5z
					"/>
				<path class="st33" d="M384.5,244.6c1.2-0.9,2.6-2,2.6-2l1.4,1.8l2.6-0.6l0.2,0.8l-2.7,0.7l0,0l-3.6,0.9h-1.6l0,0
					C383.1,244.8,384.2,244.8,384.5,244.6L384.5,244.6z"/>
			</g>
			<g>
				<g>
					<path class="st51" d="M372.1,183.8c0.3,0.7-0.1,1.6-1,2s-1.8,0.1-2.2-0.5l0,0l-3.2-8.6c-0.3-0.7-0.6-1.2,0.3-1.6
						s1.2-0.1,1.6,0.8L372.1,183.8L372.1,183.8L372.1,183.8z"/>
					<path class="st9" d="M379.2,188.6l-7-5.2l-4.3,2.2l7.3,7.5c1.2,1.2,3.2,1.2,4.4,0l0,0C380.9,191.9,380.7,189.7,379.2,188.6
						L379.2,188.6z"/>
					<path class="st51" d="M367.5,176l0.9-3.3l-0.2-2l0-1.4c0,0-0.8,0.6-0.7,1.7l-0.5,1.5l-0.9,1c0,0,0.5-1.6-0.2-1.8
						c0,0-0.4,1.4-0.5,1.8c-0.1,0.2,0,1.5,0.1,2.2c0,0.3,0.2,0.6,0.5,0.8C366.4,176.8,367.2,177.3,367.5,176L367.5,176z"/>
				</g>
				<g>
					<g>
						<circle class="st14" cx="379.9" cy="189.6" r="1.3"/>
						<path class="st51" d="M381.2,187.3l-4.2,1.1l-1.8-6.4c-0.3-0.9,0.5-2,1.6-2.3l0,0c1.1-0.3,2.3,0.2,2.6,1.1L381.2,187.3
							L381.2,187.3z"/>
						<path class="st51" d="M375.2,190.1l1.8-4.4l2.1,0.1l-2.2,4.7L375.2,190.1z"/>
						<path class="st9" d="M372.5,196.3c-0.5-0.6-0.8-1.6-0.1-3c0.5-1.1,4.1-6.2,4.2-6.3c0,0-0.7,1.8-0.7,1.9
							c1.1-1.4,3.5-3.4,4.6-3.5c2.7-0.1,3.3,8.5,2.5,12.2c-0.6,2.7-0.6,4.3-0.6,4.3c-3.1,1.9-9.5,0.5-9.5,0.5L372.5,196.3
							L372.5,196.3z"/>
					</g>
					<g>
						<path class="st51" d="M373.5,182.4c0-0.3,0.9-0.9,0.9-1.5s-0.1-1.8,0.5-2.5c0.6-0.6,3-1.4,3-1.4l0.4,4.8l-0.2,1.5
							c0,0-1.1,2.3-3.6,1.8c0,0-0.4-0.2-0.2-1l-0.1-1.4C374.1,182.7,373.5,182.6,373.5,182.4L373.5,182.4z"/>
						<path class="st68" d="M377.6,180.8l0.2,0.2c0.2,0.1,0.3,0.3,0.5,0.4c0.1,0,0.1,0.1,0.1,0.2c0,0.1,0,0.1-0.1,0.2l-0.4,0.4
							c0,0-0.1,0-0.2,0C377.7,181.8,377.5,181.2,377.6,180.8L377.6,180.8z"/>
						<path class="st68" d="M374.5,178.9c0,0-0.5-2.8,4.1-2.7s4.7,5.6,3.4,7c-0.3,0.3,0.5,2.3,0.4,2.7c-0.5,1.3-1.7,1.2-1.7,1.2
							s-1.7-2.5-1.6-3.9s-0.8-1.5-0.8-1.5s-0.6,0.1-0.7-0.4s-0.2-0.7-0.3-1.7s-2.3-1.4-2.3-1.4L374.5,178.9L374.5,178.9z"/>
						<path class="st51" d="M378.3,181.8c0,0,0.7-0.9,1.2-0.3s-0.3,2-1.4,1.8L378.3,181.8L378.3,181.8z"/>
						<circle class="st19" cx="378.3" cy="183.1" r="0.2"/>
						<path class="st68" d="M382,181.7c0.7,0,1.4,0.5,1.6,1.2c0.3,0.9-0.2,1.9-1.1,2.1l-0.6-2.1C382,182.5,382,182,382,181.7
							L382,181.7z"/>
						<path class="st68" d="M380.9,185.8c-0.7,0.3-1.5,0.1-2-0.6c-0.6-0.8-0.4-1.8,0.3-2.4l1.3,1.8
							C380.6,185,380.7,185.5,380.9,185.8L380.9,185.8z"/>
						<path class="st68" d="M382.1,187.8c-0.7,0.3-1.5,0.1-2-0.6c-0.6-0.8-0.4-1.8,0.3-2.4l1.3,1.8
							C381.8,187.1,381.9,187.5,382.1,187.8L382.1,187.8z"/>
						<path class="st68" d="M381.5,179.8c0.7,0,1.4,0.5,1.6,1.2c0.3,0.9-0.2,1.9-1.1,2.1l-0.6-2.1
							C381.5,180.6,381.5,180.1,381.5,179.8L381.5,179.8z"/>
						<path class="st68" d="M380.5,188.9c-0.1-0.5,0.1-0.9,0.4-1.2c0-0.1-0.1-0.2-0.1-0.2c-0.1-0.4,0-0.8,0.3-1.1
							c-0.1-0.2-0.3-0.4-0.3-0.6c-0.1-0.6,0-1.1,0.4-1.5c-0.2-0.2-0.3-0.4-0.4-0.7c-0.2-0.7,0.2-1.5,0.8-1.8
							c0.1,0.3,0.4,0.7,0.7,0.9l0.3,1.1c0.5,0.1,0.9,0.4,1.2,0.9c0.1,0.2,0.2,0.5,0.2,0.7c0.1,0.1,0.2,0.2,0.2,0.3
							c0.2,0.4,0.2,0.8,0.1,1.2c0.3,0.2,0.6,0.6,0.7,1c0.2,0.8-0.2,1.6-0.9,2c0,0.5-0.4,1-0.9,1.1c-0.6,0.1-1.3-0.2-1.4-0.9
							c0-0.1,0-0.2,0-0.2C381.2,189.8,380.6,189.5,380.5,188.9L380.5,188.9z"/>
					</g>
				</g>
				<g>
					<g>
						<circle class="st14" cx="373.5" cy="210.9" r="2.1"/>
						<circle class="st14" cx="381.9" cy="210.9" r="2.1"/>
					</g>
					<g>
						<path class="st69" d="M381.9,215.6c-1.9,0-3.6-1-3.9-2.3c-0.1-0.5-0.2-1.1-0.2-1.7c0-3.1,1.8-5.6,4.1-5.6s4.1,2.5,4.1,5.6
							c0,0.6-0.1,1.2-0.2,1.7C385.5,214.7,383.8,215.6,381.9,215.6L381.9,215.6L381.9,215.6z"/>
						<path class="st69" d="M373.6,215.6c-1.9,0-3.6-1-3.9-2.3c-0.1-0.5-0.2-1.1-0.2-1.7c0-3.1,1.8-5.6,4.1-5.6s4.1,2.5,4.1,5.6
							c0,0.6-0.1,1.2-0.2,1.7C377.2,214.7,375.5,215.6,373.6,215.6L373.6,215.6L373.6,215.6z"/>
						<rect x="373.5" y="206.1" class="st69" width="8.5" height="9.6"/>
					</g>
					<path class="st69" d="M378.5,226.3l-1-14.1c-0.2-2.4,1.8-4.5,4.2-4.5l0,0c2.4,0,4.3,2,4.2,4.5l-0.9,14.1c-0.1,1.7-1.5,3-3.2,3
						l0,0C380,229.3,378.6,228,378.5,226.3z"/>
					<path class="st70" d="M370.5,226.3l-1-14.1c-0.2-2.4,1.8-4.5,4.2-4.5l0,0c2.4,0,4.3,2,4.2,4.5l-0.9,14.1c-0.1,1.7-1.5,3-3.2,3
						l0,0C372.1,229.3,370.7,228,370.5,226.3z"/>
					<path class="st9" d="M372.8,202.1h0.1l9.3-0.1h0.1c0,0,5.6,6.7,3.6,20.1c-0.7,4.6,3.1,9.9,3.2,16.1l-20.2,1.8
						C365.1,209,372.8,202.1,372.8,202.1L372.8,202.1z"/>
				</g>
				<g>
					<path class="st51" d="M380.5,200.8c0.8-0.2,1.5,0.5,1.8,1.4s-0.2,1.8-1,2l0,0l-9.1,1.4c-0.8,0.2-1.3,0.3-1.6-0.6
						s0.2-1.2,1.1-1.4L380.5,200.8L380.5,200.8L380.5,200.8z"/>
					<g>
						<path class="st51" d="M369.3,205.1L369.3,205.1c-0.1-0.6,0.2-1.2,0.9-1.3l3.5-0.8c0.6-0.1,1.2,0.2,1.3,0.8v0
							c0.1,0.6-0.2,1.2-0.9,1.3l-3.5,0.8C370.1,206.1,369.5,205.7,369.3,205.1z"/>
						<rect x="364.6" y="203.2" transform="matrix(0.5 -0.866 0.866 0.5 4.5857 420.1834)" class="st71" width="3.1" height="5.9"/>
						<path class="st51" d="M369.2,204l-2,0.2l-1.2,0.5c0,0-0.1,0-0.1,0.1l-0.7,0.8c-0.1,0.1-0.1,0.3,0,0.4l0,0
							c0.1,0.1,0.3,0.1,0.4,0l0.6-0.6c0,0,0.1,0,0.1-0.1l0.8-0.2l-0.9,0.4l-0.5,0.6c-0.1,0.1-0.1,0.3,0,0.4l0,0
							c0.1,0.1,0.3,0.1,0.4,0l0.4-0.4l0.8-0.2l-0.7,0.5l-0.2,0.2c-0.1,0.1-0.1,0.2,0,0.4l0,0c0.1,0.1,0.3,0.1,0.4,0l0.2-0.3l0.8-0.3
							l-0.6,0.4l-0.2,0.1c-0.1,0.1-0.1,0.2,0,0.4l0,0c0.1,0.1,0.2,0.1,0.3,0.1l0.4-0.2l2-0.7l0.2-0.1c0.9-0.3,1-1.5,0.3-2.1
							c0,0,0,0-0.1-0.1C369.9,204,369.5,203.9,369.2,204L369.2,204z"/>
					</g>
				</g>
				<path class="st9" d="M377.4,193.3l0.8,7.7l4.6,2.7l0.8-10.5c0.1-1.7-1.2-3.2-2.9-3.3l0,0C378.7,189.9,377.2,191.5,377.4,193.3
					L377.4,193.3z"/>
			</g>
		</g>
		<g>
			<path class="st47" d="M50.9,189.9c-0.1-0.8,0.4-0.8,1.2-1l11.5-2.4l0,0c1.1-0.1,2.1,0.7,2.2,1.9c0.1,1.1-0.7,2.1-1.8,2.3l0,0
				l-11.6,0.5C51.6,191.2,51,190.7,50.9,189.9L50.9,189.9L50.9,189.9z"/>
			<g>
				<path class="st47" d="M77.4,182.2c-1-1-2.6-0.9-3.5,0.1L66,191l0,0c-0.8,0.8-0.7,2.1,0.1,2.9c0.8,0.8,2.1,0.8,2.9,0l0,0l8.4-8.2
					C78.4,184.8,78.4,183.2,77.4,182.2L77.4,182.2L77.4,182.2z"/>
				<path class="st19" d="M71.8,192l6.9-3.2c1.4-0.4,0.8-4.5,0.3-5.9s-4-1.5-5.3-0.9l-4.8,4L71.8,192L71.8,192z"/>
			</g>
			<g>
				<g>
					<circle class="st14" cx="87.3" cy="184.2" r="1.4"/>
					<circle class="st14" cx="75" cy="184.2" r="1.4"/>
				</g>
				<path class="st47" d="M87,182.2c1.3-0.3,2.7,0.6,2.9,2l2,11.6l0,0c0.2,1.1-0.5,2.2-1.6,2.4s-2.2-0.5-2.4-1.6l0,0l-2.7-11.4
					C84.8,183.8,85.7,182.5,87,182.2L87,182.2L87,182.2z"/>
				<path class="st19" d="M86.9,194.8L85,185c-0.3-1.4,0.6-2.8,2-3.1s2.8,0.6,3,2.1l1.7,9.6L86.9,194.8L86.9,194.8z"/>
				<g>
					<circle class="st14" cx="77.4" cy="207" r="2.3"/>
					<circle class="st14" cx="84.5" cy="207" r="2.3"/>
				</g>
				<path class="st72" d="M77.6,203.1c2.3,0,4.1,2,3.9,4.3l-1.2,14.8c-0.1,1.5-1.3,2.7-2.8,2.6c-1.5,0-2.7-1.3-2.7-2.8l-1-14.7
					C73.5,205.1,75.3,203.1,77.6,203.1L77.6,203.1L77.6,203.1z"/>
				<path class="st72" d="M84.5,203.1c2.3-0.2,4.2,1.7,4.2,4v14.8c0.1,1.5-1.1,2.8-2.6,2.9c-1.5,0.1-2.8-1.1-2.9-2.6l-2.3-14.5
					C80.5,205.4,82.2,203.3,84.5,203.1C84.5,203.1,84.5,203.1,84.5,203.1z"/>
				<g>
					<path class="st72" d="M87.8,196.8l0.8,8.2c0.1,0.6,0.1,1.2-0.1,1.8c-0.4,2.1-1.9,4.8-3.8,4.8l-5.9,0v-14.7
						C79,196.8,87.8,196.8,87.8,196.8z"/>
					<path class="st72" d="M74.5,196.8l-0.8,8.2c-0.1,0.6-0.1,1.2,0.1,1.8c0.4,2.1,1.9,4.8,3.8,4.8l5.9,0v-14.7
						C83.4,196.8,74.5,196.8,74.5,196.8z"/>
				</g>
				<path class="st14" d="M83.1,244.6L83.1,244.6c0.9,0.1,1.7-0.4,1.8-1.3l1.1-5.8c0.2-0.9-0.4-1.7-1.3-1.9l0,0
					c-0.9-0.2-1.7,0.4-1.8,1.3l-1.1,5.8C81.7,243.6,82.3,244.4,83.1,244.6L83.1,244.6z"/>
				<path class="st14" d="M78.5,244.3L78.5,244.3c0.9,0,1.6-0.7,1.6-1.6v-5.9c0-0.9-0.7-1.6-1.6-1.6l0,0c-0.9,0-1.6,0.7-1.6,1.6v5.9
					C76.9,243.5,77.6,244.3,78.5,244.3z"/>
				<g>
					<path class="st18" d="M78.4,179.2C78.4,179.2,78.5,179.2,78.4,179.2C78.5,179.2,78.4,179.2,78.4,179.2z"/>
					<path class="st18" d="M78.5,179.2L78.5,179.2L78.5,179.2z"/>
				</g>
				<path class="st72" d="M83.2,221.7c0.2-1.5,1.6-2.5,3-2.4s2.6,1.5,2.5,3l-2.4,18.9l-4.7-0.5L83.2,221.7L83.2,221.7z"/>
				<path class="st72" d="M74.7,222.5c0-1.5,1.1-2.7,2.6-2.8s2.8,1,2.9,2.5l0.7,19l-4.7,0.2C76.2,241.5,74.7,222.5,74.7,222.5z"/>
				<path class="st19" d="M73.7,182c2.2-1,5.4-1.8,6.9-2.2h0.8c1.5,0.5,4.7,1.2,6.9,2.2c2,1-0.2,14.3-0.2,17.5c0,0-2.9,1.3-6.7,1.4
					l0,0c-0.1,0-0.2,0-0.4,0s-0.2,0-0.4,0l0,0c-3.8-0.1-6.7-1.4-6.7-1.4C74,196.3,71.7,182.9,73.7,182L73.7,182z"/>
				<path class="st6" d="M80.7,178.8l2.9,1.8c1.5,0.9-2.9,3.1-2.9,3.1s-4-1.9-2.8-2.7C77.8,180.9,80.7,178.8,80.7,178.8z"/>
				<path class="st6" d="M78.3,182.2l4.7,0v-7.2c0-1.1-1.1-1.9-2.4-1.9l0,0c-1.3,0-2.4,0.9-2.4,1.9L78.3,182.2L78.3,182.2z"/>
				<path class="st13" d="M78.3,179.8v1.6c0.9,1.4,2.4,2.2,2.4,2.2l-4.5-2.5C76.2,181.1,77.1,180.3,78.3,179.8z"/>
				<path class="st13" d="M83,179.8v1.6c-0.9,1.4-2.3,2.2-2.3,2.2l4.4-2.5C85.1,181.1,84.2,180.3,83,179.8z"/>
				<g>
					<path class="st34" d="M81.3,245.1l0.5-2.3h3.3l0.6,1.5c0.6,0.5,0.8,1.1,0.8,1.8h-0.2h-5.1V245.1z"/>
					<circle class="st34" cx="83.4" cy="243.2" r="1.5"/>
				</g>
				<g>
					<path class="st34" d="M80.6,245.1l-0.5-2.3h-3.3l-0.6,1.5c-0.6,0.5-0.8,1.1-0.8,1.8h5.2V245.1z"/>
					<circle class="st34" cx="78.4" cy="243.1" r="1.5"/>
				</g>
				<path class="st6" d="M83.7,173.8c-0.2,0-0.3,0-0.5,0.1c0,0.9-0.1,1.9-0.2,2.7c0.9,0.2,1.2-1.2,1.2-1.8
					C84.3,174.2,84.2,174,83.7,173.8z"/>
				<path class="st6" d="M77.5,170.8c0.2-0.2,1.1-1.6,2.7-1.6l0,0l0,0l0,0l0,0c1.6,0,2.5,1.4,2.7,1.6c1,1.5,0.7,5.1,0.1,6.6
					c-0.3,0.8-3.3,2.9-4.7,2.1c-0.6-0.3-0.6-0.8-0.8-1.6c-0.5-1.8-0.7-2.1-0.2-3.2c0.1-0.2-0.3-0.4-0.3-0.6
					C76.8,172.6,77,171.6,77.5,170.8L77.5,170.8z"/>
				<path class="st73" d="M76.9,173.5c0,0-0.4-1.6,0.4-2.1c0,0-0.5-1.4,1-2s4.7-0.5,5.8,2.7c0,0,0.3,1-0.1,1.8c0,0-1.1,0.1-1.2,1
					h-0.2c0,0-0.1-1.3-0.6-1.5s0.1-1-0.4-1.5c-0.2-0.2-0.8-0.9-1.8-0.4s-1.7,0.5-2.3,0C77.5,171.6,76.9,172.6,76.9,173.5L76.9,173.5
					z"/>
				<g>
					<path class="st73" d="M78,177c0.7-0.6,1.4-0.7,2.3-0.3c0.2,0.1,0.3,0.5,0.4,0.7c0,0.2-0.3-0.1-0.4-0.1c-0.1,0-0.3-0.2-0.3-0.1
						c-0.1,0-0.3,0-0.5,0.1c-0.5,0.2-1,0.1-1.5-0.2C77.9,177.1,77.9,177.1,78,177L78,177L78,177z"/>
					<path class="st73" d="M79.1,177.1c-0.2,0.2-0.4,0.3-0.6,0.3c-0.3,0.1-0.6-0.1-0.9-0.1c0,0-0.2,0-0.3,0.1c0,0-0.1,0.1-0.1,0
						c-0.3-0.5,0.4-0.8,0.8-0.9C78.5,176.4,78.8,176.6,79.1,177.1C79.1,177,79.1,177,79.1,177.1L79.1,177.1L79.1,177.1z"/>
				</g>
			</g>
			<g>
				<path class="st14" d="M81.7,190.6l2.9,0c0.3,0,0.5,0.2,0.5,0.5l-0.5,6.1l0,0c0,0,0,0,0,0l0,0c0,0.3-0.7,0.6-1.6,0.5
					s-1.5-0.3-1.5-0.7l0,0v0l0,0l-0.3-6C81.2,190.9,81.4,190.6,81.7,190.6L81.7,190.6z"/>
				<path class="st47" d="M86.2,197.6l0.3-1.6l-0.9-1.9l-1.3-0.4l-0.6,0.2c-0.2,0.1-0.3,0.3-0.3,0.5l0,0c0.1,0.2,0.2,0.3,0.4,0.3
					l0.8,0l0.1,0.3l-1.8,0.4c-0.2,0-0.3,0.2-0.3,0.5l0,0c0,0.2,0.2,0.4,0.4,0.4l0.8,0l-1.4,0.2c-0.2,0-0.3,0.2-0.3,0.4l0,0
					c0,0.2,0.2,0.4,0.4,0.4l1.4,0l-1,0.1c-0.2,0-0.3,0.2-0.3,0.4l0,0c0,0.2,0.2,0.3,0.4,0.4c0.4,0,1,0,1.3-0.1c0,0,1,0.8,1.7,0.4
					S86.2,197.6,86.2,197.6L86.2,197.6z"/>
				<path class="st47" d="M85.7,196.2c0,0,5-2,6.1-1.2c0,0,0.9,2.6-0.4,3.5c0,0-4.8,1.1-6.2,0.1S85.7,196.2,85.7,196.2z"/>
			</g>
			<g>
				<rect x="55.8" y="235.6" class="st74" width="2.7" height="9"/>
				<path class="st75" d="M55,244.4l0.6-1.5v-1.1c0-0.9,0.7-1.6,1.6-1.6l0,0c0.9,0,1.6,0.7,1.6,1.6v1.1l0,0l0.5,2.2v1h-5h-0.2
					C54.2,245.5,54.4,244.8,55,244.4L55,244.4z"/>
				<rect x="63.6" y="235.6" class="st74" width="2.7" height="9"/>
				<path class="st75" d="M67.1,244.4l-0.6-1.5v-1.1c0-0.9-0.7-1.6-1.6-1.6l0,0c-0.9,0-1.6,0.7-1.6,1.6v1.1l0,0l-0.5,2.2v1h5H68
					C68,245.5,67.8,244.8,67.1,244.4L67.1,244.4z"/>
				<path class="st74" d="M68.2,184.8c1.6,0,2.4,1.3,2.3,2.9l-0.3,10.8l0,0c-0.1,1.3-1.1,2.3-2.4,2.2s-2.1-1.2-2.1-2.5l-0.4-10.6
					C65.5,186.1,66.8,184.8,68.2,184.8L68.2,184.8L68.2,184.8z"/>
				<path class="st74" d="M69.8,210.2l0.5-11.3c0,0,0.4-3.1-2.3-3c-2.3,0.1-2.1,2.5-2.1,2.5l1.6,12.1L69.8,210.2L69.8,210.2z"/>
				<path class="st48" d="M59.5,210.3c-0.4-2.2,1.2-4.2,3.3-4.5l0,0c2.2-0.3,4.1,1.3,4.3,3.5l1.2,13.6c0.2,1.8-1.1,3.5-2.9,3.7
					c-1.8,0.2-3.5-1-3.7-2.8L59.5,210.3L59.5,210.3z"/>
				<path class="st48" d="M61.7,223.9c0.1-1.8,1.5-3.2,3.3-3.2c1.8,0,3.3,1.4,3.3,3.2l-0.4,18.5l-5.7,0L61.7,223.9L61.7,223.9z"/>
				<path class="st48" d="M60.5,210.4c0.2-2.2-1.4-4.1-3.6-4.3l0,0c-2.2-0.2-4.1,1.5-4.2,3.7l-0.4,13.6c-0.1,1.8,1.3,3.4,3.1,3.5
					s3.4-1.2,3.5-3L60.5,210.4L60.5,210.4z"/>
				<path class="st48" d="M59,223.8c-0.2-1.8-1.8-3.1-3.6-2.9c-1.8,0.1-3.2,1.7-3.1,3.5l1.8,18.4l5.7-0.5
					C59.9,242.2,59,223.8,59,223.8z"/>
				<g>
					<path class="st48" d="M53.5,199.9l-0.8,7.9c-0.1,0.6-0.1,1.1,0,1.7c0.4,2,1.9,4.6,3.7,4.6l5.7,0v-14.3L53.5,199.9L53.5,199.9z"
						/>
					<path class="st48" d="M66.4,199.9l0.8,7.9c0.1,0.6,0.1,1.1-0.1,1.7c-0.4,2-1.9,4.6-3.7,4.6l-5.7,0v-14.3L66.4,199.9L66.4,199.9
						z"/>
				</g>
				<path class="st13" d="M61.9,184.8l-2.5-3l-5.1,2.1c-0.9,0.5-1.2,1.6-1.2,2.6c0.2,5.1-1.1,19.5-0.6,22.6l2.1,0.6
					c4.7,1.5,7.9,1.7,12.6,0.1c0,0,2.4-18,2.6-23.1c0.1-1,0.3-1.4-0.6-1.9l-4.9-3.3L61.9,184.8L61.9,184.8z"/>
				<path class="st74" d="M55.3,185.1c-1.5-0.4-2.7,0.6-3,2.1l-2.7,10.5l0,0c-0.3,1.2,0.4,2.5,1.7,2.8s2.3-0.6,2.7-1.8l3.3-10.1
					C57.6,187,56.8,185.4,55.3,185.1L55.3,185.1L55.3,185.1z"/>
				<path class="st13" d="M55.2,195.9l3.5-7.6c0.7-1.8-0.2-3.8-2-4.4l0,0c-1.8-0.7-3.8,0.2-4.4,2l-2.6,8.2
					C50.4,194.4,54,195.6,55.2,195.9L55.2,195.9z"/>
				<path class="st13" d="M70.5,196.2l0.7-8.3c0-0.1,0-0.2,0-0.3c-0.2-2.9-3.8-4-5.7-1.9c-0.6,0.7-1.1,1.4-1.1,2.2l0.4,8.6
					C65.5,196.5,69.4,196.3,70.5,196.2L70.5,196.2z"/>
				<path class="st74" d="M53.9,210.2l0-11.3c0,0,0.3-3.1-2.4-2.9c-2.3,0.2-2,2.6-2,2.6l2,12.1L53.9,210.2L53.9,210.2z"/>
				<g>
					<line class="st76" x1="52.2" y1="212.8" x2="51" y2="243.9"/>
					<path class="st33" d="M55.5,211.4l-3.9-0.6l-0.2-1.3c0,0-0.4,0-0.5,0.7s-0.5,2.9,0.7,3.3l3.8,0.2L55.5,211.4"/>
					<g>
						<polygon class="st33" points="52,246.1 49.8,246 50.3,243.5 51.7,243.6 						"/>
						<rect x="49.6" y="245.4" class="st33" width="2.5" height="0.7"/>
					</g>
					<path class="st33" d="M55.5,211.4L55.5,211.4c0.3,0,0.6,0.3,0.6,0.6v1.2c0,0.3-0.3,0.6-0.6,0.6h0c-0.3,0-0.6-0.3-0.6-0.6V212
						C54.9,211.7,55.2,211.4,55.5,211.4z"/>
				</g>
				<g>
					<line class="st76" x1="69.8" y1="212.8" x2="71" y2="243.9"/>
					<path class="st33" d="M70.4,210.8l-1.6,0.3l-0.3,0.1l0.3,2.2l1.6,0C71.6,213.1,70.4,210.8,70.4,210.8L70.4,210.8z"/>
					<g>
						<polygon class="st33" points="70,246.1 72.2,246 71.8,243.5 70.3,243.6 						"/>
						<rect x="69.9" y="245.4" class="st33" width="2.6" height="0.7"/>
					</g>
					<path class="st33" d="M68.5,213.6L68.5,213.6c-0.3,0-0.6-0.2-0.6-0.5l-0.2-1.2c0-0.3,0.2-0.6,0.5-0.6h0c0.3,0,0.6,0.2,0.6,0.5
						L69,213C69,213.3,68.8,213.6,68.5,213.6z"/>
				</g>
				<path class="st74" d="M51.6,209.8L51,212l0.1,1.7l2.4,0.9l1.4-0.5l0.2-0.5c0,0-1.2,0.1-1.2-0.7s0.8-1.6,1.5-1.4l0.2-0.1
					l-0.2-0.6l-2.2-1.5l0,0c-0.5-0.5-1.3-0.3-1.6,0.3L51.6,209.8L51.6,209.8z"/>
				<path class="st74" d="M67.8,212.1v1c0,0-0.3,0.5-0.7,0.3s-0.3-2.4-0.3-2.4l0.9-1.2l1.9,0l1.2,1.2c0.3,0.3,0.4,0.6,0.4,1v0.9
					l-1.2,1.2l-1.2,0.1c0,0-0.8-0.4-0.8-0.8l0.8-0.1c0.2,0,0.4-0.2,0.4-0.4c0-0.3,0.1-0.7,0-1c-0.2-0.5-1-0.6-1.2-0.5
					S67.8,212.1,67.8,212.1L67.8,212.1z"/>
				<g>
					<path class="st33" d="M51.5,198.2c-0.6,0-1.2,0.2-2,0.4l0,0l0.4,2.2c0.4-0.2,1-0.4,1.8-0.5L51.5,198.2L51.5,198.2z"/>
					<path class="st33" d="M53.9,198.4c-0.2-0.1-0.5-0.1-0.8-0.2l0.2,2.1c0.2,0,0.4,0.1,0.6,0.1v-1.6
						C53.9,198.9,53.9,198.7,53.9,198.4L53.9,198.4z"/>
				</g>
				<path class="st33" d="M69,198.8v2.1h1.2l0.1-1.9c0,0,0-0.1,0-0.2H69z"/>
				<g>
					<path class="st74" d="M62.2,184.8h-0.6c-1.1,0-1.9-2.1-1.9-2.4v-2.1h4.4v2.1C64.2,182.7,63.3,184.8,62.2,184.8z"/>
					<path class="st74" d="M63.9,182.3l-4.2,0.1l-0.6-5.7c0-0.9,1.3-1.9,2.4-1.9l0,0c1.2,0,2.1,0.6,2.1,1.5
						C63.8,176.2,63.9,182.3,63.9,182.3z"/>
					<path class="st74" d="M59,176.2c0.4,0,0.7,0.5,0.8,0.6c0,0.7-0.1,1.2,0,1.3c-0.3,0.2-0.5,0.7-0.8-0.1
						C58.6,177.4,58.2,176.2,59,176.2L59,176.2z"/>
					<g>
						<path class="st12" d="M59.7,180.9c0,0-2.4,0.9-2.1,3l1.8-1c0,0,0.6,1.1,1.7,1.8c1.1,0.7,0.7-0.1,0.7-0.1
							S59.7,182.7,59.7,180.9L59.7,180.9z"/>
						<path class="st12" d="M64.2,181c0,0,1.8,0.7,2.1,3l-1.8-1c0,0-0.6,1.1-1.7,1.8c-1.1,0.7-0.7-0.1-0.7-0.1S64.2,182.8,64.2,181
							L64.2,181z"/>
						<path class="st74" d="M65.6,176.7c0-0.5-0.1-0.9-0.2-1.4c-0.4-1.6-1.4-2.6-3-2.8c-1.5-0.1-3,0.2-3.7,1.7
							c-0.7,1.5-0.1,3.4,1.3,4.2c0,0.6,0.4,1.2,0.9,1.6s1,0.7,1.6,1c0.6,0.3,1.2,0.5,1.8,0.3c0.7-0.3,0.9-1.2,1.1-2
							C65.5,178.4,65.6,177.5,65.6,176.7L65.6,176.7z"/>
						<path class="st77" d="M62.2,171.6c-0.6,0-1.1,0.2-1.5,0.5c-0.8,0.2-1.5,0.6-2,1.3c-0.9,1.3-0.2,3.2-0.2,3.2
							c0.2,0.1,0.4-0.7,1.4,0.2c0,0,0.3,0,0.3,0c0-0.3,0.1-1.1-0.1-1.6c-0.3-1.1,0.5-1.9,0.5-1.9l0.2,0.1c0.2,0.1,0.4,0.1,0.5,0
							c0.3-0.2,1-0.4,1.6-0.5c0.6,0,1,0.3,1.4,0.4c0,0,0,0,0,0c0.4,0.3,0.7,0.8,0.8,1.1C65.3,172.7,63.9,171.5,62.2,171.6
							L62.2,171.6z"/>
						<path class="st12" d="M62,185c-0.4,0-0.6-0.2-0.6-0.2l0.2-0.4c0,0,0.4,0.3,0.8,0l0.2,0.4C62.4,184.9,62.2,185,62,185L62,185z"
							/>
					</g>
				</g>
			</g>
		</g>
		<g>
			<path class="st78" d="M271,154.9c0,1.5-1.2,1.5-1.1,3s1.2,1.5,1.2,3s-1.2,1.5-1.1,3c0,1.5,1.2,1.5,1.2,3s-1.2,1.5-1.1,3"/>
			<path class="st78" d="M271,153.9c0,1,0.8,1.1,0.8,2.1c0,1-0.9,1-0.9,2.1s0.8,1.1,0.8,2.1s-0.9,1-0.9,2.1s0.8,1.1,0.8,2.1"/>
			<line class="st78" x1="272.6" y1="90.1" x2="271" y2="150.6"/>
			<polyline class="st78" points="263.2,99 270.8,149.9 270.8,153.9 270.8,149.9 261.7,119 			"/>
			<g>
				<polygon class="st19" points="261.6,118.4 262.7,119.8 261.3,120.2 				"/>
				<path class="st19" d="M250.9,109.6c1.1,4.4,6.4,10.5,10.8,9.4c4.4-1.1,6.1-9.1,5-13.4c-1.1-4.4-5.5-7-9.9-5.9
					S249.8,105.3,250.9,109.6L250.9,109.6z"/>
			</g>
			<polyline class="st78" points="279.5,106.3 271,150.6 271,155.3 			"/>
			<g>
				<polygon class="st79" points="272.7,89.5 273.3,91.2 271.8,91.1 				"/>
				<path class="st79" d="M265.1,77.9c-0.2,4.5,3,12,7.5,12.2c4.5,0.2,8.5-6.9,8.8-11.3c0.2-4.5-3.2-8.3-7.7-8.6
					S265.4,73.4,265.1,77.9L265.1,77.9z"/>
			</g>
			<g>
				<polygon class="st9" points="279.6,105.7 280.1,107.4 278.6,107.2 				"/>
				<path class="st9" d="M272.8,93.6c-0.6,4.5,2.2,12.1,6.6,12.7c4.5,0.6,9-6.2,9.5-10.7c0.6-4.5-2.6-8.5-7.1-9.1
					C277.4,86,273.4,89.2,272.8,93.6L272.8,93.6z"/>
			</g>
			<g>
				<polygon class="st4" points="263.1,98.4 264.1,99.9 262.7,100.1 				"/>
				<path class="st4" d="M253.1,88.9c0.8,4.4,5.7,10.9,10.1,10.1s6.7-8.6,5.9-13.1s-5.1-7.3-9.5-6.5
					C255.2,80.2,252.2,84.5,253.1,88.9L253.1,88.9z"/>
				<path class="st34" d="M260.6,101.9c0.1,4.5,3.9,11.7,8.4,11.6c4.5-0.1,8-7.5,7.9-12c-0.1-4.5-3.8-8-8.3-8
					C264.1,93.6,260.5,97.4,260.6,101.9L260.6,101.9z"/>
			</g>
			<line class="st78" x1="269" y1="113.4" x2="271" y2="152.4"/>
			<polygon class="st34" points="269,112.9 269.8,114.5 268.3,114.5 			"/>
			<path class="st32" d="M268.3,155.5c0,0,0.5-0.8,0.6-1.2c0-0.1,0.1-0.3,0.2-0.5c0.2-0.5,0.5-1,0.9-1.3c0.6-0.6,1.5-1.5,1.6-1.9
				c0,0,0.4,0.2,0.2,0.9c0,0,0.8-0.1,0.8,0.4c0,0-0.2,0.4-0.3,0.5s0.5,0.2,0.5,0.5s-0.4,0.4-0.4,0.4s0.3,0.4,0.1,0.7
				c0,0,0.2,0.7-0.1,1.1s-2.3,0.9-2.8,0.9S268.2,155.5,268.3,155.5L268.3,155.5z"/>
		</g>
		<g>
			<g>
				<path class="st80" d="M171.7,204.7L171.7,204.7c0.6-0.4,1.5-0.1,1.8,0.5l2.1,3.8c0.4,0.6,0.1,1.5-0.5,1.8l0,0
					c-0.6,0.4-1.5,0.1-1.8-0.5l-2.1-3.8C170.8,205.8,171,205,171.7,204.7z"/>
				<path class="st39" d="M172.8,185.1c-1.3-0.5-2.8,0.2-3.2,1.6l-3.4,10.9l0,0c-0.4,1.1,0.2,2.3,1.3,2.6s2.3-0.2,2.7-1.2l0,0
					l4.2-10.6C174.8,187.1,174.1,185.6,172.8,185.1L172.8,185.1L172.8,185.1z"/>
				<path class="st39" d="M170,197.7c-0.6-1-1.8-1.3-2.9-0.8s-1.4,1.8-0.8,2.8l0,0l5.2,9.3c0.6,1,1.9,1.4,2.9,0.8
					c1-0.6,1.4-1.9,0.8-2.9L170,197.7L170,197.7L170,197.7z"/>
			</g>
			<path class="st80" d="M172.4,235.9L172.4,235.9c0.9,0,1.7,0.8,1.7,1.7v5.6c0,0.9-0.8,1.7-1.7,1.7h0c-0.9,0-1.7-0.8-1.7-1.7v-5.6
				C170.7,236.7,171.5,235.9,172.4,235.9z"/>
			<g>
				<path class="st75" d="M170.5,242.7c-0.2,0.8-0.6,2.2-0.2,3.2h6.9c0,0,0.6-0.3,0.4-1.2l-2.6-1.4l-1.1-1.6c0,0-0.7,0.5-0.4,1.1
					l0,0c-0.8,0.1-1.6,0-2.3-0.4l-0.1,0C170.9,242.3,170.6,242.4,170.5,242.7L170.5,242.7z"/>
				<path class="st19" d="M173.1,245c-0.6-0.7-2.5-0.9-3-0.9c-0.1,0.4-0.1,0.7,0,1.1c0,0.1,0,0.1,0,0.2c0,0,0,0,0,0l0,0
					c0,0.1,0.1,0.3,0.1,0.4h6.9c0,0,0.3-0.2,0.4-0.5C175.9,245.2,174.9,245.1,173.1,245L173.1,245z"/>
				<path class="st75" d="M170.7,244.9h1.7c0.1,0,0.2,0.1,0.2,0.2v0.1c0,0.1-0.1,0.2-0.2,0.2h-1.7c-0.1,0-0.2-0.1-0.2-0.2v-0.1
					C170.5,244.9,170.6,244.9,170.7,244.9z"/>
			</g>
			<path class="st9" d="M178.1,223.7l2.4-14.9c0.2-2.5-3.1-4.6-5.5-4.7l0,0c-2.4-0.1-5.1,2-5,4.5l1.3,14.8c0.1,1.8,1.4,3.2,3.1,3.2
				l0,0C176.2,226.8,177.9,225.4,178.1,223.7L178.1,223.7z"/>
			<path class="st9" d="M178.1,223.9c0.2-1.8-1.2-3.5-2.9-3.8c-1.7-0.3-3.3,0.9-3.7,2.7l-1.7,17.3l5.2,0.1L178.1,223.9L178.1,223.9z
				"/>
			<path class="st80" d="M178.4,235.9L178.4,235.9c0.9,0,1.7,0.8,1.7,1.7v5.6c0,0.9-0.8,1.7-1.7,1.7h0c-0.9,0-1.7-0.8-1.7-1.7v-5.6
				C176.7,236.7,177.5,235.9,178.4,235.9z"/>
			<g>
				<path class="st75" d="M176.5,242.7c-0.2,0.8-0.6,2.2-0.2,3.2h6.9c0,0,0.6-0.3,0.4-1.2l-2.6-1.4l-1.1-1.6c0,0-0.7,0.5-0.4,1.1
					l0,0c-0.8,0.1-1.6,0-2.3-0.4l-0.1,0C176.9,242.3,176.6,242.4,176.5,242.7L176.5,242.7z"/>
				<path class="st17" d="M179.1,245c-0.6-0.7-2.5-0.9-3-0.9c-0.1,0.4-0.1,0.7,0,1.1c0,0.1,0,0.1,0,0.2c0,0,0,0,0,0l0,0
					c0,0.1,0.1,0.3,0.1,0.4h6.9c0,0,0.3-0.2,0.4-0.5C181.9,245.2,180.9,245.1,179.1,245L179.1,245z"/>
				<path class="st75" d="M176.7,244.9h1.7c0.1,0,0.2,0.1,0.2,0.2v0.1c0,0.1-0.1,0.2-0.2,0.2h-1.7c-0.1,0-0.2-0.1-0.2-0.2v-0.1
					C176.5,244.9,176.6,244.9,176.7,244.9z"/>
			</g>
			<path class="st9" d="M184.1,223.7l2.4-14.9c0.2-2.5-3.1-4.6-5.5-4.7l0,0c-2.4-0.1-5.1,2-5,4.5l1.3,14.8c0.1,1.8,1.4,3.2,3.1,3.2
				l0,0C182.2,226.8,183.9,225.4,184.1,223.7L184.1,223.7z"/>
			<path class="st9" d="M184.1,223.9c0.2-1.8-1.2-3.5-2.9-3.8c-1.7-0.3-3.3,0.9-3.7,2.7l-1.7,17.3l5.2,0.1L184.1,223.9L184.1,223.9z
				"/>
			<g>
				<circle class="st14" cx="182.9" cy="208.3" r="2.2"/>
				<circle class="st14" cx="174" cy="208.3" r="2.2"/>
			</g>
			<g>
				<circle class="st14" cx="171.6" cy="187.3" r="1.3"/>
				<circle class="st14" cx="181.1" cy="187.3" r="1.3"/>
			</g>
			<path class="st80" d="M179.3,184.5l-4.1,0v-7c0-1,0.9-1.9,2-1.9l0,0c1.1,0,2,0.8,2,1.9L179.3,184.5L179.3,184.5z"/>
			<path class="st80" d="M177,181.3l-4.4,2.7c-1.9,1.3-1.7,4.2,0.1,5.7l4.9,4l4.1-4c1.6-1.5,1.5-4.2-0.4-5.5L177,181.3L177,181.3z"
				/>
			<g>
				<path class="st9" d="M174.2,213.3c1.9,0,3.5-1,3.8-2.4c0.1-0.6,0.2-1.2,0.2-1.8c0-3.2-1.8-5.9-4-5.9s-4,2.6-4,5.9
					c0,0.6,0.1,1.2,0.2,1.8C170.6,212.3,172.3,213.3,174.2,213.3L174.2,213.3z"/>
				<path class="st9" d="M182.4,213.3c1.9,0,3.5-1,3.8-2.4c0.1-0.6,0.2-1.2,0.2-1.8c0-3.2-1.8-5.9-4-5.9s-4,2.6-4,5.9
					c0,0.6,0.1,1.2,0.2,1.8C178.8,212.3,180.5,213.3,182.4,213.3L182.4,213.3z"/>
				<rect x="174.1" y="203.3" class="st9" width="8.3" height="10.1"/>
			</g>
			<path class="st34" d="M185.7,191.5c-0.6-2.3-1.5-4.4-3-6.2c-0.9-1.1-1.8-1.9-2.7-2.1h0l-6.5,0.2c-1.6,0.5-3.5,1.2-4,2.4
				c-1.1,2.5,0.5,24.8,0.5,24.8c7,3.3,16.5,0.2,16.5,0.2S187,197.2,185.7,191.5L185.7,191.5z"/>
			<path class="st39" d="M169.9,208.3c0.1,1.4,0.1,2.2,0.1,2.2c7,3.3,16.5,0.2,16.5,0.2s0-1,0.1-2.5
				C183.1,209,176.1,210.2,169.9,208.3z"/>
			<g>
				<path class="st80" d="M194.9,180.1l0.3-2.2l0.5-1.2c0,0,0-0.1,0.1-0.1l0.9-0.8c0.1-0.1,0.4-0.1,0.5,0l0,0c0.1,0.1,0.1,0.3,0,0.5
					l-0.6,0.6c0,0-0.1,0.1-0.1,0.1l-0.2,0.9l0.4-1l0.7-0.5c0.1-0.1,0.3-0.1,0.4,0l0,0c0.1,0.1,0.1,0.3,0,0.4l-0.5,0.5l-0.3,0.8
					l0.5-0.8l0.2-0.2c0.1-0.1,0.3-0.1,0.4,0l0,0c0.1,0.1,0.1,0.3,0,0.4l-0.3,0.3l-0.3,0.9l0.5-0.7l0.2-0.2c0.1-0.1,0.3-0.1,0.4,0
					l0,0c0.1,0.1,0.1,0.2,0.1,0.3l-0.2,0.4l-0.8,2.1l-0.1,0.2c-0.4,0.9-1.6,1.1-2.2,0.3c0,0,0,0-0.1-0.1
					C195,180.8,194.9,180.5,194.9,180.1L194.9,180.1z"/>
				<path class="st34" d="M176.6,188.5c-0.1,1.4,1.9,5.9,3.3,6c0,0,11.4-2,12.1-2.9c1.6-2.2-0.2-3.6-1.3-3.8l0,0l-10.6-3.3
					C178.7,184.4,176.8,187.1,176.6,188.5L176.6,188.5L176.6,188.5z"/>
				<path class="st39" d="M177.6,188.4c-1,1-4.5,2.2-6.5-0.4c-0.9-1.2-0.9-3.1-0.6-4.7c-0.6,1.8-1,4.5,0.2,6.1
					c2,2.6,5.5,1.4,6.5,0.4c1-1,3.5-4.9,3.5-4.9C179.8,186,178.3,187.7,177.6,188.4L177.6,188.4z"/>
				<path class="st34" d="M187.1,187.8c-0.6,1,0.3,3.8,1.3,4.3s3,0.5,3.6-0.5l5.3-8.5c0.6-1,0.2-2.3-0.8-2.9s-2.3-0.2-2.9,0.8
					L187.1,187.8L187.1,187.8z"/>
			</g>
			<path class="st80" d="M179.9,176.8c-0.1-0.1-0.4-0.8-0.5-0.9c-0.5-1-2.2-2.9-5.1-1.2c-1.8,1-2.6,2.8-1.3,4.8
				c0.8,1.4,2.3,1.7,3.8,2.6c1.4,0.5,3.7,0.1,4-1.1c0.1-0.5-0.2-1.1-0.2-1.6C180.7,178.4,180.8,177.7,179.9,176.8L179.9,176.8z"/>
			<path class="st33" d="M175,173.1c-3,1-3.1,3.6-3.2,4c-0.4,3.2,1.2,6.9,1.6,6.9c3.9-0.6,7.6-0.2,3.7-5.8c-0.3-0.5,1.3,0.8,0.5-1.3
				c1.8-0.5,2-1.1,2-1.1C178.7,173.9,176.7,172.5,175,173.1L175,173.1z"/>
			<path class="st80" d="M178.5,178c0.3,0.5,0.6,1,0.2,1.3c-0.7,0.6-1.6-0.5-1.9-1s-0.4-0.7,0-1S178.1,177.5,178.5,178L178.5,178z"
				/>
			<path class="st34" d="M181.5,184l-1.7-2.5c0,0-6.8-2.1-8.2-1.6c0,0-2.5,5.5-0.5,8.1c2,2.6,5.5,1.4,6.5,0.4S181.5,184,181.5,184
				L181.5,184z"/>
		</g>
		<g>
			<path class="st15" d="M240.5,201.2c-0.5-0.7-1.7-1-2.5-0.7l-3.5,0.8c-2.1,0.6-2.1,3.3-0.9,5.1l3.2,4.9l4.7-2.4
				c1.8-0.9,2.4-3.3,1.1-4.9L240.5,201.2L240.5,201.2z"/>
			<g>
				<path class="st15" d="M240.2,195.4L240.2,195.4c1.2,0.2,2.1,1.3,1.9,2.5l-0.8,5.9l-4.4-0.6l0.8-5.9
					C237.8,196.2,238.9,195.3,240.2,195.4L240.2,195.4z"/>
				<g>
					<path class="st15" d="M242.8,194.3c-0.1-0.2-1-0.8-2.6-0.9l-0.5,0c-3.3,0.4-2.6,3.9-1.9,5.8c0.3,0.7,3,3.5,4.6,3.1
						c0.5-0.1,0.5-0.9,0.9-1.6c0.6-1.1,0.6-1.9,0.2-3c-0.1-0.2,0.4-0.7,0.3-1.1c0-0.1,0-0.1,0-0.2
						C243.7,196.2,243.3,194.9,242.8,194.3L242.8,194.3z"/>
					<path class="st81" d="M237.2,196.8c-0.1,0-0.2,0-0.2,0c0-1.9,0.7-3.4,2.8-3.6l0.5,0c1.6,0.1,2.7,0.8,2.8,1c0,0,0,0,0,0.1
						c0.1,0.1-0.1,0.3-0.2,0.2c-2.8-0.7-3.6,0.1-3.6,0.1c-1.2,0.7-0.3,1.4-0.7,1.6c-0.6,0.4-0.2,1.5-0.2,2.1c0,0.2-0.3,0.1-0.4,0.1
						C237.9,198.1,237.4,196.9,237.2,196.8L237.2,196.8z"/>
					<path class="st15" d="M237.2,196.8c0.1,0,0.2,0,0.2,0.1c0.3,0.2,0.6,0.6,0.6,1c0,0.6,0,0.9,0.2,1.5c-1,0.2-1.4-1.1-1.5-1.8
						S236.8,196.7,237.2,196.8L237.2,196.8z"/>
				</g>
			</g>
			<path class="st15" d="M238.4,246.1L238.4,246.1c-0.9,0-1.6-0.6-1.7-1.5l-0.3-5.9c-0.1-0.9,0.6-1.6,1.5-1.7l0,0
				c0.9,0,1.6,0.6,1.7,1.5l0.3,5.9C239.9,245.3,239.3,246.1,238.4,246.1L238.4,246.1z"/>
			<path class="st33" d="M236.7,244.3v2.5h7c0,0,0.5-1.9-1.6-1.8l-1-0.5l-0.5-1.4c0,0-2.1-0.8-2.6,0.5
				C237.9,243.6,236.7,243.3,236.7,244.3L236.7,244.3z"/>
			<path class="st9" d="M248.4,226c0,0-9.3,0-11.9-0.7s-3.4-2.9-2.7-4c0.7-1.1,3.1-3.3,3.1-3.3l11.7,0.3c0,0,5.3,0.3,5,5.4
				L248.4,226L248.4,226z"/>
			<path class="st9" d="M243.1,223.8c0.3-2-1-3.9-2.9-4.3s-4,0.8-4.4,2.8l-0.2,21l5.4-1.3L243.1,223.8L243.1,223.8z"/>
			<path class="st9" d="M237.5,226.1c0,0-7.7,0.8-10.3,0.1s-3.4-4.1-2.7-5.2c0.7-1.1,3.1-3.3,3.1-3.3l11.7,0.3c0,0,5.3,0.3,5,5.4
				L237.5,226.1L237.5,226.1z"/>
			<path class="st39" d="M244.3,206.8c0.2-1.5-2.1-3.6-2.7-4.1c0,0,0.2,3.6-1.3,2.1l-3.9-4c-1.7,0-4.7,0.5-4.9,0.8
				c-6.7,9.9-7.7,20.8-7.7,20.8c7.1-4.9,16.5-3.8,16.5-3.8S242.8,218.8,244.3,206.8L244.3,206.8z"/>
			<path class="st39" d="M251.2,219.6c0.6-0.1,0.5-2.6-2.3-5.1c-0.7-0.6-2.8-8.9-3.8-9.4c-1.8-1-2.7,6.5-2.5,7l2.8,5.7l1.6,2
				C247.5,220.3,251.4,220.2,251.2,219.6L251.2,219.6z"/>
			<g>
				<path class="st15" d="M249.2,245L249.2,245c-0.8,0-1.5-0.6-1.5-1.4v-5.1c0-0.8,0.6-1.4,1.5-1.4l0,0c0.8,0,1.5,0.6,1.5,1.4v5.1
					C250.6,244.3,250,245,249.2,245L249.2,245z"/>
				<path class="st9" d="M253.6,223.7c0.3-2-1-3.9-2.9-4.3s-4,0.8-4.4,2.8l-0.1,19.1l6.5-0.6L253.6,223.7L253.6,223.7z"/>
				<path class="st15" d="M250.7,245.1L250.7,245.1c-0.4,0.1-0.8-0.1-0.9-0.5l-0.7-2.6c-0.1-0.4,0.1-0.8,0.5-0.9l0,0
					c0.4-0.1,0.8,0.1,0.9,0.5l0.7,2.6C251.3,244.6,251.1,244.9,250.7,245.1z"/>
				<g>
					<path class="st33" d="M246.5,244.8l5.7,2.1l1.7-0.1c0.2,0,0.4-0.2,0.5-0.4c0,0,0,0,0,0c0.1-0.3,0-0.6-0.2-0.7
						c-0.6-0.1-2-0.7-2.8-2.7c0,0-0.7,0.5-0.4,1.4l-3.3-2.5C247.6,241.7,246.2,244.1,246.5,244.8L246.5,244.8z"/>
					<path class="st33" d="M253.9,246.7c0.2,0,0.4-0.2,0.5-0.4c0,0,0,0,0,0c0-0.1,0-0.1,0-0.2l-2.2,0l-5.7-2.1
						c-0.1,0.3-0.1,0.5-0.1,0.7l5.7,2.1L253.9,246.7L253.9,246.7z"/>
				</g>
			</g>
			<path class="st15" d="M249.1,219.9l-1.7,1.8c0,0-0.6,2.1-0.8,2.2c0,0,0,0.6,0.4,0.2s1.1-1.5,1.1-1.5s0.2,1.9-0.2,2.6
				c0,0-0.3,0.9,0.2,0.9s0.8-1.4,0.8-1.4s-0.7,2-0.5,2s1.1-1.1,1.1-1.1s-0.2,0.5,0.1,0.5s1.3-1.4,1.3-1.4s0.4-1.4,0.3-2.1
				s0-2.7,0-2.7S249.8,218.8,249.1,219.9L249.1,219.9z"/>
			<path class="st15" d="M248.8,220.9l-1.1-1c0,0,0.4-2.6,2.2-2s1.5,2.5,1.5,2.5L248.8,220.9z"/>
			<path class="st39" d="M232.1,204c-1.7,0.9-2.4,2.9-1.5,4.6l4.5,8.5l0,0c0.8,1.5,2.6,2.1,4.2,1.4c1.5-0.8,2.2-2.6,1.4-4.1l0,0
				l-4-8.7C235.9,203.9,233.9,203.2,232.1,204L232.1,204L232.1,204z"/>
			<g>
				<path class="st34" d="M240.9,205.1c0,0,0.4-1.2,0.8-2.5C241.7,202.7,242.8,204.9,240.9,205.1z"/>
				<path class="st82" d="M241,209l1.7-3.4c0,0-1-1.2-0.8-2s0-1.5-0.2-2s1-0.5,1,1.5l1-1V201c0,0,0.7,0,0.8,0.3s0.2,0.6,0.2,0.6
					l0.4-0.4c0,0,0.4,0.5,0.4,0.8l0.2,0.7c0,0,0.3-0.1,0.4,0.1s0,0.6,0,0.6s0.6,0.2,0.5,0.5s-0.8,1.8-1.2,2s-2,5.5-2.3,6.2
					S241,209,241,209L241,209z"/>
				<path class="st39" d="M243.9,206.7c-1.2-0.7-2.7-0.4-3.4,0.6l-4.9,7.2l0,0c-0.8,1.4-0.2,3.2,1.2,4.1s3.3,0.5,4.1-0.9l0,0l4-7.8
					C245.5,208.9,245.1,207.4,243.9,206.7L243.9,206.7L243.9,206.7z"/>
				<path class="st34" d="M236.4,200.7c0,0-0.2-1,0.3-1.5c0,0,3.8,3.7,4.2,5.9C240.9,205.1,238.6,204,236.4,200.7z"/>
			</g>
		</g>
		<g>
			<g>
				<g>
					<path class="st83" d="M220.6,204.5c0,0-7,2.1-11.1-0.5l3-1.6l4,0.3L220.6,204.5L220.6,204.5z"/>
					<path class="st83" d="M215.9,206.4l-3.9-0.7l1.2-7.3c0.2-1.1,1.2-1.8,2.3-1.6l0,0c1.1,0.2,1.8,1.2,1.6,2.3L215.9,206.4
						L215.9,206.4z"/>
					<path class="st84" d="M219.9,214.5c0,0-1.8-4.8-2.2-7.7c-0.2-1.5,1.6-3.7,3.5-1.8c1.8,1.9,2.5,10,2.5,10s-0.8,0.6-1.8,0.9
						C220.9,216.1,220.6,215.6,219.9,214.5z"/>
					<path class="st85" d="M222.9,220.9l-8.6-4.6l5.2-0.9l1.6,0.5C222.1,217.4,222.7,219.1,222.9,220.9L222.9,220.9z"/>
					<path class="st19" d="M216.8,215.6l2.7,4.8l-9.3,6.1c-2.4-1-0.5-9.1,0.3-10.2L216.8,215.6z"/>
					<path class="st83" d="M224.1,215.3c0,0-1.6,1.3-3.1,0.7l-0.4-1.9l2.8-0.1L224.1,215.3L224.1,215.3z"/>
					<path class="st59" d="M209.4,204.5c3.3,0.8,7.9,0.4,10,0.2c0.5,0.5,0.9,1.1,1.1,1.7c2.1,5,0.6,9.6,0.6,9.6s-3.5,2.2-10.6,0.4
						C210.4,216.4,206.2,209.2,209.4,204.5L209.4,204.5z"/>
					<path class="st59" d="M219.7,204.1l-2.3,1c-1.2,3.2,0.3,4.6,0.3,4.6c2,0.6,5.1-0.9,5.1-0.9
						C222.5,204.7,219.7,204.1,219.7,204.1L219.7,204.1z"/>
					<path class="st83" d="M207.8,214.3c0,0-0.7-4.4-0.5-7.3c0.1-1.5,2.3-4,3.7-1.7c1.4,2.2,0.4,10.3,0.4,10.3s-0.9,0.5-1.9,0.5
						C208.5,216,208.2,215.5,207.8,214.3L207.8,214.3z"/>
					<path class="st83" d="M218.6,213.2c0,0-6.7,3.2-8.3,3.2s-3.2-1.5-1.4-2.6c2.4-1.4,9-2.4,9-2.4S220.6,212.4,218.6,213.2
						L218.6,213.2z"/>
					<line class="st86" x1="216.1" y1="207.4" x2="219.4" y2="211.1"/>
					<path class="st83" d="M220.4,209.8c0,0-0.3-0.6-2-0.3c0,0-0.6,0-0.7,0.5s-0.5,1.9-2.5,2.1c0,0-0.9,1.3,0,2c0,0,1.1,0.2,2.1-0.4
						L220.4,209.8L220.4,209.8z"/>
					<polygon class="st14" points="216.2,215.2 221.5,208.4 228.9,207 223.1,214 					"/>
					<path class="st83" d="M222.9,214.4c0,0,0.2,1,0.9,1c0.7,0,2-2.1,2-2.1s0-1.5-0.6-1.7s-1.5,0-1.5,0s-0.1,0.5,1,0.7l-0.1,0.3
						c0,0-2.1-0.4-2.4,0.2c0,0-0.1,0.1,0.1,0.2c0,0-0.4,0.1-0.2,0.4c0,0-0.1,0.2,0.3,0.3s1.1,0.4,1.1,0.4L222.9,214.4L222.9,214.4z"
						/>
					<path class="st59" d="M209.7,203.8l2.4,1.1c1.2,3.2,0,6,0,6c-2,0.6-4.6-0.3-4.6-0.3C206,205.7,209.7,203.8,209.7,203.8
						L209.7,203.8z"/>
				</g>
				<g>
					<g>
						<path class="st25" d="M219.3,198.4c0,0,0.7-4-3.3-5c-0.8-0.2-1.7-0.1-2.5,0.3c-1.3,0.7-3,3.2-2,7.6c0,0,0.5,0.2,1.6,0.2
							l-0.1-1.7C213,199.6,216.8,197.3,219.3,198.4L219.3,198.4z"/>
						<path class="st83" d="M213.4,198.4l0,1.9c0,0-1-0.5-0.9-2S213.3,198.4,213.4,198.4L213.4,198.4z"/>
						<path class="st83" d="M213.2,198.8c0.1-1.7,1.8-3.4,3.5-3.2c1.5,0.2,2.5,1,2,3.2c-0.1,0.3,0.1,0.6,0.1,1.1
							c0,0.6-0.5,0.9-0.8,1.5c-0.6,1.4-0.8,1.3-1.5,1.2C215,202.4,213,200.9,213.2,198.8L213.2,198.8z"/>
						<path class="st87" d="M217.7,198.4c0,0-0.1,0.5,0,0.8c0.1,0.1,0.1,0.2,0.2,0.3s0.2,0.1,0.3,0.2c0.1,0,0.2,0,0.3,0
							s0.2,0,0.3-0.1s0.2-0.1,0.3-0.2c0.2-0.2,0.3-0.4,0.4-0.7c0,0,0,0,0,0l0-0.2l0,0c0,0,0-0.1,0-0.1v0c0,0,0,0,0,0s0,0,0,0
							c0-0.1-0.1-0.2-0.1-0.2c0,0,0,0-0.1,0h0h0h0l-0.1,0c-0.2,0-0.4,0-0.7,0s-0.4,0-0.7,0.1C217.9,198.2,217.8,198.2,217.7,198.4
							C217.7,198.4,217.7,198.4,217.7,198.4c-0.2-0.1-0.5,0-0.6,0.1c0,0-0.1-0.1-0.1-0.1c-0.1-0.1-0.2-0.2-0.4-0.2
							c-0.3-0.1-0.5,0-0.8,0c-0.3,0-0.5,0-0.8,0.1l-0.1,0h0h0h0c0,0-0.1,0-0.1,0c0,0-0.1,0-0.1,0.1l-1.5-0.3 M214.9,198.3
							c-0.2,0.7,0.1,1.1,0.4,1.3c0.1,0.1,0.2,0.1,0.4,0.2c0.1,0,0.3,0,0.4,0s0.3,0,0.4-0.1c0.1,0,0.3-0.1,0.4-0.2
							c0.1-0.1,0.2-0.2,0.2-0.3c0.1-0.3,0-0.7,0-0.7"/>
					</g>
					<path class="st25" d="M212.3,195.1c0,0-0.9,2.1-0.7,3.8l1.6-0.9c0,0-0.4-0.9-0.2-1.7l0.7,1.6c0,0,1.8,0.1,3.6,0.6l-0.1-3.7
						l-2.7-1L212.3,195.1L212.3,195.1z"/>
				</g>
				<g>
					<g>
						<path class="st88" d="M225.3,235.6L225.3,235.6c0.3-0.5,0.8-0.7,1.3-0.4l2.8,1.5c0.5,0.3,0.7,0.9,0.4,1.3l0,0
							c-0.3,0.5-0.8,0.7-1.3,0.4l-2.8-1.5C225.3,236.6,225.1,236.1,225.3,235.6z"/>
						<path class="st88" d="M224.3,230.2L224.3,230.2c0.8-0.2,1.6,0.3,1.8,1.1l1.1,4.6c0.2,0.8-0.3,1.6-1.1,1.8l0,0
							c-0.8,0.2-1.6-0.3-1.8-1.1l-1.1-4.6C223,231.2,223.5,230.4,224.3,230.2z"/>
						<path class="st19" d="M229.7,236.8L229.7,236.8c0.1,0.1,0.1,0.8-0.2,0.9c-1.6,0.5-5.3-1.3-5.3-1.3l0.1,1.9l2.1,0.4l0-0.3
							c0,0,4.9,1,5.2,1c0,0,1.8-0.2-0.1-1.5C231.4,237.7,229.7,236.8,229.7,236.8L229.7,236.8z"/>
					</g>
					<path class="st83" d="M217.2,237.6L217.2,237.6c0.9,0,1.6,0.7,1.6,1.6v5.1c0,0.9-0.7,1.6-1.6,1.6l0,0c-0.9,0-1.6-0.7-1.6-1.6
						v-5.1C215.7,238.2,216.4,237.6,217.2,237.6z"/>
					<path class="st19" d="M215.1,226.5h-5c0,0-0.6-5.1,2.8-7.9c3.4-2.7,8.4-4.6,10.6-2.1l0.2,3.7L215.1,226.5L215.1,226.5z"/>
					<path class="st19" d="M220.5,223.9c-0.1-1.8-1.5-3.2-3.3-3.2s-2.4,1.4-2.5,3.1l-0.2,17.6l5.6,0L220.5,223.9L220.5,223.9z"/>
					<path class="st19" d="M218.4,219.9c-0.4-1.7,0.7-3.4,2.4-3.9s3.5,0.6,3.9,2.3l3.1,14.2l-5.4,1.3L218.4,219.9L218.4,219.9z"/>
				</g>
			</g>
			<path class="st19" d="M218.9,244.3c-0.4,0.4-1,0.6-1.6,0.6s-1.2-0.2-1.6-0.6c-0.5,0.5-0.9,1.1-0.9,1.9h5
				C219.8,245.4,219.4,244.8,218.9,244.3z"/>
		</g>
		<rect x="253.1" y="188.9" class="st0" width="56.9" height="56.9"/>
	</g>
</g>
</svg>
