<svg width="170" height="45" viewBox="0 0 170 45" fill="none" xmlns="http://www.w3.org/2000/svg">
<path d="M87.7053 8.82409C84.5608 6.73865 80.3115 5.97257 74.66 5.97257H63.9801V41.3966H74.8866C78.7676 41.3966 82.1104 40.9001 84.9008 39.7793C87.7053 38.6302 89.9008 36.8143 91.388 34.1898C92.8753 31.5653 93.6543 28.1605 93.6543 23.8194C93.6543 20.0741 93.1869 16.9956 92.2096 14.5271C91.2181 12.0586 89.7308 10.186 87.7053 8.82409ZM84.8441 29.948C84.32 31.7213 83.4702 33.069 82.1671 34.0054C80.7223 35.0268 78.5552 35.5801 75.8781 35.5801H72.0538V11.8033H75.2691C78.4277 11.8175 80.7648 12.314 82.337 13.4773C83.4843 14.3427 84.2917 15.5344 84.8158 17.1658C85.3399 18.8115 85.5665 20.8685 85.5665 23.4363C85.5665 26.0041 85.3682 28.1888 84.8441 29.948Z" fill="#8993A4"/>
<path d="M98.7111 41.3966H106.799V26.302H116.133V20.5281H106.799V11.8033H121.218V5.97257H98.7111V41.3966Z" fill="#8993A4"/>
<path d="M126.331 41.3966H134.419V5.97257H126.331C126.331 5.97257 126.275 41.3966 126.331 41.3966Z" fill="#8993A4"/>
<path d="M169.972 5.97257H161.856V26.302L146.813 5.97257H140.34V41.3966H148.47V20.5281L163.343 41.3966H169.972V5.97257Z" fill="#8993A4"/>
<path d="M33.4702 42.7443C32.7903 42.4748 32.1105 41.9499 30.2833 38.8714L26.6289 32.8279L22.3371 25.692L21.9688 25.082C22.1813 25.0252 22.3796 24.9543 22.592 24.8834C27.5212 23.1951 30.3966 18.6696 30.3966 12.2289C30.3966 9.03688 29.1076 6.10025 26.6572 3.90132C26.3031 3.6034 25.9348 3.30549 25.5382 3.03594C22.2663 0.865385 17.847 0.0567465 11.9547 0.0567465H0.835672H0.6657C-0.0566795 0.0567465 -0.127501 0.468159 0.155785 0.851198C0.410743 1.17749 0.708193 1.63146 0.821508 2.76639V38.3323C0.694029 39.7793 0.396578 40.2475 0.155785 40.5738C-0.127501 40.9568 -2.22479e-05 41.3824 0.722357 41.3682H8.96598V26.302H12.7054L15.3399 30.785L18.6544 36.4171L20.2691 39.1551C22.3088 42.6025 24.0935 44.5035 27.6629 44.9149C28.1445 44.9858 28.6685 45.0142 29.2209 45.0142C29.2634 45.0142 29.7309 45.0142 29.7733 45.0142C31.0481 45.0142 32.3088 44.5035 33.0736 44.163C33.1728 44.1204 33.2861 44.0779 33.3852 44.0353C34.3059 43.6097 34.0368 42.9713 33.4702 42.7443ZM14.1926 20.5281H9.23511H8.95182V5.97257H14.1926C16.7847 5.97257 18.7535 6.31305 20.2408 7.66078C20.7932 8.18569 21.2039 8.8099 21.5156 9.56179C21.8838 10.4839 22.068 11.5763 22.068 12.9098C22.0538 14.8392 21.8697 20.5281 14.1926 20.5281Z" fill="#8993A4"/>
<path d="M44.0651 26.302H53.4136V20.5281H44.0651V11.7891H58.4844V5.97257H35.9631V41.3966H58.4844V35.5233H44.0651V26.302Z" fill="#8993A4"/>
</svg>
