<?xml version="1.0" encoding="utf-8"?>
<!-- Generator: Adobe Illustrator 27.4.0, SVG Export Plug-In . SVG Version: 6.00 Build 0)  -->
<svg version="1.1" id="Layer_1" xmlns="http://www.w3.org/2000/svg" xmlns:xlink="http://www.w3.org/1999/xlink" x="0px" y="0px"
	 viewBox="0 0 1441 93.1" style="enable-background:new 0 0 1441 93.1;" xml:space="preserve">
<style type="text/css">
	.st0{opacity:0.5;}
	.st1{fill-rule:evenodd;clip-rule:evenodd;fill:url(#SVGID_1_);}
	.st2{fill:#FFFFFF;}
</style>
<g class="st0">
	
		<linearGradient id="SVGID_1_" gradientUnits="userSpaceOnUse" x1="723.9998" y1="-1504.5" x2="723.9998" y2="-1594.5" gradientTransform="matrix(1 0 0 -1 0 -1501)">
		<stop  offset="0" style="stop-color:#000000;stop-opacity:0"/>
		<stop  offset="1" style="stop-color:#091E42"/>
	</linearGradient>
	<path class="st1" d="M0.9,3.5H0.5V42l5.3,0.8l2.7,0.3c2.7,0.3,4,0.5,4,0.5l2.7-0.3c1.3-0.1,2-0.1,2.9-0.1s2,0,4.3-0.1l4,0.3h2
		c2,0,2.7,0.5,2.7,0.5h2.7l6-0.3l2.7-0.3c1.1-0.1,1.3-0.1,1.3-0.2c0,0-0.5-0.1,0.7-0.4c2-0.5,2-1.4,2-1.4l5.3-1.7l3.3-1.1l4.7-0.8
		h4.7c2.3,0,2.3,0,2.3,0s0-0.1,2.3-0.3c2.3-0.1,2.3-0.1,2.1-0.3c-0.2-0.1-0.7-0.3,0.6-0.9l0,0c0.8-0.3,1.2-0.5,1.2-0.5
		s-0.6,0.1,0.1-0.3c1.3-0.8,4.7,0,4.7,0h4.7l0.7-0.8c0.7-0.8,3.3-1.1,3.3-1.1l13.9,3.4l3.3,1.1l2.7,0.8l2.7,1.4h12.6l3.3,0.3
		c1.6,0.1,1.6,0.1,1.8,0.4c0.2,0.2,0.5,0.6,2.9,1.6L133,43l2.7,0.3l3.3,1.4l6.7,0.8c0,0,6.7,0.8,8.6,0.5s4.7,0.3,4.7,0.3l6,2h13.9
		c2,0,3.3,0.3,3.3,0.3l4.7,0.5l4.7-0.3l4-0.3l2.7-0.8c2.7-0.8,4.7,0,4.7,0l3.3,1.1l2-0.3c0.9-0.1,1.9-0.4,2.7-0.6
		c0.1,0,0.2-0.1,0.3-0.1c0.9-0.2,1.5-0.4,1.5-0.4l2.7-1.4c1-0.5,1.3-0.7,1.2-0.7c0-0.1-0.8,0.2,0-0.7c0,0,3.3,0.3,5.3,0
		s5.3,1.1,5.3,1.1l2-0.3c1.1-0.2,1.9-0.5,2.5-0.9s0.9-0.7,0.9-0.7l2.7-1.1c2.7-1.1,4-0.3,4-0.3l4,0.8l2-0.3c0.8-0.1,1.6-0.1,2.4-0.2
		c1.1,0,2.3-0.1,4.3-0.4h2.7l6,0.8c0,0,4,0.3,7.2,0.3c1.6,0,1.6,0,1.5-0.1c-0.2-0.1-0.5-0.2,0.5-0.5c2-0.5,4,0,4,0h3.3l2,1.1l2,1.1
		l2.7,0.3c1.3,0.1,1.3,0.1,1.4,0.1s0.1-0.1,1.9-0.1c3.3,0,2.7,1.7,2.7,1.7l2,0.3c2,0.3,3.3-0.5,3.3-0.5l3.3-0.3l2.7-0.5l2-0.5
		c2-0.5,0.7-1.1,0.7-1.1l4.7-0.3l4.7-0.3l4.7-0.3l2.7-0.3c2.7-0.3,1.3-1.1,1.3-1.1l0.7-0.8c0.7-0.8,4.7-0.3,4.7-0.3l0.7,1.1l4.7,0.3
		l2.7,0.3l5.3,1.4l2-0.3c2-0.3,3.3,0.3,3.3,0.3l3.3,1.7c0,0,6,0.3,9.9,0.3h4l0.7,1.1l5.3,1.7H382c1,0,1.8-0.1,2.6-0.1
		c0.8-0.1,1.6-0.2,2.6-0.2c2,0,2.7-1.1,2.7-1.1h2c2,0,2.7-0.3,2.7-0.3l4,0.3l4.7,1.1l6,1.4l2.7,0.8l4,0.5h9.9c2.7,0,3.3,0.5,3.3,0.5
		l4,1.1l4.7,0.3l4,0.3l6,0.3h4l2.7,0.3l7.2,2.2h5.3c0,0,3.3,0.3,6.7,0.8c1.5,0.2,1.6,0.3,1.8,0.3c0.2,0,0.3-0.1,2.9,0
		c1,0.1,1.5,0.1,1.8,0.1c0.1,0,0.2,0,0.3,0c0,0-0.1,0-0.3,0c-0.3,0-0.8-0.1,0.1-0.1l7.2-0.3l3.3-0.3l3.3,0.3l4-1.1l3.3-0.5h9.9
		c0,0,3.3,0.3,6,0.3c1.3,0,1.3,0,1.4,0c0.1,0,0.2-0.1,1.9-0.3l9.9,4.2h4.7l2.7,1.1l2.7,0.8l4.7,1.1l7.2,0.5h4.7c1.7,0,2.2,0,2.2,0
		s-1.4-0.2-0.2-0.5c0.8-0.2,1-0.3,1.1-0.3c0.2-0.1,0.3-0.3,2.2-1.1l2,1.4l2.7,0.5l2,1.4l2,0.3c2,0.3,3.3,0.3,7.2,0h2.7l4-0.3
		l2.7,0.3l3.3,1.1l3.3,0.3l4-0.5l2.7-0.8l3.3,0.8l4,1.1l4.7,1.4l4,0.3h2c2,0,5.3-1.1,5.3-1.1l2.7-0.3l2-0.3c2-0.3,3.3,0.3,3.3,0.3
		l1.3,1.1l0.7,1.1l3.3,0.8l4.7-0.3l2-0.3c2-0.3,3.3-0.8,3.3-0.8l2.7-1.4l2.7-0.8l2.7,0.3V68l1.3,1.1l5.3,1.4h2.7
		c2.7,0,3.3,0.3,3.3,0.3h3.3l2.7,0.3l2-0.3c2-0.3,4.7,0.3,4.7,0.3s2,1.1,5.3,1.4h5.3c2.7,0,6.7,0.5,6.7,0.5s3.3,0.5,6,0.5
		s3.3-0.8,3.3-0.8h4c2,0,2,0,1.8,0s-0.5-0.1,0.9-0.3c2.7-0.3,4.7,0.8,4.7,0.8l2-0.3c2-0.3,3.3-0.3,3.3-0.3l3.3-0.5l4-0.3l2.7-0.5
		l2.7-0.8l2.7-0.5l2.7-1.1l3.3-1.1c0,0,5.3-0.3,7.2-0.5c2-0.3,3.3,0.3,3.3,0.3h7.2l2-0.3c2-0.3,4.7-0.3,4.7-0.3l4-0.3l2-0.5
		c2-0.5,1.3-1.1,1.3-1.1l3.3-1.1l2.7-0.5l3.3-0.3l6-1.1l9.9-0.8l2.7-0.3c2.7-0.3,6.7-0.8,6.7-0.8l6-0.5h5.3l6.7,0.3l2-0.3
		c2-0.3,2.7,0.8,2.7,0.8h2.7l2-0.3c2-0.3,2-1.7,2-1.7l2.7-1.1l3.3-0.3l2,0.3c2,0.3,2.7,1.1,2.7,1.1h6.7l3.3,0.3l3.3,0.3l3.3,0.8
		l3.3-0.5c1.6-0.3,1.6-0.3,1.6-0.4c0-0.1,0-0.3,1.6-1l4,0.3h4l7.2-0.3l2.7-0.5l6-0.3l2.7,0.3h2c0.8,0,1.4,0.1,2,0.2
		c0.9,0.1,1.7,0.3,3.3,0.1c0.8-0.1,1.8-0.2,2.6-0.2c1.5,0,2.8,0.2,2.8,0.2l2-0.8c2-0.8,4,0.3,4,0.3l3.3,0.8l4.7,0.8
		c0,0,2.7,0.3,6-0.5L938,57h2.7l3.3,1.7l6,0.3l2-0.3c2-0.3,4-0.5,4-0.5l2.7-0.5l3.3-0.3l3.3-0.3l4-0.3c0,0,7.2,0.3,9.9,0
		c1-0.1,1.2-0.1,1.2-0.1s-0.8,0.1,0,0.1h11.2l3.3,0.5l4.7,0.8l2.7-0.3l2.7-0.3l2.7,0.8l1.3,1.1l3.3,1.1l4,1.1l2,1.4l4,1.1l3.3,0.5
		l2.7,0.3l1.3,1.1v1.1l2.7,0.8l4-0.3h4.7l3.3-0.8l2-0.5c2-0.5,5.2-1.1,5.2-1.1l4,0.8l3.3,0.8l4.7,1.1l4,0.3l3.3-0.3l4,0.3l4-0.8
		c0.1,0,0.3,0,0.7-0.1c0.3,0,0.7-0.1,1.2-0.2c2-0.3,3.3-0.5,3.3-0.5h7.9l2-1.7l4.7-0.5c2.3-0.3,3.6-0.5,4.4-0.7
		c0.7-0.2,0.9-0.3,0.9-0.3l4.7-0.5c2.3-0.3,2.3-0.3,2-0.2s-1,0.2,0,0.2h16.6l4.7,1.1l3.3,0.8h4.7l2-0.5c2-0.5,3.3-1.1,3.3-1.1h2
		c2,0,3.3,1.1,3.3,1.1l3.3,1.7l2.7,0.3l2,1.4l4,1.4h4.7c0,0,6,1.4,9.2,1.4l5.2,1.7h2c1,0,2,0,2.7-0.1c0.7,0,1.3-0.1,1.3-0.1l2-0.3
		c2-0.3,2.7-0.8,2.7-0.8l2.7,0.5l3.3,1.1v1.4l1.3,1.1h2.7l2.7-0.8l5.3,0.3l2.7,1.4l2.7,0.5l3.3,1.4l4.7,0.3l3.3-0.3
		c1.5-0.1,1.6-0.1,1.7-0.1s0.2,0.1,2.3,0.1l4.7,0.8h4l5.2-0.3l2.7,1.1l2,0.3c2,0.3,2.7,0,2.7,0h3.3l3.3,0.3l3.3,0.8l0.7,1.7l2.7,1.4
		l1.3,1.4l2,0.3c2,0.3,5.9,0.5,5.9,0.5l2.7,0.3l6-1.1l2.7-0.5l2,1.4l1.3,1.1l2,1.4l4,1.1l3.3,0.3h6.7l4-0.3l4,0.5h0.2
		c0.3,0.1,1.2,0.2,3,0.5l1.3,1.4l2.7,0.3c2.7,0.3,2.7-0.3,2.7-0.3l4-0.3l2-0.3c1-0.1,1-0.1,1.3-0.2s1-0.2,3.3-0.6s2.3-0.4,2-0.4
		s-1,0,0-0.4c0.8-0.3,0.9-0.4,1.1-0.5c0.3-0.1,0.6-0.2,3.5-1.2l3.3-0.3h3.3l4,0.3c0,0,2.7,0.5,4.7,0.5s4-0.3,4-0.3l2.7-0.5
		c2.7-0.5,5.2,0,5.2,0l2-0.3c2-0.3,3.3-0.3,3.3-0.3l5.9-1.1l4-1.7l2.7-0.5l4.7,0.3l6,0.5c0,0,2.7,0,5.9-0.8l2.7-0.5h15.9l3.3-0.5
		h3.3l2.7,0.3h4.7c1,0,1.7-0.1,2.3-0.1c0.7-0.1,1.3-0.2,2.3-0.2c2,0,1.3-1.1,1.3-1.1l6.7-0.3V50.2l-6.5,0.3c0,0,0.7,1.1-1.3,1.1
		c-1,0-1.7,0.1-2.3,0.2c-0.7,0.1-1.3,0.2-2.3,0.2h-4.7l-2.7-0.3h-3.3l-3.3,0.6l-15.9,0.1l-2.7,0.6c-3.3,0.9-5.9,0.9-5.9,0.9
		l-5.9-0.5l-4.7-0.3l-2.7,0.6l-4,1.7l-12.8,1.1c0,0-1.3,0-3.3,0.3l-2,0.3c0,0-2.6-0.5-5.2,0l-2.7,0.6c0,0-2,0.3-4,0.3
		s-4.7-0.5-4.7-0.5l-4-0.3h-3.3l-3.3,0.3c-2.9,1.1-3.2,1.1-3.5,1.2c-0.2,0.1-0.4,0.1-1.1,0.5c-1,0.4-0.3,0.4,0,0.4s0.3,0-2,0.4
		c-2.9,0.5-3.2,0.6-3.5,0.7c-0.2,0-0.4,0.1-1.1,0.2l-2,0.3l-4,0.3c0,0,0,0.6-2.7,0.3l-2.7-0.3l-1.3-1.4c-1.9-0.3-2.7-0.5-3-0.5h-0.2
		l-4-0.5l-4,0.3h-6.6l-3.3-0.3l-4-1.1l-2-1.4l-1.3-1.1l-2-1.4l-2.7,0.6l-6,1.2l-2.7-0.3c0,0-4-0.2-6-0.5l-2-0.3l-1.3-1.4l-2.7-1.4
		l-0.7-1.7l-3.3-0.8l-3.3-0.3h-3.3c0,0-0.7,0.3-2.7,0l-2-0.3l-2.7-1.1l-5.2,0.3h-4l-4.7-0.8c-2.1,0-2.2-0.1-2.3-0.1
		c-0.1,0-0.2,0-1.7,0.1l-3.3,0.3l-4.7-0.3l-3.3-1.4l-2.7-0.5l-2.7-1.4l-5.3-0.3l-2.7,0.9h-2.7l-1.3-1.1v-1.4l-3.3-1.1l-2.7-0.5
		c0,0-0.7,0.5-2.7,0.9l-2,0.3c0,0-0.6,0.1-1.3,0.2c-0.7,0.1-1.6,0.2-2.7,0.2h-2l-5.3-1.6c-3.3,0-9.2-1.3-9.2-1.3h-4.7l-4-1.4l-2-1.4
		l-2.7-0.3l-3.3-1.7c0,0-1.3-1.1-3.3-1.1h-2c0,0-1.3,0.6-3.3,1.2l-2,0.6h-4.7l-3.3-0.8l-4.7-1.1l-16.6,0.1c-1,0-0.3-0.1,0-0.2
		s0.3-0.1-2,0.2l-4.7,0.6c0,0-0.2,0.1-0.9,0.4c-0.8,0.2-2.1,0.5-4.4,0.8l-4.7,0.6l-2,1.7l-7.9,0.1c0,0-1.3,0.3-3.3,0.6
		c-0.5,0.1-0.9,0.1-1.2,0.2c-0.3,0.1-0.5,0.1-0.7,0.1l-4,0.9l-4-0.3l-3.3,0.3l-4-0.3l-4.7-1.1l-3.3-0.8l-4-0.8c0,0-3.3,0.6-5.2,1.2
		l-2,0.6l-3.3,0.9h-4.7l-4,0.3l-2.7-0.8v-1.1l-1.3-1.1l-2.7-0.3l-3.3-0.5l-4-1.1l-2-1.4l-4-1.1l-3.3-1.1l-1.3-1.1l-2.7-0.8l-2.7,0.3
		l-2.7,0.3l-4.7-0.8l-3.3-0.5l-11.2,0.1c-0.8,0,0-0.1,0-0.1s-0.3,0-1.2,0.1c-2.7,0.3-9.9,0.1-9.9,0.1l-4,0.3l-3.3,0.3l-3.3,0.3
		l-2.7,0.6c0,0-2,0.3-4,0.6l-2,0.3l-6-0.3l-3.3-1.7h-2.7l-3.3,1.4c-3.3,0.9-5.9,0.6-5.9,0.6l-4.7-0.8l-3.3-0.8c0,0-2-1.1-4-0.3
		l-2,0.9c0,0-1.3-0.1-2.8-0.1c-0.8,0-1.8,0.1-2.6,0.2c-1.5,0.2-2.4,0-3.3-0.1c-0.6-0.1-1.2-0.2-2-0.2h-2l-2.7-0.3l-5.9,0.3l-2.7,0.6
		l-7.2,0.3h-4l-4-0.3c-1.6,0.7-1.6,0.9-1.6,1s0,0.1-1.6,0.4l-3.3,0.6l-3.3-0.8l-3.3-0.3l-3.3-0.3h-6.6c0,0-0.7-0.8-2.7-1.1l-2-0.3
		l-3.3,0.3l-2.7,1.2c0,0,0,1.4-2,1.7l-2,0.3h-2.7c0,0-0.7-1.1-2.7-0.8l-2,0.3l-6.7-0.3h-5.2l-5.9,0.6c0,0-4,0.6-6.6,0.9l-2.7,0.3
		l-9.9,0.9l-5.9,1.2l-3.3,0.3l-2.7,0.6l-3.3,1.2c0,0,0.7,0.6-1.3,1.1l-2,0.6l-4,0.3c0,0-2.7,0-4.7,0.3l-2,0.3h-7.2
		c0,0-1.3-0.6-3.3-0.3s-7.2,0.6-7.2,0.6l-3.3,1.2l-2.7,1.2l-2.7,0.6l-2.7,0.9l-2.7,0.6l-4,0.3l-3.3,0.6c0,0-1.3,0-3.3,0.3l-2,0.3
		c0,0-2-1.1-4.7-0.8c-1.3,0.2-1,0.2-0.9,0.3c0.2,0,0.2,0-1.8,0h-4c0,0-0.6,0.8-3.3,0.9c-2.7,0-6-0.5-6-0.5s-4-0.5-6.7-0.5h-5.2
		c-3.3-0.2-5.3-1.3-5.3-1.3s-2.7-0.6-4.7-0.3l-2,0.3l-2.7-0.3h-3.3c0,0-0.6-0.3-3.3-0.3h-2.7l-5.3-1.3l-1.3-1.1V41l-2.7-0.3
		l-2.7,0.9l-2.7,1.4c0,0-1.3,0.6-3.3,0.9l-2,0.3l-4.7,0.3l-3.3-0.8l-0.7-1.1l-1.3-1.1c0,0-1.3-0.6-3.3-0.3l-2,0.3l-2.7,0.3
		c0,0-3.3,1.2-5.2,1.2h-2l-4-0.3l-4.7-1.4l-4-1.1l-3.3-0.8l-2.7,0.9l-4,0.6l-3.3-0.3l-3.3-1.1l-2.7-0.3l-4,0.3h-2.7
		c-4,0.3-5.2,0.3-7.2,0l-2-0.3l-2-1.4l-2.7-0.5l-2-1.4c-1.9,0.8-2,1-2.2,1.1c-0.1,0.1-0.2,0.1-1.1,0.3c-1.3,0.4,0.2,0.5,0.2,0.5
		s-0.5,0-2.2,0h-4.7l-7.2-0.5l-4.7-1.1l-2.7-0.8l-2.7-1.1h-4.7l-9.9-4.1c-1.6,0.2-1.8,0.2-1.9,0.3c-0.1,0-0.1,0-1.4,0
		c-2.7,0-6-0.3-6-0.3l-9.9,0.1l-3.3,0.6l-4,1.2l-3.3-0.3l-3.3,0.3l-7.2,0.3c-0.9,0-0.5,0.1-0.1,0.1c-0.3,0-0.9-0.1-1.8-0.1
		c-2.6-0.1-2.7-0.1-2.9,0c-0.1,0-0.3,0-1.8-0.2c-3.4-0.5-6.7-0.8-6.7-0.8h-5.2l-7.2-2.2l-2.7-0.3h-4l-6-0.3l-4-0.3l-4.7-0.3l-4-1.1
		c0,0-0.6-0.5-3.3-0.5l-9.9,0.1l-4-0.5l-2.7-0.8l-6-1.3l-4.7-1.1l-4-0.3c0,0-0.7,0.3-2.7,0.3h-2c0,0-0.7,1.1-2.7,1.2
		c-1,0-1.8,0.1-2.6,0.2c-0.8,0.1-1.6,0.2-2.6,0.2l-12.6,0.1l-5.3-1.6l-0.7-1.1h-4c-4,0-9.9-0.2-9.9-0.2l-3.3-1.7
		c0,0-1.3-0.6-3.3-0.3l-2,0.3l-5.3-1.3l-2.7-0.3l-4.7-0.3l-0.7-1.1c0,0-4-0.5-4.7,0.3l-0.7,0.8c0,0,1.4,0.8-1.3,1.1l-2.7,0.3
		l-4.7,0.3L303,20l-4.7,0.3c0,0,1.3,0.6-0.7,1.1l-2,0.6l-2.7,0.6l-3.3,0.3c0,0-1.3,0.8-3.3,0.6l-2-0.3c0,0,0.6-1.7-2.7-1.7
		c-1.6,0-1.8,0.1-1.9,0.1s-0.1,0-1.4-0.1l-2.7-0.3l-2-1.1l-2-1.1h-3.3c0,0-2-0.5-4,0c-1,0.3-0.7,0.4-0.5,0.5s0.2,0.1-1.5,0.1
		c-3.3,0-7.2-0.2-7.2-0.2l-6-0.8h-2.7c-1.9,0.3-3.2,0.4-4.3,0.4c-0.8,0-1.5,0.1-2.4,0.2l-2,0.3l-4-0.8c0,0-1.3-0.8-4,0.3l-2.7,1.2
		c0,0-0.3,0.3-0.9,0.7c-0.6,0.4-1.4,0.8-2.4,1l-2,0.3c0,0-3.3-1.4-5.3-1.1s-5.2,0-5.2,0c-0.8,0.9-0.1,0.6,0,0.7c0,0-0.2,0.2-1.2,0.7
		l-2.7,1.4c0,0-0.6,0.2-1.5,0.5c-0.1,0-0.2,0.1-0.3,0.1c-0.8,0.2-1.8,0.5-2.7,0.6l-2,0.3l-3.3-1.1c0,0-2-0.8-4.7,0l-2.7,0.9l-4,0.3
		l-4.7,0.3l-4.7-0.5c0,0-1.3-0.3-3.3-0.3l-8.7,0.5l-6-1.9c0,0-2.7-0.6-4.7-0.3c-2,0.3-8.6-0.5-8.6-0.5l-6.7-0.8l-3.3-1.4l-2.7-0.3
		l-3.3-0.5c-2.3-1-2.7-1.4-2.9-1.6c-0.2-0.2-0.2-0.2-1.8-0.3l-3.3-0.3l-12.6,0.1l-2.7-1.4l-2.7-0.8l-3.3-1.1l-13.6-3.3
		c0,0-2.6,0.3-3.3,1.2l-0.7,0.8h-4.7c0,0-3.4-0.8-4.7,0c-0.6,0.5,0,0.4,0,0.4s-0.3,0.2-1.2,0.6c-1.3,0.6-0.8,0.8-0.6,0.9
		c0.2,0.1,0.2,0.1-2.1,0.3s-2.3,0.2-2.3,0.3c0,0,0,0-2.3,0.1h-4.7l-4.7,0.9l-3.3,1.2l-5.2,1.7c0,0,0,0.8-2,1.4
		c-1.2,0.3-0.7,0.4-0.7,0.4s-0.2,0-1.3,0.2L40,21.8l-5.9,0.3h-2.7c0,0-0.7-0.5-2.7-0.5h-2l-4-0.3c-2.3,0.2-3.4,0.2-4.3,0.2
		s-1.6,0-2.9,0.2L12.8,22c0,0-1.3-0.2-4-0.5l-2.7-0.3l-5.3-0.8L0.9,3.5z M478.7,32.8c-0.1,0-0.2,0-0.3,0
		C478.7,32.8,478.7,32.8,478.7,32.8z M1440.5,6.3V3.5l0,0V6.3z"/>
</g>
<path class="st2" d="M1440.5,79v52.9H0.5V39l5.2,0.9l2.7,0.3c2.7,0.3,4,0.5,4,0.5l2.7-0.3c1.3-0.2,2-0.2,2.9-0.2c0.9,0,2,0,4.3-0.1
	l4,0.3h2c2,0,2.7,0.5,2.7,0.5h2.7l5.9-0.3l2.7-0.3c1.1-0.1,1.3-0.2,1.3-0.2s-0.5,0,0.7-0.4c2-0.6,2-1.4,2-1.4l5.2-1.7l3.3-1.1
	l4.7-0.9h4.7c2.3,0,2.3,0,2.3,0s0-0.1,2.3-0.3s2.3-0.2,2.1-0.3c-0.2-0.1-0.7-0.3,0.6-0.9c0.8-0.3,1.2-0.5,1.2-0.5s-0.6,0.2,0.1-0.3
	c1.3-0.8,4.7,0,4.7,0h4.7l0.7-0.8c0.7-0.9,3.3-1.2,3.3-1.2l13.9,3.4l3.3,1.1l2.7,0.9l2.7,1.4h12.6l3.1,0.4c1.6,0.2,1.6,0.2,1.8,0.4
	c0.2,0.2,0.5,0.6,2.9,1.6l3.3,0.6l2.7,0.3l3.3,1.4l6.6,0.9c0,0,6.7,0.8,8.6,0.5c2-0.3,4.7,0.3,4.7,0.3l6,2h13.9c2,0,3.3,0.3,3.3,0.3
	l4.7,0.6l4.7-0.3l4-0.3l2.7-0.8c2.7-0.9,4.7,0,4.7,0l3.3,1.1l2-0.3c0.9-0.1,1.9-0.4,2.7-0.6c0.1,0,0.2-0.1,0.3-0.1
	c0.9-0.2,1.5-0.4,1.5-0.4l2.7-1.4c1-0.5,1.2-0.7,1.2-0.7c0-0.1-0.8,0.2,0-0.7c0,0,3.3,0.3,5.2,0c2-0.3,5.2,1.2,5.2,1.2l2-0.3
	c1-0.2,1.9-0.5,2.5-1c0.6-0.4,0.9-0.8,0.9-0.8l2.7-1.2c2.7-1.1,4-0.3,4-0.3l4,0.9l2-0.3c0.8-0.1,1.6-0.1,2.4-0.2
	c1.1,0,2.3-0.1,4.3-0.4h2.7l5.9,0.9c0,0,4,0.3,7.2,0.3c1.6,0,1.6,0,1.5-0.1s-0.5-0.2,0.5-0.5c2-0.6,4,0,4,0h3.3l2,1.1l2,1.2l2.7,0.3
	c1.2,0.1,1.3,0.2,1.4,0.1c0.1,0,0.1-0.1,1.9-0.1c3.3,0,2.7,1.7,2.7,1.7l2,0.3c2,0.3,3.3-0.5,3.3-0.5l3.3-0.3l2.7-0.6l2-0.5
	c2-0.5,0.7-1.1,0.7-1.1l4.7-0.3l4.7-0.3l4.7-0.3l2.7-0.3c2.7-0.3,1.3-1.2,1.3-1.2l0.7-0.8c0.7-0.9,4.7-0.3,4.7-0.3l0.7,1.1l4.7,0.3
	l2.7,0.3l5.2,1.4l2-0.3c2-0.3,3.3,0.3,3.3,0.3l3.3,1.7c0,0,6,0.3,9.9,0.3h4l0.7,1.2l5.2,1.7h12.6c1,0,1.8-0.1,2.6-0.2
	c0.8-0.1,1.6-0.2,2.6-0.2c2,0,2.7-1.1,2.7-1.1h2c2,0,2.7-0.3,2.7-0.3l4,0.3l4.7,1.1l6,1.4l2.7,0.8l4,0.5h9.9c2.7,0,3.3,0.5,3.3,0.5
	l4,1.2l4.7,0.3l4,0.3l6,0.3h4l2.7,0.3l7.2,2.2h5.2c0,0,3.3,0.3,6.6,0.9c1.5,0.2,1.6,0.3,1.8,0.3c0.2,0,0.3-0.1,2.9,0
	c0.9,0.1,1.5,0.1,1.8,0.1c-0.3,0-0.6-0.1,0.2-0.1l7.2-0.3l3.3-0.3l3.3,0.3l4-1.2l3.3-0.5h9.9c0,0,3.3,0.3,6,0.3c1.3,0,1.3,0,1.4,0
	c0.1,0,0.2-0.1,1.8-0.3l9.9,4.2h4.7l2.7,1.2l2.7,0.8l4.7,1.2l7.2,0.5h4.7c1.7,0,2.1,0,2.1,0s-1.4-0.2-0.2-0.5c0.8-0.2,1-0.3,1.1-0.3
	c0.2-0.1,0.3-0.3,2.2-1.1l2,1.4l2.7,0.5l2,1.4l2,0.3c2,0.3,3.3,0.3,7.2,0h2.7l4-0.3l2.7,0.3l3.3,1.1l3.3,0.3l4-0.5l2.7-0.8l3.3,0.8
	l4,1.2l4.7,1.4l4,0.3h2c2,0,5.2-1.2,5.2-1.2l2.7-0.3l2-0.3c2-0.3,3.3,0.3,3.3,0.3l1.3,1.1L633,67l3.3,0.8l4.7-0.3l2-0.3
	c2-0.3,3.3-0.8,3.3-0.8L649,65l2.7-0.8l2.7,0.3v1.1l1.3,1.2l5.2,1.4h2.7c2.7,0,3.3,0.3,3.3,0.3h3.3l2.7,0.3l2-0.3
	c2-0.3,4.7,0.3,4.7,0.3s2,1.2,5.2,1.4h5.2c2.7,0,6.7,0.5,6.7,0.5s3.3,0.5,6,0.5s3.3-0.8,3.3-0.8h4c2,0,2,0,1.8,0s-0.5-0.1,0.9-0.3
	c2.7-0.3,4.7,0.9,4.7,0.9l2-0.3c2-0.3,3.3-0.3,3.3-0.3l3.3-0.5l4-0.3l2.7-0.5l2.7-0.9l2.7-0.5l2.7-1.1l3.3-1.2c0,0,5.2-0.3,7.2-0.5
	c2-0.3,3.3,0.3,3.3,0.3h7.2l2-0.3c2-0.3,4.7-0.3,4.7-0.3l4-0.3l2-0.5c2-0.5,1.3-1.1,1.3-1.1l3.3-1.2l2.7-0.5l3.3-0.3l6-1.2l9.9-0.8
	l2.7-0.3c2.7-0.3,6.7-0.8,6.7-0.8l5.9-0.5h5.2l6.7,0.3l2-0.3c2-0.3,2.7,0.8,2.7,0.8h2.7l2-0.3c2-0.3,2-1.7,2-1.7l2.7-1.1l3.3-0.3
	l2,0.3c2,0.3,2.7,1.1,2.7,1.1h6.6l3.3,0.3l3.3,0.3l3.3,0.8l3.3-0.5c1.6-0.3,1.6-0.3,1.6-0.4c0-0.1,0-0.3,1.6-1l4,0.3h4l7.2-0.3
	l2.7-0.5l6-0.3l2.7,0.3h2c0.8,0,1.4,0.1,2,0.2c0.9,0.1,1.7,0.3,3.2,0.1c0.8-0.1,1.8-0.1,2.6-0.1c1.5,0,2.8,0.1,2.8,0.1l2-0.8
	c2-0.9,4,0.3,4,0.3l3.3,0.8l4.7,0.9c0,0,2.7,0.3,6-0.5l3.3-1.4h2.7l3.3,1.7l6,0.3l2-0.3c2-0.3,4-0.5,4-0.5l2.7-0.6l3.3-0.3l3.3-0.3
	l4-0.3c0,0,7.2,0.3,9.9,0c1-0.1,1.2-0.1,1.2-0.1s-0.8,0.1,0,0.1h11.2l3.3,0.5l4.7,0.8l2.7-0.3l2.7-0.3l2.7,0.8l1.3,1.2l3.3,1.2
	l4,1.1l2,1.4l4,1.1l3.3,0.6l2.7,0.3l1.3,1.1v1.2l2.7,0.8l4-0.3h4.7l3.3-0.8l2-0.5c2-0.6,5.2-1.2,5.2-1.2l4,0.8l3.3,0.9l4.7,1.1
	l4,0.3l3.3-0.3l4,0.3l4-0.9c0.1,0,0.3,0,0.7-0.1c0.3,0,0.7-0.1,1.2-0.2c2-0.3,3.3-0.5,3.3-0.5h7.9l2-1.7l4.7-0.5
	c2.3-0.3,3.6-0.5,4.4-0.8c0.7-0.2,0.9-0.3,0.9-0.3l4.7-0.6c2.3-0.3,2.3-0.3,2-0.2s-1,0.2,0,0.2h16.6l4.7,1.2l3.3,0.8h4.7l2-0.5
	c2-0.5,3.3-1.1,3.3-1.1h2c2,0,3.3,1.1,3.3,1.1l3.3,1.7l2.7,0.3l2,1.4l4,1.4h4.7c0,0,5.9,1.4,9.2,1.4l5.2,1.7h2c1.1,0,2,0,2.7-0.2
	c0.7,0,1.3-0.1,1.3-0.1l2-0.3c2-0.3,2.7-0.8,2.7-0.8l2.7,0.5l3.3,1.2v1.4l1.3,1.2h2.7l2.7-0.8l5.3,0.3l2.7,1.4l2.7,0.6l3.3,1.4
	l4.7,0.3l3.3-0.3c1.5-0.1,1.6-0.1,1.7-0.1s0.2,0.1,2.3,0.1l4.7,0.9h4l5.2-0.3l2.7,1.2l2,0.3c2,0.3,2.7,0,2.7,0h3.3l3.3,0.3l3.3,0.9
	l0.7,1.7l2.7,1.4l1.3,1.4l2,0.3c2,0.3,5.9,0.5,5.9,0.5l2.7,0.3l6-1.1l2.7-0.5l2,1.4l1.3,1.2l2,1.4l4,1.2l3.3,0.3h6.7l4-0.3l4,0.5
	h0.2c0.4,0,1.2,0.2,3,0.5l1.3,1.4l2.7,0.3c2.7,0.3,2.7-0.3,2.7-0.3l4-0.3l2-0.3c1-0.2,1-0.2,1.3-0.2c0.3-0.1,1-0.2,3.3-0.6
	s2.3-0.4,2-0.4s-1,0,0-0.4c0.8-0.3,0.9-0.4,1.1-0.5c0.3-0.1,0.6-0.2,3.5-1.2l3.3-0.3h3.3l4,0.3c0,0,2.7,0.5,4.7,0.5s4-0.3,4-0.3
	l2.7-0.5c2.7-0.5,5.2,0,5.2,0l2-0.3c2-0.3,3.3-0.3,3.3-0.3l5.9-1.1l4-1.7l2.7-0.5l4.7,0.3l6,0.5c0,0,2.7,0,5.9-0.8l2.7-0.5h15.9
	l3.3-0.6h3.3l2.7,0.3h4.7c1,0,1.7-0.1,2.3-0.2c0.7-0.1,1.3-0.2,2.3-0.2c2,0,1.3-1.1,1.3-1.1L1440.5,79z"/>
</svg>
