<svg width="74" height="60" viewBox="0 0 74 60" fill="none" xmlns="http://www.w3.org/2000/svg">
<path d="M23.6871 59.464C51.0341 59.464 65.9981 36.786 65.9981 17.153C65.9981 16.515 65.9981 15.877 65.9691 15.239C68.8691 13.151 71.3921 10.512 73.3931 7.525C70.7251 8.714 67.8541 9.497 64.8381 9.874C67.9121 8.047 70.2611 5.118 71.3921 1.638C68.5211 3.349 65.3311 4.567 61.9381 5.234C59.2121 2.334 55.3551 0.536001 51.0921 0.536001C42.8851 0.536001 36.2151 7.206 36.2151 15.413C36.2151 16.573 36.3601 17.704 36.5921 18.806C24.2381 18.197 13.2761 12.252 5.93912 3.262C4.66312 5.466 3.93812 8.018 3.93812 10.744C3.93812 15.906 6.57712 20.459 10.5501 23.127C8.11412 23.04 5.82312 22.373 3.82212 21.271C3.82212 21.329 3.82212 21.387 3.82212 21.474C3.82212 28.666 8.95512 34.698 15.7411 36.061C14.4941 36.409 13.1891 36.583 11.8261 36.583C10.8691 36.583 9.94112 36.496 9.04212 36.322C10.9271 42.238 16.4371 46.53 22.9331 46.646C17.8291 50.648 11.4201 53.026 4.46012 53.026C3.27112 53.026 2.08212 52.968 0.922119 52.823C7.47612 56.999 15.3061 59.464 23.6871 59.464Z" fill="#8993A4"/>
</svg>
